<?xml version="1.0" encoding="UTF-8" standalone="no"?><svg xmlns="http://www.w3.org/2000/svg" xmlns:xlink="http://www.w3.org/1999/xlink" contentScriptType="application/ecmascript" contentStyleType="text/css" height="972px" preserveAspectRatio="none" style="width:1081px;height:972px;" version="1.1" viewBox="0 0 1081 972" width="1081px" zoomAndPan="magnify"><defs><filter height="300%" id="f1mn3kzfftjvtn" width="300%" x="-1" y="-1"><feGaussianBlur result="blurOut" stdDeviation="2.0"/><feColorMatrix in="blurOut" result="blurOut2" type="matrix" values="0 0 0 0 0 0 0 0 0 0 0 0 0 0 0 0 0 0 .4 0"/><feOffset dx="4.0" dy="4.0" in="blurOut2" result="blurOut3"/><feBlend in="SourceGraphic" in2="blurOut3" mode="normal"/></filter></defs><g><!--cluster Manage xowners--><rect fill="#FFFFFF" filter="url(#f1mn3kzfftjvtn)" height="374" style="stroke: #000000; stroke-width: 1.5;" width="183" x="22" y="587"/><text fill="#000000" font-family="sans-serif" font-size="14" font-weight="bold" lengthAdjust="spacingAndGlyphs" textLength="135" x="46" y="601.9951">Manage xowners</text><!--cluster Manage entities--><rect fill="#FFFFFF" filter="url(#f1mn3kzfftjvtn)" height="370" style="stroke: #000000; stroke-width: 1.5;" width="179" x="341" y="471"/><text fill="#000000" font-family="sans-serif" font-size="14" font-weight="bold" lengthAdjust="spacingAndGlyphs" textLength="125" x="368" y="485.9951">Manage entities</text><!--cluster Access control--><rect fill="#FFFFFF" filter="url(#f1mn3kzfftjvtn)" height="485" style="stroke: #000000; stroke-width: 1.5;" width="182" x="710" y="357"/><text fill="#000000" font-family="sans-serif" font-size="14" font-weight="bold" lengthAdjust="spacingAndGlyphs" textLength="118" x="742" y="371.9951">Access control</text><!--cluster Data access--><rect fill="#FFFFFF" filter="url(#f1mn3kzfftjvtn)" height="423" style="stroke: #000000; stroke-width: 1.5;" width="168" x="346.5" y="24"/><text fill="#000000" font-family="sans-serif" font-size="14" font-weight="bold" lengthAdjust="spacingAndGlyphs" textLength="95" x="383" y="38.9951">Data access</text><!--cluster Search--><rect fill="#FFFFFF" filter="url(#f1mn3kzfftjvtn)" height="83" style="stroke: #000000; stroke-width: 1.5;" width="169" x="716.5" y="250"/><text fill="#000000" font-family="sans-serif" font-size="14" font-weight="bold" lengthAdjust="spacingAndGlyphs" textLength="55" x="773.5" y="264.9951">Search</text><ellipse cx="113.4543" cy="638.7909" fill="#FEFECE" filter="url(#f1mn3kzfftjvtn)" rx="69.4543" ry="16.2909" style="stroke: #A80036; stroke-width: 1.5;"/><text fill="#000000" font-family="sans-serif" font-size="14" lengthAdjust="spacingAndGlyphs" textLength="105" x="60.9543" y="643.4393">Register owner</text><ellipse cx="113.5253" cy="708.0051" fill="#FEFECE" filter="url(#f1mn3kzfftjvtn)" rx="75.5253" ry="17.5051" style="stroke: #A80036; stroke-width: 1.5;"/><text fill="#000000" font-family="sans-serif" font-size="14" lengthAdjust="spacingAndGlyphs" textLength="120" x="53.5253" y="712.6535">Deregister owner</text><ellipse cx="113.3742" cy="775.7748" fill="#FEFECE" filter="url(#f1mn3kzfftjvtn)" rx="61.8742" ry="14.7748" style="stroke: #A80036; stroke-width: 1.5;"/><text fill="#000000" font-family="sans-serif" font-size="14" lengthAdjust="spacingAndGlyphs" textLength="85" x="70.8742" y="780.4233">Block owner</text><ellipse cx="113.6672" cy="842.1334" fill="#FEFECE" filter="url(#f1mn3kzfftjvtn)" rx="68.6672" ry="16.1334" style="stroke: #A80036; stroke-width: 1.5;"/><text fill="#000000" font-family="sans-serif" font-size="14" lengthAdjust="spacingAndGlyphs" textLength="103" x="62.1672" y="846.7819">Unblock owner</text><ellipse cx="113.2811" cy="918.8271" fill="#FEFECE" filter="url(#f1mn3kzfftjvtn)" rx="63.2811" ry="25.3271" style="stroke: #A80036; stroke-width: 1.5;"/><text fill="#000000" font-family="sans-serif" font-size="14" lengthAdjust="spacingAndGlyphs" textLength="88" x="69.2811" y="916.3625">Reset owner</text><text fill="#000000" font-family="sans-serif" font-size="14" lengthAdjust="spacingAndGlyphs" textLength="76" x="75.2811" y="932.6594">credentials</text><ellipse cx="430.4975" cy="608.8995" fill="#FEFECE" filter="url(#f1mn3kzfftjvtn)" rx="67.4975" ry="15.8995" style="stroke: #A80036; stroke-width: 1.5;"/><text fill="#000000" font-family="sans-serif" font-size="14" lengthAdjust="spacingAndGlyphs" textLength="100" x="380.4975" y="613.5479">Register entity</text><ellipse cx="430.4711" cy="677.0942" fill="#FEFECE" filter="url(#f1mn3kzfftjvtn)" rx="73.4711" ry="17.0942" style="stroke: #A80036; stroke-width: 1.5;"/><text fill="#000000" font-family="sans-serif" font-size="14" lengthAdjust="spacingAndGlyphs" textLength="115" x="372.9711" y="681.7427">Deregister entity</text><ellipse cx="430.5685" cy="744.0236" fill="#FEFECE" filter="url(#f1mn3kzfftjvtn)" rx="59.5685" ry="14.5236" style="stroke: #A80036; stroke-width: 1.5;"/><text fill="#000000" font-family="sans-serif" font-size="14" lengthAdjust="spacingAndGlyphs" textLength="80" x="390.5685" y="748.6721">Block entity</text><ellipse cx="430.7254" cy="809.2451" fill="#FEFECE" filter="url(#f1mn3kzfftjvtn)" rx="66.7254" ry="15.7451" style="stroke: #A80036; stroke-width: 1.5;"/><text fill="#000000" font-family="sans-serif" font-size="14" lengthAdjust="spacingAndGlyphs" textLength="98" x="381.7254" y="813.8935">Unblock entity</text><ellipse cx="430.5168" cy="532.0866" fill="#FEFECE" filter="url(#f1mn3kzfftjvtn)" rx="60.5168" ry="25.5866" style="stroke: #A80036; stroke-width: 1.5;"/><text fill="#000000" font-family="sans-serif" font-size="14" lengthAdjust="spacingAndGlyphs" textLength="83" x="389.0168" y="529.2449">Reset entity</text><text fill="#000000" font-family="sans-serif" font-size="14" lengthAdjust="spacingAndGlyphs" textLength="76" x="392.5168" y="545.5417">credentials</text><ellipse cx="800.8648" cy="717.7629" fill="#FEFECE" filter="url(#f1mn3kzfftjvtn)" rx="62.3648" ry="24.2629" style="stroke: #A80036; stroke-width: 1.5;"/><text fill="#000000" font-family="sans-serif" font-size="14" lengthAdjust="spacingAndGlyphs" textLength="91" x="755.3648" y="716.9024">Send a follow</text><text fill="#000000" font-family="sans-serif" font-size="14" lengthAdjust="spacingAndGlyphs" textLength="54" x="773.8648" y="733.1993">request</text><ellipse cx="800.9998" cy="801.9531" fill="#FEFECE" filter="url(#f1mn3kzfftjvtn)" rx="74.9998" ry="23.9531" style="stroke: #A80036; stroke-width: 1.5;"/><text fill="#000000" font-family="sans-serif" font-size="14" lengthAdjust="spacingAndGlyphs" textLength="112" x="744.9998" y="801.5802">Approve a follow</text><text fill="#000000" font-family="sans-serif" font-size="14" lengthAdjust="spacingAndGlyphs" textLength="54" x="773.9998" y="817.8771">request</text><ellipse cx="801.0122" cy="407.0236" fill="#FEFECE" filter="url(#f1mn3kzfftjvtn)" rx="44.0122" ry="14.5236" style="stroke: #A80036; stroke-width: 1.5;"/><text fill="#000000" font-family="sans-serif" font-size="14" lengthAdjust="spacingAndGlyphs" textLength="58" x="772.0122" y="411.6721">Unfollow</text><ellipse cx="800.7607" cy="480.8445" fill="#FEFECE" filter="url(#f1mn3kzfftjvtn)" rx="71.7607" ry="24.3445" style="stroke: #A80036; stroke-width: 1.5;"/><text fill="#000000" font-family="sans-serif" font-size="14" lengthAdjust="spacingAndGlyphs" textLength="65" x="768.2607" y="474.8316">Get list of</text><text fill="#000000" font-family="sans-serif" font-size="14" lengthAdjust="spacingAndGlyphs" textLength="105" x="748.2607" y="491.1284">follow requests</text><ellipse cx="801.1326" cy="565.2137" fill="#FEFECE" filter="url(#f1mn3kzfftjvtn)" rx="66.1326" ry="24.2137" style="stroke: #A80036; stroke-width: 1.5;"/><text fill="#000000" font-family="sans-serif" font-size="14" lengthAdjust="spacingAndGlyphs" textLength="56" x="773.1326" y="558.9974">Reject a</text><text fill="#000000" font-family="sans-serif" font-size="14" lengthAdjust="spacingAndGlyphs" textLength="97" x="752.6326" y="575.2943">follow request</text><ellipse cx="800.9711" cy="641.0942" fill="#FEFECE" filter="url(#f1mn3kzfftjvtn)" rx="73.4711" ry="17.0942" style="stroke: #A80036; stroke-width: 1.5;"/><text fill="#000000" font-family="sans-serif" font-size="14" lengthAdjust="spacingAndGlyphs" textLength="115" x="743.4711" y="645.7427">Get follow status</text><ellipse cx="430.3553" cy="138.0236" fill="#FEFECE" filter="url(#f1mn3kzfftjvtn)" rx="38.3553" ry="14.5236" style="stroke: #A80036; stroke-width: 1.5;"/><text fill="#000000" font-family="sans-serif" font-size="14" lengthAdjust="spacingAndGlyphs" textLength="50" x="405.3553" y="142.6721">Publish</text><ellipse cx="430.2904" cy="74.0236" fill="#FEFECE" filter="url(#f1mn3kzfftjvtn)" rx="51.7904" ry="14.5236" style="stroke: #A80036; stroke-width: 1.5;"/><text fill="#000000" font-family="sans-serif" font-size="14" lengthAdjust="spacingAndGlyphs" textLength="69" x="395.7904" y="78.6721">Subscribe</text><ellipse cx="430.7194" cy="320.054" fill="#FEFECE" filter="url(#f1mn3kzfftjvtn)" rx="63.7194" ry="24.054" style="stroke: #A80036; stroke-width: 1.5;"/><text fill="#000000" font-family="sans-serif" font-size="14" lengthAdjust="spacingAndGlyphs" textLength="49" x="406.2194" y="313.5868">Bind to</text><text fill="#000000" font-family="sans-serif" font-size="14" lengthAdjust="spacingAndGlyphs" textLength="94" x="383.7194" y="329.8837">a data stream</text><ellipse cx="430.3159" cy="404.9744" fill="#FEFECE" filter="url(#f1mn3kzfftjvtn)" rx="67.8159" ry="25.4744" style="stroke: #A80036; stroke-width: 1.5;"/><text fill="#000000" font-family="sans-serif" font-size="14" lengthAdjust="spacingAndGlyphs" textLength="84" x="388.3159" y="400.6537">Unbind from</text><text fill="#000000" font-family="sans-serif" font-size="14" lengthAdjust="spacingAndGlyphs" textLength="94" x="383.3159" y="416.9505">a data stream</text><ellipse cx="430.5444" cy="223.9327" fill="#FEFECE" filter="url(#f1mn3kzfftjvtn)" rx="64.5444" ry="36.4327" style="stroke: #A80036; stroke-width: 1.5;"/><text fill="#000000" font-family="sans-serif" font-size="14" lengthAdjust="spacingAndGlyphs" textLength="77" x="392.0444" y="210.6463">Get a list of</text><text fill="#000000" font-family="sans-serif" font-size="14" lengthAdjust="spacingAndGlyphs" textLength="73" x="394.0444" y="226.9432">accessible</text><text fill="#000000" font-family="sans-serif" font-size="14" lengthAdjust="spacingAndGlyphs" textLength="90" x="385.5444" y="243.2401">data streams</text><ellipse cx="800.7758" cy="301.0552" fill="#FEFECE" filter="url(#f1mn3kzfftjvtn)" rx="68.2758" ry="16.0552" style="stroke: #A80036; stroke-width: 1.5;"/><text fill="#000000" font-family="sans-serif" font-size="14" lengthAdjust="spacingAndGlyphs" textLength="102" x="749.7758" y="305.7036">Search catalog</text><!--entity owner--><ellipse cx="615" cy="548.5" fill="#FEFECE" filter="url(#f1mn3kzfftjvtn)" rx="12" ry="12" style="stroke: #A80036; stroke-width: 2.0;"/><line style="stroke: #A80036; stroke-width: 2.0;" x1="603" x2="627" y1="562.5" y2="562.5"/><text fill="#000000" font-family="sans-serif" font-size="14" lengthAdjust="spacingAndGlyphs" textLength="43" x="567" y="577.4951">owner</text><text fill="#000000" font-family="sans-serif" font-size="14" lengthAdjust="spacingAndGlyphs" textLength="96" x="567" y="593.792">(a legal entity)</text><!--entity admin--><ellipse cx="273" cy="744.5" fill="#FEFECE" filter="url(#f1mn3kzfftjvtn)" rx="8" ry="8" style="stroke: #A80036; stroke-width: 2.0;"/><path d="M273,752.5 L273,779.5 M260,760.5 L286,760.5 M273,779.5 L260,794.5 M273,779.5 L286,794.5 " fill="none" filter="url(#f1mn3kzfftjvtn)" style="stroke: #A80036; stroke-width: 2.0;"/><text fill="#000000" font-family="sans-serif" font-size="14" lengthAdjust="spacingAndGlyphs" textLength="42" x="252" y="814.4951">admin</text><!--entity entity--><ellipse cx="1004" cy="208" fill="#FEFECE" filter="url(#f1mn3kzfftjvtn)" rx="12" ry="12" style="stroke: #A80036; stroke-width: 2.0;"/><line style="stroke: #A80036; stroke-width: 2.0;" x1="992" x2="1016" y1="222" y2="222"/><text fill="#000000" font-family="sans-serif" font-size="14" lengthAdjust="spacingAndGlyphs" textLength="38" x="985" y="236.9951">entity</text><!--entity a--><ellipse cx="1004" cy="557" fill="#FEFECE" filter="url(#f1mn3kzfftjvtn)" rx="12" ry="12" style="stroke: #A80036; stroke-width: 2.0;"/><line style="stroke: #A80036; stroke-width: 2.0;" x1="992" x2="1016" y1="571" y2="571"/><text fill="#000000" font-family="sans-serif" font-size="14" lengthAdjust="spacingAndGlyphs" textLength="130" x="939" y="585.9951">autonomous entity</text><!--link Unblock owner to admin--><path d="M162.34,827.958 C178.661,822.648 196.858,816.143 213,809 C226.308,803.111 240.567,795.184 251.732,788.576 " fill="none" id="Unblock owner-admin" style="stroke: #A80036; stroke-width: 1.0;"/><polygon fill="#A80036" points="157.34,829.568,167.1326,830.6194,162.0997,828.0367,164.6824,823.0038,157.34,829.568" style="stroke: #A80036; stroke-width: 1.0;"/><!--link Block owner to admin--><path d="M180.928,776 C206.478,776 233.803,776 251.782,776 " fill="none" id="Block owner-admin" style="stroke: #A80036; stroke-width: 1.0;"/><polygon fill="#A80036" points="175.845,776,184.845,780,180.845,776,184.845,772,175.845,776" style="stroke: #A80036; stroke-width: 1.0;"/><!--link Deregister owner to admin--><path d="M162.676,724.014 C178.872,729.817 196.906,736.742 213,744 C226.278,749.988 240.656,757.758 251.894,764.142 " fill="none" id="Deregister owner-admin" style="stroke: #A80036; stroke-width: 1.0;"/><polygon fill="#A80036" points="157.713,722.25,164.8522,729.0347,162.4239,723.9255,167.533,721.4972,157.713,722.25" style="stroke: #A80036; stroke-width: 1.0;"/><!--link Register owner to admin--><path d="M172.059,651.216 C186.508,656.242 201.231,663.257 213,673 C232.446,689.098 246.791,713.374 256.464,734.316 " fill="none" id="Register owner-admin" style="stroke: #A80036; stroke-width: 1.0;"/><polygon fill="#A80036" points="167.175,649.587,174.4458,656.2304,171.9178,651.1699,176.9784,648.6419,167.175,649.587" style="stroke: #A80036; stroke-width: 1.0;"/><!--link Reset owner\ncredentials to admin--><path d="M169.785,901.9911 C184.939,895.5239 200.593,886.9854 213,876 C230.96,860.099 244.971,837.373 254.824,817.603 " fill="none" id="Reset owner\ncredentials-admin" style="stroke: #A80036; stroke-width: 1.0;"/><polygon fill="#A80036" points="165.102,903.9321,174.9477,904.1816,169.721,902.0178,171.8848,896.7911,165.102,903.9321" style="stroke: #A80036; stroke-width: 1.0;"/><!--link admin to Unblock entity--><path d="M294.011,780.247 C314.551,784.606 347.41,791.579 375.624,797.566 " fill="none" id="admin-Unblock entity" style="stroke: #A80036; stroke-width: 1.0;"/><polygon fill="#A80036" points="380.834,798.672,372.861,792.89,375.943,797.6335,371.1995,800.7155,380.834,798.672" style="stroke: #A80036; stroke-width: 1.0;"/><!--link admin to Block entity--><path d="M294.011,771.882 C315.49,767.462 350.437,760.27 379.459,754.298 " fill="none" id="admin-Block entity" style="stroke: #A80036; stroke-width: 1.0;"/><polygon fill="#A80036" points="384.432,753.274,374.8101,751.1717,379.5348,754.2826,376.4239,759.0072,384.432,753.274" style="stroke: #A80036; stroke-width: 1.0;"/><!--link Reset entity\ncredentials to owner--><path d="M491.439,542.838 C515.986,547.277 543.973,552.338 567,556.501 " fill="none" id="Reset entity\ncredentials-owner" style="stroke: #A80036; stroke-width: 1.0;"/><polygon fill="#A80036" points="486.256,541.901,494.4002,547.4392,491.1761,542.791,495.8243,539.5669,486.256,541.901" style="stroke: #A80036; stroke-width: 1.0;"/><!--link Register entity to owner--><path d="M483.665,596.423 C509.868,590.106 541.373,582.51 566.844,576.369 " fill="none" id="Register entity-owner" style="stroke: #A80036; stroke-width: 1.0;"/><polygon fill="#A80036" points="478.498,597.669,488.1847,599.4487,483.3588,596.4974,486.3101,591.6715,478.498,597.669" style="stroke: #A80036; stroke-width: 1.0;"/><!--link Deregister entity to owner--><path d="M484.712,662.485 C499.278,657.399 514.704,650.928 528,643 C548.602,630.715 568.633,612.997 584.173,597.551 " fill="none" id="Deregister entity-owner" style="stroke: #A80036; stroke-width: 1.0;"/><polygon fill="#A80036" points="479.81,664.157,489.6194,665.0375,484.5423,662.5429,487.0369,657.4658,479.81,664.157" style="stroke: #A80036; stroke-width: 1.0;"/><!--link Unblock entity to owner--><path d="M489.001,798.155 C503.076,793.273 517.185,786.211 528,776 C579.488,727.391 601.019,643.6 609.314,597.591 " fill="none" id="Unblock entity-owner" style="stroke: #A80036; stroke-width: 1.0;"/><polygon fill="#A80036" points="484.234,799.728,494.0342,800.7059,488.9821,798.161,491.527,793.1089,484.234,799.728" style="stroke: #A80036; stroke-width: 1.0;"/><!--link Block entity to owner--><path d="M484.213,733.956 C499.495,729.174 515.431,722.181 528,712 C565.22,681.851 589.773,630.993 602.785,597.709 " fill="none" id="Block entity-owner" style="stroke: #A80036; stroke-width: 1.0;"/><polygon fill="#A80036" points="479.061,735.495,488.8294,736.7514,483.8518,734.0638,486.5394,729.0862,479.061,735.495" style="stroke: #A80036; stroke-width: 1.0;"/><!--link owner to Approve a follow\nrequest--><path d="M622.558,597.533 C632.687,640.055 655.975,714.455 702,760 C712.371,770.263 725.645,778.187 739.053,784.24 " fill="none" id="owner-Approve a follow\nrequest" style="stroke: #A80036; stroke-width: 1.0;"/><polygon fill="#A80036" points="743.993,786.387,737.3322,779.1321,739.4071,784.3947,734.1445,786.4695,743.993,786.387" style="stroke: #A80036; stroke-width: 1.0;"/><!--link owner to Send a follow\nrequest--><path d="M634.873,597.564 C650.326,621.863 674.134,654.451 702,676 C715.27,686.262 731.426,694.522 746.762,700.911 " fill="none" id="owner-Send a follow\nrequest" style="stroke: #A80036; stroke-width: 1.0;"/><polygon fill="#A80036" points="751.491,702.834,744.6593,695.7398,746.8589,700.9515,741.6472,703.1511,751.491,702.834" style="stroke: #A80036; stroke-width: 1.0;"/><!--link owner to Unfollow--><path d="M630.682,532.312 C645.041,503.84 669.483,463.4 702,439 C717.833,427.119 738.278,419.531 756.394,414.744 " fill="none" id="owner-Unfollow" style="stroke: #A80036; stroke-width: 1.0;"/><polygon fill="#A80036" points="761.436,413.467,751.7296,411.7982,756.5889,414.6941,753.693,419.5535,761.436,413.467" style="stroke: #A80036; stroke-width: 1.0;"/><!--link Bind to\na data stream to owner--><path d="M487.441,335.945 C502.037,342.207 516.796,350.686 528,362 C575.535,410.002 598.403,488.309 608.023,532.316 " fill="none" id="Bind to\na data stream-owner" style="stroke: #A80036; stroke-width: 1.0;"/><polygon fill="#A80036" points="482.503,333.906,489.2947,341.0385,487.1244,335.8146,492.3484,333.6443,482.503,333.906" style="stroke: #A80036; stroke-width: 1.0;"/><!--link Unbind from\n a data stream to owner--><path d="M462.192,431.908 C493.791,459.611 543.051,502.798 576.835,532.417 " fill="none" id="Unbind from\n a data stream-owner" style="stroke: #A80036; stroke-width: 1.0;"/><polygon fill="#A80036" points="458.429,428.609,462.5605,437.5494,462.1891,431.9048,467.8337,431.5333,458.429,428.609" style="stroke: #A80036; stroke-width: 1.0;"/><!--link Get a list of\naccessible\ndata streams to owner--><path d="M488.934,246.746 C503.361,254.776 517.66,265.105 528,278 C589.501,354.696 607.067,474.578 612.049,532.075 " fill="none" id="Get a list of\naccessible\ndata streams-owner" style="stroke: #A80036; stroke-width: 1.0;"/><polygon fill="#A80036" points="484.458,244.327,490.4759,252.1235,488.8573,246.7031,494.2777,245.0846,484.458,244.327" style="stroke: #A80036; stroke-width: 1.0;"/><!--link owner to Get list of\nfollow requests--><path d="M663.189,542.176 C675.764,536.183 689.366,529.782 702,524 C717.77,516.783 735.069,509.112 750.685,502.278 " fill="none" id="owner-Get list of\nfollow requests" style="stroke: #A80036; stroke-width: 1.0;"/><polygon fill="#A80036" points="755.474,500.185,745.6253,500.1224,750.8921,502.1866,748.8279,507.4534,755.474,500.185" style="stroke: #A80036; stroke-width: 1.0;"/><!--link owner to Reject a\nfollow request--><path d="M663.385,565 C683.579,565 707.558,565 729.747,565 " fill="none" id="owner-Reject a\nfollow request" style="stroke: #A80036; stroke-width: 1.0;"/><polygon fill="#A80036" points="734.748,565,725.748,561,729.748,565,725.748,569,734.748,565" style="stroke: #A80036; stroke-width: 1.0;"/><!--link owner to Get follow status--><path d="M663.296,589.362 C675.749,595.427 689.266,601.704 702,607 C717.973,613.643 735.758,620.088 751.746,625.548 " fill="none" id="owner-Get follow status" style="stroke: #A80036; stroke-width: 1.0;"/><polygon fill="#A80036" points="756.646,627.21,749.4095,620.5292,751.9114,625.6027,746.8379,628.1046,756.646,627.21" style="stroke: #A80036; stroke-width: 1.0;"/><!--link owner to Search catalog--><path d="M625.45,532.279 C638.134,492.357 663.608,424.231 702,376 C720.685,352.526 748.253,332.291 769.394,318.776 " fill="none" id="owner-Search catalog" style="stroke: #A80036; stroke-width: 1.0;"/><polygon fill="#A80036" points="773.803,315.995,764.0566,317.4117,769.5736,318.6618,768.3234,324.1788,773.803,315.995" style="stroke: #A80036; stroke-width: 1.0;"/><!--link Publish to entity--><path d="M473.705,140.816 C557.305,146.824 749.651,162.79 909,192 C935.673,196.889 965.975,205.121 984.792,210.558 " fill="none" id="Publish-entity" style="stroke: #A80036; stroke-width: 1.0;"/><polygon fill="#A80036" points="468.599,140.451,477.2903,145.0837,473.5862,140.8081,477.8617,137.1041,468.599,140.451" style="stroke: #A80036; stroke-width: 1.0;"/><!--link Subscribe to entity--><path d="M487.435,76.029 C577.215,80.845 757.817,97.007 900,151 C932.221,163.236 965.168,186.242 984.854,201.342 " fill="none" id="Subscribe-entity" style="stroke: #A80036; stroke-width: 1.0;"/><polygon fill="#A80036" points="482.442,75.768,491.2205,80.2331,487.4352,76.0294,491.6388,72.2441,482.442,75.768" style="stroke: #A80036; stroke-width: 1.0;"/><!--link Get a list of\naccessible\ndata streams to entity--><path d="M500.493,223.034 C631.791,221.196 911.096,217.286 984.837,216.254 " fill="none" id="Get a list of\naccessible\ndata streams-entity" style="stroke: #A80036; stroke-width: 1.0;"/><polygon fill="#A80036" points="495.119,223.109,504.1741,226.9826,500.1185,223.039,504.0621,218.9834,495.119,223.109" style="stroke: #A80036; stroke-width: 1.0;"/><!--link Search catalog to entity--><path d="M839.816,285.008 C883.092,266.708 952.181,237.491 984.808,223.693 " fill="none" id="Search catalog-entity" style="stroke: #A80036; stroke-width: 1.0;"/><polygon fill="#A80036" points="835.191,286.964,845.0382,287.1426,839.7961,285.0165,841.9222,279.7744,835.191,286.964" style="stroke: #A80036; stroke-width: 1.0;"/><!--link entity to a--><path d="M1004,260.264 C1004,334.729 1004,482.614 1004,540.736 " fill="none" id="entity-a" style="stroke: #A80036; stroke-width: 1.0;"/><polygon fill="none" points="997,260.103,1004,240.103,1011,260.103,997,260.103" style="stroke: #A80036; stroke-width: 1.0;"/><text fill="#000000" font-family="sans-serif" font-size="13" lengthAdjust="spacingAndGlyphs" textLength="30" x="977.5" y="395.0669">is an</text><!--link Send a follow\nrequest to a--><path d="M854.225,700.352 C869.676,693.909 886.15,685.759 900,676 C934.599,651.62 966.418,614.003 985.269,589.441 " fill="none" id="Send a follow\nrequest-a" style="stroke: #A80036; stroke-width: 1.0;"/><polygon fill="#A80036" points="849.466,702.297,859.3104,702.5942,854.0943,700.4051,856.2834,695.189,849.466,702.297" style="stroke: #A80036; stroke-width: 1.0;"/><!--link Approve a follow\nrequest to a--><path d="M861.853,783.966 C875.474,777.896 889.118,770.033 900,760 C952.636,711.467 983.333,629.789 996.057,589.285 " fill="none" id="Approve a follow\nrequest-a" style="stroke: #A80036; stroke-width: 1.0;"/><polygon fill="#A80036" points="857.239,785.956,867.0873,786.0651,861.8303,783.9761,863.9194,778.7191,857.239,785.956" style="stroke: #A80036; stroke-width: 1.0;"/><!--link Reject a\nfollow request to a--><path d="M872.408,565 C893.988,565 917.608,565 938.755,565 " fill="none" id="Reject a\nfollow request-a" style="stroke: #A80036; stroke-width: 1.0;"/><polygon fill="#A80036" points="867.259,565,876.259,569,872.259,565,876.259,561,867.259,565" style="stroke: #A80036; stroke-width: 1.0;"/><!--link Get follow status to a--><path d="M848.652,625.382 C864.964,619.771 883.355,613.276 900,607 C914.817,601.413 930.71,595.096 945.469,589.09 " fill="none" id="Get follow status-a" style="stroke: #A80036; stroke-width: 1.0;"/><polygon fill="#A80036" points="843.661,627.093,853.4721,627.9548,848.3902,625.4699,850.8751,620.3881,843.661,627.093" style="stroke: #A80036; stroke-width: 1.0;"/><!--link Unfollow to a--><path d="M844.678,415.295 C862.817,420.196 883.533,427.721 900,439 C939.51,466.063 971.854,512.526 989.201,540.834 " fill="none" id="Unfollow-a" style="stroke: #A80036; stroke-width: 1.0;"/><polygon fill="#A80036" points="839.635,413.982,847.3365,420.1209,844.4736,415.242,849.3526,412.3791,839.635,413.982" style="stroke: #A80036; stroke-width: 1.0;"/><!--link Get list of\nfollow requests to a--><path d="M851.953,501.876 C880.3,513.722 915.901,528.6 945.419,540.936 " fill="none" id="Get list of\nfollow requests-a" style="stroke: #A80036; stroke-width: 1.0;"/><polygon fill="#A80036" points="847.108,499.851,853.8705,507.0112,851.7216,501.7784,856.9544,499.6295,847.108,499.851" style="stroke: #A80036; stroke-width: 1.0;"/><!--
@startuml
left to right direction


entity owner as "owner\n(a legal entity)"


rectangle "Manage xowners" {

	(Register owner)
	(Deregister owner)
	(Block owner)
	(Unblock owner)
	(Reset owner\ncredentials)

}

rectangle "Manage entities" {
	(Register entity)
	(Deregister entity)
	(Block entity)
	(Unblock entity)
	(Reset entity\ncredentials)

}

rectangle "Access control" {

	(Send a follow\nrequest)
	(Approve a follow\nrequest)
	(Unfollow)
	(Get list of\nfollow requests)
	(Reject a\nfollow request)
	(Get follow status)
}

rectangle "Data access" {

	(Publish)
	(Subscribe)

	(Bind to\na data stream)
	(Unbind from\n a data stream)
	(Get a list of\naccessible\ndata streams)
}

rectangle "Search" {
	(Search catalog)
}


(Unblock owner) <- - admin
(Block owner) <- - admin
(Deregister owner) <- - admin
(Register owner) <- - admin
(Reset owner\ncredentials) <- - admin


admin - -> (Unblock entity)
admin - -> (Block entity)

(Reset entity\ncredentials) <- - owner
(Register entity) <- - owner
(Deregister entity) <- - owner
(Unblock entity) <- - owner
(Block entity) <- - owner


owner - -> (Approve a follow\nrequest)
owner - -> (Send a follow\nrequest)
owner - -> (Unfollow)


(Bind to\na data stream) <- - owner
(Unbind from\n a data stream) <- - owner
(Get a list of\naccessible\ndata streams) <- - owner

owner - -> (Get list of\nfollow requests)
owner - -> (Reject a\nfollow request)
owner - -> (Get follow status)

owner - -> (Search catalog)

entity entity

(Publish) <- - entity
(Subscribe) <- - entity
(Get a list of\naccessible\ndata streams) <- - entity
(Search catalog) <- - entity

entity "autonomous entity" as a
entity <|- a : is an

(Send a follow\nrequest) <- - a
(Approve a follow\nrequest) <- - a
(Reject a\nfollow request) <- - a
(Get follow status) <- - a
(Unfollow) <- - a
(Get list of\nfollow requests) <- - a
@enduml

PlantUML version 1.2018.14beta12(Unknown compile time)
(GPL source distribution)
Java Runtime: Java(TM) SE Runtime Environment
JVM: Java HotSpot(TM) 64-Bit Server VM
Java Version: 1.7.0_25-b15
Operating System: Linux
Default Encoding: UTF-8
Language: en
Country: US
--></g></svg>