<svg height="512pt" viewBox="0 0 512 512" width="512pt" xmlns="http://www.w3.org/2000/svg"><path d="m512 256c0 141.386719-114.613281 256-256 256s-256-114.613281-256-256 114.613281-256 256-256 256 114.613281 256 256zm0 0" fill="#414952"/><path d="m340.472656 497.714844c99.875-34.902344 171.527344-129.933594 171.527344-241.714844 0-2.453125-.042969-4.894531-.109375-7.328125l-145.796875-145.796875-229.464844 160.765625 12.980469 12.976563-1.109375-.117188 71.792969 71.789062-29.535157-.289062zm0 0" fill="#333940"/><path d="m294.5 373.644531v-25.644531h-77v25.644531c0 11.621094-7.269531 22.003907-18.1875 25.980469l-118.398438 43.117188c45.785157 42.945312 107.359376 69.257812 175.085938 69.257812s129.300781-26.3125 175.085938-69.257812l-118.398438-43.117188c-10.917969-3.976562-18.1875-14.359375-18.1875-25.980469zm0 0" fill="#f03049"/><path d="m431.085938 442.742188-118.398438-43.117188c-10.917969-3.976562-18.1875-14.359375-18.1875-25.980469v-25.644531h-38.855469v163.996094c.117188 0 .238281.003906.355469.003906 67.726562 0 129.300781-26.3125 175.085938-69.257812zm0 0" fill="#d1093a"/><path d="m191.640625 238.902344c0 18.265625-14.804687 33.074218-33.070313 33.074218-18.265624 0-33.070312-14.808593-33.070312-33.074218 0-18.261719 14.804688-33.070313 33.070312-33.070313 18.265626 0 33.070313 14.808594 33.070313 33.070313zm0 0" fill="#ffbeaa"/><path d="m300.03125 362.714844-22.082031 11.34375c-13.777344 7.078125-30.121094 7.078125-43.898438 0l-22.082031-11.34375c-32.726562-16.8125-53.300781-50.511719-53.300781-87.304688v-86.074218c0-53.757813 43.574219-97.335938 97.332031-97.335938s97.332031 43.578125 97.332031 97.332031v86.078125c0 36.792969-20.574219 70.492188-53.300781 87.304688zm0 0" fill="#ffcdbe"/><path d="m300.03125 362.714844-22.082031 11.34375c-13.777344 7.078125-30.121094 7.078125-43.898438 0l-22.082031-11.34375c-32.726562-16.8125-53.300781-50.511719-53.300781-87.304688v-86.074218c0-53.757813 43.574219-97.335938 97.332031-97.335938s97.332031 43.578125 97.332031 97.332031v86.078125c0 36.792969-20.574219 70.492188-53.300781 87.304688zm0 0" fill="#ffcdbe"/><path d="m256 92c-.117188 0-.238281.003906-.355469.003906v287.351563c7.648438.058593 15.304688-1.703125 22.304688-5.296875l22.082031-11.34375c32.726562-16.8125 53.300781-50.511719 53.300781-87.304688v-86.078125c0-53.753906-43.574219-97.332031-97.332031-97.332031zm0 0" fill="#ffbeaa"/><path d="m238.5 223.332031h-51.332031c-31.574219 0-57.167969-25.59375-57.167969-57.167969 0-47.21875 38.28125-85.5 85.5-85.5h70.167969c5.523437 0 10 4.480469 10 10v75.5c0 31.574219-25.597657 57.167969-57.167969 57.167969zm0 0" fill="#ffd400"/><path d="m314.257812 80.667969h-10.09375c-4.082031 0-7.644531 2.199219-9.589843 5.46875-1.652344-3.242188-5.019531-5.46875-8.910157-5.46875h-30.09375v140.070312c18.125-5.664062 32.375-20.109375 37.761719-38.355469 2.710938 23.058594 22.308594 40.953126 46.09375 40.953126 1.375 0 2.730469-.074219 4.074219-.191407v53.355469h20v-59.886719c13.398438-8.144531 22.351562-22.878906 22.351562-39.707031v-24.648438c0-39.539062-32.050781-71.589843-71.59375-71.589843zm0 0" fill="#fdba12"/><path d="m380.847656 289.476562h-20.597656v-108.054687h20.597656c16.902344 0 30.605469 13.703125 30.605469 30.605469v46.839844c0 16.90625-13.703125 30.609374-30.605469 30.609374zm0 0" fill="#e1e5ea"/><path d="m381.117188 360.167969h-119.117188v-27h92.117188v-152.457031c0-51.394532-41.8125-93.210938-93.210938-93.210938h-9.8125c-51.398438 0-93.210938 41.816406-93.210938 93.210938h-27c0-66.285157 53.925782-120.210938 120.210938-120.210938h9.8125c66.285156 0 120.210938 53.925781 120.210938 120.210938zm0 0" fill="#fff"/><path d="m260.90625 60.5h-5.335938v27h5.335938c51.398438 0 93.210938 41.816406 93.210938 93.210938v152.457031h-92.117188v27h119.117188v-179.457031c0-66.285157-53.925782-120.210938-120.210938-120.210938zm0 0" fill="#e1e5ea"/><path d="m279.332031 372.667969h-20.667969c-14.171874 0-25.664062-11.492188-25.664062-25.667969s11.492188-25.667969 25.667969-25.667969h20.667969c14.171874 0 25.664062 11.492188 25.664062 25.667969s-11.492188 25.667969-25.667969 25.667969zm0 0" fill="#5a54e0"/><path d="m279.332031 321.332031h-20.667969c-1.019531 0-2.027343.066407-3.019531.183594v50.96875c.992188.117187 2 .179687 3.019531.179687h20.667969c14.175781.003907 25.667969-11.488281 25.667969-25.664062s-11.492188-25.667969-25.667969-25.667969zm0 0" fill="#6205db"/><path d="m148.5 189.5h20v87h-20zm0 0" fill="#ffd400"/><path d="m157.882812 223.332031v60.667969h80.785157l10-35h14.664062l10 35h80.785157v-60.667969zm0 0" fill="#707789"/><path d="m255.644531 223.332031v25.667969h7.6875l10 35h80.785157v-60.667969zm0 0" fill="#636978"/></svg>