<svg height="512pt" viewBox="0 0 512 512" width="512pt" xmlns="http://www.w3.org/2000/svg"><path d="m512 256c0 141.386719-114.613281 256-256 256s-256-114.613281-256-256 114.613281-256 256-256 256 114.613281 256 256zm0 0" fill="#93d632"/><path d="m512 256c0-1.960938-.03125-3.914062-.074219-5.863281l-211.636719-211.636719-201.871093 132.5 133.804687 133.808594-57.578125 130.191406 78.359375 76.960938c1 .011718 1.992188.039062 2.996094.039062 141.386719 0 256-114.613281 256-256zm0 0" fill="#59c612"/><path d="m241 511.550781c4.964844.289063 9.964844.449219 15 .449219s10.035156-.160156 15-.449219v-91.550781h-30zm0 0" fill="#2864f0"/><path d="m255.808594 420v92h.191406c5.035156 0 10.035156-.160156 15-.449219v-91.550781zm0 0" fill="#0053bf"/><path d="m325 420h-138l-50-256h238zm0 0" fill="#ffe000"/><path d="m337.355469 435h-162.710938l-55.859375-286h274.425782zm-138-30h113.289062l44.140625-226h-201.570312zm0 0" fill="#0053bf"/><path d="m375 164h-119.191406v256h69.191406zm0 0" fill="#ffc200"/><path d="m337.355469 435h-162.710938l-55.859375-286h274.425782zm-138-30h113.289062l44.140625-226h-201.570312zm0 0" fill="#0053bf"/><path d="m393.214844 149h-137.40625v30h100.976562l-44.140625 226h-56.835937v30h81.546875zm0 0" fill="#1b3b6b"/><path d="m211.710938 38.5h88.578124v47.167969h-88.578124zm0 0" fill="#0053bf"/><path d="m255.808594 38.5h44.480468v47.167969h-44.480468zm0 0" fill="#1b3b6b"/><path d="m413.582031 171h-315.164062l82.164062-96.5h150.835938zm0 0" fill="#2864f0"/><path d="m331.417969 74.5h-75.609375v96.5h157.773437zm0 0" fill="#0053bf"/></svg>