<?xml version="1.0" standalone="no"?>
<!DOCTYPE svg PUBLIC "-//W3C//DTD SVG 20010904//EN"
 "http://www.w3.org/TR/2001/REC-SVG-20010904/DTD/svg10.dtd">
<svg version="1.0" xmlns="http://www.w3.org/2000/svg"
 width="2560.000000pt" height="2560.000000pt" viewBox="0 0 2560.000000 2560.000000"
 preserveAspectRatio="xMidYMid meet">
<metadata>
Created by potrace 1.15, written by Peter Selinger 2001-2017
</metadata>
<g transform="translate(0.000000,2560.000000) scale(0.100000,-0.100000)"
fill="#000000" stroke="none">
<path d="M3830 12270 l0 -10880 8975 0 8975 0 0 10880 0 10880 -8975 0 -8975
0 0 -10880z m17440 5 l0 -10385 -8470 0 -8470 0 0 10385 0 10385 8470 0 8470
0 0 -10385z"/>
<path d="M11103 18070 c-89 -18 -168 -81 -214 -170 -20 -38 -24 -64 -27 -165
-3 -105 -1 -127 18 -179 47 -123 149 -196 275 -196 106 0 139 13 210 83 78 77
95 125 95 272 0 148 -17 195 -95 272 -63 62 -90 75 -180 86 -22 3 -59 1 -82
-3z"/>
<path d="M12515 16954 c-67 -34 -117 -84 -149 -150 l-26 -53 3 -773 c4 -803 4
-808 48 -951 104 -331 400 -632 731 -741 221 -73 499 -75 718 -5 289 92 574
346 709 630 17 37 31 72 31 78 0 6 4 19 9 29 5 9 13 33 19 52 36 121 37 143
37 920 l0 765 -27 50 c-57 108 -161 175 -271 175 -74 0 -101 -9 -169 -57 -51
-37 -97 -104 -116 -169 -9 -30 -12 -227 -12 -745 0 -664 -1 -708 -19 -771 -31
-107 -76 -182 -155 -255 -120 -110 -234 -156 -391 -156 -250 1 -447 145 -528
387 -20 59 -21 88 -26 806 l-6 745 -24 47 c-74 145 -252 211 -386 142z"/>
<path d="M11035 16946 c-27 -13 -71 -46 -97 -73 -83 -90 -78 -9 -78 -1274 0
-1105 0 -1119 21 -1173 55 -149 217 -227 375 -181 47 14 70 28 115 73 96 96
89 0 89 1282 0 1264 5 1183 -78 1273 -65 70 -127 97 -222 97 -58 0 -86 -6
-125 -24z"/>
<path d="M12014 11340 c-60 -24 -134 -91 -166 -152 l-23 -43 -5 -552 -5 -553
-63 40 c-283 179 -680 228 -1040 129 -206 -57 -375 -162 -558 -346 -267 -269
-397 -589 -397 -978 0 -309 84 -580 253 -811 63 -86 223 -247 310 -312 149
-112 342 -194 537 -229 119 -21 342 -21 458 1 157 29 320 91 450 170 66 39 75
42 75 23 0 -21 41 -90 73 -125 78 -81 227 -111 327 -65 61 28 126 86 153 137
l22 41 3 1705 c3 1913 9 1750 -72 1838 -85 92 -221 126 -332 82z m-751 -1706
c143 -36 293 -137 389 -264 218 -286 221 -677 7 -955 -83 -108 -157 -169 -287
-234 -85 -42 -154 -56 -282 -56 -161 0 -244 25 -385 114 -105 66 -207 184
-265 305 -50 104 -69 178 -76 296 -20 313 155 616 433 749 142 69 307 84 466
45z"/>
<path d="M13675 10221 c-52 -13 -113 -50 -151 -91 -47 -50 -61 -78 -75 -148
-19 -93 1 -142 128 -314 60 -81 178 -242 263 -358 85 -117 190 -259 233 -317
42 -58 77 -110 77 -115 0 -9 -112 -166 -485 -678 -224 -306 -240 -339 -216
-444 17 -75 35 -110 84 -157 86 -82 206 -111 299 -71 95 41 86 31 638 786 l43
60 29 -35 c24 -27 236 -317 323 -439 195 -274 234 -316 329 -363 98 -48 217
-27 309 53 63 56 89 117 91 211 1 85 -16 128 -92 229 -154 207 -601 837 -602
848 0 6 34 58 75 115 41 56 144 197 227 312 84 116 196 269 249 341 132 178
144 202 143 289 -1 118 -61 211 -169 265 -67 32 -169 34 -236 3 -88 -40 -109
-64 -568 -683 -89 -119 -100 -132 -113 -124 -6 4 -130 168 -462 614 -111 148
-144 176 -245 209 -38 12 -81 13 -126 2z"/>
</g>
</svg>
