<?xml version="1.0" standalone="no"?>
<!DOCTYPE svg PUBLIC "-//W3C//DTD SVG 20010904//EN"
 "http://www.w3.org/TR/2001/REC-SVG-20010904/DTD/svg10.dtd">
<svg version="1.0" xmlns="http://www.w3.org/2000/svg"
 width="2560.000000pt" height="2560.000000pt" viewBox="0 0 2560.000000 2560.000000"
 preserveAspectRatio="xMidYMid meet">
<metadata>
Created by potrace 1.15, written by Peter Selinger 2001-2017
</metadata>
<g transform="translate(0.000000,2560.000000) scale(0.100000,-0.100000)"
fill="#000000" stroke="none">
<path d="M965 19453 c-192 -22 -300 -76 -446 -222 -69 -69 -93 -103 -126 -171
-64 -131 -76 -216 -71 -489 4 -204 7 -234 29 -306 34 -111 88 -203 167 -283
153 -156 292 -215 507 -216 142 -1 199 11 315 67 69 33 101 57 171 126 98 99
151 186 188 306 21 71 24 103 29 301 6 305 -18 432 -104 563 -123 186 -299
298 -508 322 -81 9 -95 9 -151 2z"/>
<path d="M17045 19454 c-16 -2 -57 -9 -90 -15 -223 -40 -440 -238 -527 -479
l-23 -65 -5 -1288 -5 -1289 -80 53 c-390 257 -850 420 -1325 470 -148 15 -522
15 -670 0 -799 -84 -1454 -435 -2025 -1086 -189 -215 -336 -437 -465 -700
-175 -359 -263 -661 -312 -1080 -17 -145 -17 -596 0 -750 49 -443 170 -834
375 -1210 258 -471 706 -942 1168 -1228 368 -227 782 -366 1244 -419 147 -16
562 -16 695 0 498 63 930 219 1344 486 l83 54 13 -50 c26 -105 78 -187 185
-295 87 -89 112 -108 187 -143 118 -55 216 -74 343 -67 195 12 314 68 460 213
101 101 158 203 190 336 13 55 15 544 15 4003 0 4393 7 3994 -72 4155 -67 137
-227 285 -373 347 -82 34 -249 58 -330 47z m-2134 -4039 c285 -43 552 -160
783 -344 35 -28 113 -103 175 -166 289 -301 458 -649 512 -1055 16 -123 16
-388 -1 -510 -36 -276 -133 -532 -284 -759 -192 -286 -418 -492 -695 -630
-245 -124 -450 -171 -741 -171 -291 0 -497 48 -741 170 -348 175 -665 510
-833 880 -111 244 -159 476 -159 765 0 319 55 564 188 832 93 189 193 330 350
492 110 113 186 177 300 252 186 121 415 209 633 243 122 19 389 19 513 1z"/>
<path d="M4429 16850 c-269 -33 -509 -249 -580 -523 -18 -69 -19 -144 -19
-1762 0 -1813 -1 -1775 51 -2045 99 -521 338 -961 744 -1365 365 -366 728
-581 1195 -710 456 -126 992 -124 1470 6 316 85 698 286 960 504 533 444 863
972 979 1565 52 265 51 234 51 2047 0 1602 -1 1692 -19 1758 -32 124 -84 208
-198 321 -160 158 -355 229 -568 205 -156 -18 -267 -73 -385 -191 -89 -88
-138 -165 -177 -275 l-28 -80 -5 -1690 c-5 -1571 -7 -1696 -24 -1775 -105
-500 -441 -881 -914 -1036 -155 -51 -284 -67 -477 -61 -222 8 -371 44 -549
133 -320 161 -578 470 -670 804 -52 190 -50 102 -55 1930 -6 1694 -6 1695 -27
1757 -38 110 -92 193 -188 289 -75 74 -106 98 -176 131 -121 58 -255 80 -391
63z"/>
<path d="M865 16829 c-72 -16 -159 -51 -215 -86 -114 -72 -228 -205 -275 -322
-58 -142 -55 11 -55 -2830 0 -2818 -2 -2665 52 -2801 80 -199 268 -362 488
-421 62 -17 272 -17 340 0 193 47 371 193 460 376 75 154 70 -47 70 2854 -1
2795 1 2679 -51 2810 -35 87 -86 159 -169 242 -87 86 -198 147 -313 173 -75
17 -265 20 -332 5z"/>
<path d="M20760 16747 c-137 -44 -195 -78 -306 -180 -122 -113 -193 -288 -194
-476 0 -111 19 -191 66 -281 19 -36 392 -553 829 -1149 519 -707 792 -1087
787 -1095 -55 -70 -1581 -2169 -1602 -2204 -51 -83 -73 -166 -78 -288 -10
-266 85 -457 301 -601 207 -139 460 -161 657 -57 68 35 184 127 246 195 17 19
316 426 664 904 348 479 638 876 645 883 9 10 151 -178 663 -880 488 -670 666
-906 710 -945 82 -71 177 -137 251 -172 266 -125 669 2 837 265 42 66 81 180
95 281 22 155 -13 319 -95 443 -32 48 -1254 1746 -1542 2141 l-34 46 795 1094
c438 602 808 1121 824 1154 108 222 60 528 -111 711 -108 115 -213 179 -353
215 -162 43 -398 2 -548 -94 -119 -76 -171 -141 -832 -1029 l-650 -873 -660
885 c-579 775 -671 893 -740 953 -131 113 -264 165 -449 173 -87 4 -112 1
-176 -19z"/>
</g>
</svg>
