<?xml version="1.0" encoding="UTF-8" standalone="no"?><svg xmlns="http://www.w3.org/2000/svg" xmlns:xlink="http://www.w3.org/1999/xlink" contentScriptType="application/ecmascript" contentStyleType="text/css" height="355px" preserveAspectRatio="none" style="width:420px;height:355px;" version="1.1" viewBox="0 0 420 355" width="420px" zoomAndPan="magnify"><defs><filter height="300%" id="f193qqk6d0vium" width="300%" x="-1" y="-1"><feGaussianBlur result="blurOut" stdDeviation="2.0"/><feColorMatrix in="blurOut" result="blurOut2" type="matrix" values="0 0 0 0 0 0 0 0 0 0 0 0 0 0 0 0 0 0 .4 0"/><feOffset dx="4.0" dy="4.0" in="blurOut2" result="blurOut3"/><feBlend in="SourceGraphic" in2="blurOut3" mode="normal"/></filter></defs><g><rect fill="#FFFFFF" filter="url(#f193qqk6d0vium)" height="76.5313" style="stroke: #000000; stroke-width: 2.0;" width="304" x="13" y="131.2969"/><text fill="#000000" font-family="sans-serif" font-size="14" lengthAdjust="spacingAndGlyphs" textLength="38" x="370.5" y="259.8232">entity</text><ellipse cx="392.5" cy="230.8281" fill="#FEFECE" filter="url(#f193qqk6d0vium)" rx="12" ry="12" style="stroke: #A80036; stroke-width: 2.0;"/><line style="stroke: #A80036; stroke-width: 2.0;" x1="380.5" x2="404.5" y1="244.8281" y2="244.8281"/><rect fill="#FFFFFF" filter="url(#f193qqk6d0vium)" height="46.2656" style="stroke: #000000; stroke-width: 2.0;" width="289" x="13" y="280.125"/><line style="stroke: #A80036; stroke-width: 1.0;" x1="47" x2="47" y1="86.2969" y2="96.2969"/><line style="stroke: #A80036; stroke-width: 1.0; stroke-dasharray: 1.0,4.0;" x1="47" x2="47" y1="96.2969" y2="124.2969"/><line style="stroke: #A80036; stroke-width: 1.0;" x1="47" x2="47" y1="124.2969" y2="343.3906"/><line style="stroke: #A80036; stroke-width: 1.0;" x1="266" x2="266" y1="86.2969" y2="96.2969"/><line style="stroke: #A80036; stroke-width: 1.0; stroke-dasharray: 1.0,4.0;" x1="266" x2="266" y1="96.2969" y2="124.2969"/><line style="stroke: #A80036; stroke-width: 1.0;" x1="266" x2="266" y1="124.2969" y2="343.3906"/><line style="stroke: #A80036; stroke-width: 1.0;" x1="392.5" x2="392.5" y1="253.9766" y2="343.3906"/><text fill="#000000" font-family="sans-serif" font-size="14" lengthAdjust="spacingAndGlyphs" textLength="43" x="23" y="82.9951">owner</text><ellipse cx="47.5" cy="13" fill="#FEFECE" filter="url(#f193qqk6d0vium)" rx="8" ry="8" style="stroke: #A80036; stroke-width: 2.0;"/><path d="M47.5,21 L47.5,48 M34.5,29 L60.5,29 M47.5,48 L34.5,63 M47.5,48 L60.5,63 " fill="none" filter="url(#f193qqk6d0vium)" style="stroke: #A80036; stroke-width: 2.0;"/><rect fill="#FEFECE" filter="url(#f193qqk6d0vium)" height="30.2969" style="stroke: #A80036; stroke-width: 1.5;" width="47" x="241" y="51"/><text fill="#000000" font-family="sans-serif" font-size="14" lengthAdjust="spacingAndGlyphs" textLength="33" x="248" y="70.9951">IUDX</text><path d="M13,131.2969 L312,131.2969 L312,138.2969 L302,148.2969 L13,148.2969 L13,131.2969 " fill="#EEEEEE" style="stroke: #000000; stroke-width: 1.0;"/><rect fill="none" height="76.5313" style="stroke: #000000; stroke-width: 2.0;" width="304" x="13" y="131.2969"/><text fill="#000000" font-family="sans-serif" font-size="13" font-weight="bold" lengthAdjust="spacingAndGlyphs" textLength="254" x="28" y="144.3638">HTTPS POST /owner/register-entity</text><polygon fill="#A80036" points="254.5,195.8281,264.5,199.8281,254.5,203.8281,258.5,199.8281" style="stroke: #A80036; stroke-width: 1.0;"/><line style="stroke: #A80036; stroke-width: 1.0;" x1="47.5" x2="260.5" y1="199.8281" y2="199.8281"/><text fill="#000000" font-family="sans-serif" font-size="13" font-weight="bold" lengthAdjust="spacingAndGlyphs" textLength="14" x="89.5" y="164.4966">id</text><text fill="#000000" font-family="sans-serif" font-size="13" lengthAdjust="spacingAndGlyphs" textLength="44" x="103.5" y="164.4966">: string</text><text fill="#000000" font-family="sans-serif" font-size="13" font-weight="bold" lengthAdjust="spacingAndGlyphs" textLength="49" x="54.5" y="179.6294">apikey</text><text fill="#000000" font-family="sans-serif" font-size="13" lengthAdjust="spacingAndGlyphs" textLength="44" x="103.5" y="179.6294">: string</text><text fill="#000000" font-family="sans-serif" font-size="13" font-weight="bold" lengthAdjust="spacingAndGlyphs" textLength="42" x="61.5" y="194.7622">entity</text><text fill="#000000" font-family="sans-serif" font-size="13" lengthAdjust="spacingAndGlyphs" textLength="44" x="103.5" y="194.7622">: string</text><polygon fill="#A80036" points="358.5,231.9609,368.5,235.9609,358.5,239.9609,362.5,235.9609" style="stroke: #A80036; stroke-width: 1.0;"/><line style="stroke: #A80036; stroke-width: 1.0;" x1="266.5" x2="364.5" y1="235.9609" y2="235.9609"/><text fill="#000000" font-family="sans-serif" font-size="13" lengthAdjust="spacingAndGlyphs" textLength="80" x="273.5" y="230.895">new account</text><text fill="#000000" font-family="sans-serif" font-size="14" lengthAdjust="spacingAndGlyphs" textLength="38" x="370.5" y="259.8232">entity</text><ellipse cx="392.5" cy="230.8281" fill="#FEFECE" filter="url(#f193qqk6d0vium)" rx="12" ry="12" style="stroke: #A80036; stroke-width: 2.0;"/><line style="stroke: #A80036; stroke-width: 2.0;" x1="380.5" x2="404.5" y1="244.8281" y2="244.8281"/><path d="M13,280.125 L157,280.125 L157,287.125 L147,297.125 L13,297.125 L13,280.125 " fill="#EEEEEE" style="stroke: #000000; stroke-width: 1.0;"/><rect fill="none" height="46.2656" style="stroke: #000000; stroke-width: 2.0;" width="289" x="13" y="280.125"/><text fill="#000000" font-family="sans-serif" font-size="13" font-weight="bold" lengthAdjust="spacingAndGlyphs" textLength="99" x="28" y="293.1919">201 CREATED</text><polygon fill="#A80036" points="58.5,314.3906,48.5,318.3906,58.5,322.3906,54.5,318.3906" style="stroke: #A80036; stroke-width: 1.0;"/><line style="stroke: #A80036; stroke-width: 1.0;" x1="52.5" x2="265.5" y1="318.3906" y2="318.3906"/><text fill="#000000" font-family="sans-serif" font-size="13" lengthAdjust="spacingAndGlyphs" textLength="13" x="64.5" y="313.3247">{"</text><text fill="#000000" font-family="sans-serif" font-size="13" font-weight="bold" lengthAdjust="spacingAndGlyphs" textLength="14" x="77.5" y="313.3247">id</text><text fill="#000000" font-family="sans-serif" font-size="13" lengthAdjust="spacingAndGlyphs" textLength="62" x="91.5" y="313.3247">": string, "</text><text fill="#000000" font-family="sans-serif" font-size="13" font-weight="bold" lengthAdjust="spacingAndGlyphs" textLength="49" x="153.5" y="313.3247">apikey</text><text fill="#000000" font-family="sans-serif" font-size="13" lengthAdjust="spacingAndGlyphs" textLength="57" x="202.5" y="313.3247">": string}</text><!--
@startuml
actor owner
hide footbox
...

group HTTPS POST /owner/register-entity

owner -> IUDX: **id**: string\r**apikey**: string\r**entity**: string

end

create entity entity
IUDX -> entity : new account

group 201 CREATED
IUDX -> owner: {"**id**": string, "**apikey**": string}
end
@enduml

PlantUML version 1.2018.14beta12(Unknown compile time)
(GPL source distribution)
Java Runtime: Java(TM) SE Runtime Environment
JVM: Java HotSpot(TM) 64-Bit Server VM
Java Version: 1.7.0_25-b15
Operating System: Linux
Default Encoding: UTF-8
Language: en
Country: US
--></g></svg>