<?xml version="1.0" encoding="UTF-8" standalone="no"?><svg xmlns="http://www.w3.org/2000/svg" xmlns:xlink="http://www.w3.org/1999/xlink" contentScriptType="application/ecmascript" contentStyleType="text/css" height="1594px" preserveAspectRatio="none" style="width:723px;height:1594px;" version="1.1" viewBox="0 0 723 1594" width="723px" zoomAndPan="magnify"><defs><filter height="300%" id="f1pgvk4ne2dowm" width="300%" x="-1" y="-1"><feGaussianBlur result="blurOut" stdDeviation="2.0"/><feColorMatrix in="blurOut" result="blurOut2" type="matrix" values="0 0 0 0 0 0 0 0 0 0 0 0 0 0 0 0 0 0 .4 0"/><feOffset dx="4.0" dy="4.0" in="blurOut2" result="blurOut3"/><feBlend in="SourceGraphic" in2="blurOut3" mode="normal"/></filter></defs><g><rect fill="#DDDDDD" height="1572.0625" style="stroke: #A80036; stroke-width: 1.0;" width="141" x="565.5" y="4"/><text fill="#000000" font-family="sans-serif" font-size="13" font-weight="bold" lengthAdjust="spacingAndGlyphs" textLength="0" x="638.5" y="16.0669"/><rect fill="#FFFFFF" filter="url(#f1pgvk4ne2dowm)" height="121.9297" style="stroke: #000000; stroke-width: 2.0;" width="428" x="13" y="151.4297"/><rect fill="#FFFFFF" filter="url(#f1pgvk4ne2dowm)" height="46.2656" style="stroke: #000000; stroke-width: 2.0;" width="428" x="13" y="287.3594"/><rect fill="#FFFFFF" filter="url(#f1pgvk4ne2dowm)" height="61.3984" style="stroke: #000000; stroke-width: 2.0;" width="313.5" x="324" y="375.625"/><rect fill="#FFFFFF" filter="url(#f1pgvk4ne2dowm)" height="212.7266" style="stroke: #000000; stroke-width: 2.0;" width="313.5" x="324" y="451.0234"/><rect fill="#FFFFFF" filter="url(#f1pgvk4ne2dowm)" height="76.5313" style="stroke: #000000; stroke-width: 2.0;" width="313.5" x="324" y="677.75"/><rect fill="#FFFFFF" filter="url(#f1pgvk4ne2dowm)" height="31.1328" style="stroke: #000000; stroke-width: 2.0;" width="313.5" x="324" y="768.2813"/><rect fill="#FFFFFF" filter="url(#f1pgvk4ne2dowm)" height="61.3984" style="stroke: #000000; stroke-width: 2.0;" width="428" x="13" y="841.4141"/><rect fill="#FFFFFF" filter="url(#f1pgvk4ne2dowm)" height="227.8594" style="stroke: #000000; stroke-width: 2.0;" width="428" x="13" y="916.8125"/><rect fill="#FFFFFF" filter="url(#f1pgvk4ne2dowm)" height="152.1953" style="stroke: #000000; stroke-width: 2.0;" width="388.5" x="324" y="1158.6719"/><rect fill="#FFFFFF" filter="url(#f1pgvk4ne2dowm)" height="31.1328" style="stroke: #000000; stroke-width: 2.0;" width="388.5" x="324" y="1324.8672"/><rect fill="#FFFFFF" filter="url(#f1pgvk4ne2dowm)" height="106.7969" style="stroke: #000000; stroke-width: 2.0;" width="428" x="13" y="1398"/><rect fill="#FFFFFF" filter="url(#f1pgvk4ne2dowm)" height="46.2656" style="stroke: #000000; stroke-width: 2.0;" width="428" x="13" y="1518.7969"/><line style="stroke: #A80036; stroke-width: 1.0;" x1="55" x2="55" y1="106.4297" y2="116.4297"/><line style="stroke: #A80036; stroke-width: 1.0; stroke-dasharray: 1.0,4.0;" x1="55" x2="55" y1="116.4297" y2="144.4297"/><line style="stroke: #A80036; stroke-width: 1.0;" x1="55" x2="55" y1="144.4297" y2="340.625"/><line style="stroke: #A80036; stroke-width: 1.0; stroke-dasharray: 1.0,4.0;" x1="55" x2="55" y1="340.625" y2="368.625"/><line style="stroke: #A80036; stroke-width: 1.0;" x1="55" x2="55" y1="368.625" y2="806.4141"/><line style="stroke: #A80036; stroke-width: 1.0; stroke-dasharray: 1.0,4.0;" x1="55" x2="55" y1="806.4141" y2="834.4141"/><line style="stroke: #A80036; stroke-width: 1.0;" x1="55" x2="55" y1="834.4141" y2="1363"/><line style="stroke: #A80036; stroke-width: 1.0; stroke-dasharray: 1.0,4.0;" x1="55" x2="55" y1="1363" y2="1391"/><line style="stroke: #A80036; stroke-width: 1.0;" x1="55" x2="55" y1="1391" y2="1582.0625"/><line style="stroke: #A80036; stroke-width: 1.0;" x1="382" x2="382" y1="106.4297" y2="116.4297"/><line style="stroke: #A80036; stroke-width: 1.0; stroke-dasharray: 1.0,4.0;" x1="382" x2="382" y1="116.4297" y2="144.4297"/><line style="stroke: #A80036; stroke-width: 1.0;" x1="382" x2="382" y1="144.4297" y2="340.625"/><line style="stroke: #A80036; stroke-width: 1.0; stroke-dasharray: 1.0,4.0;" x1="382" x2="382" y1="340.625" y2="368.625"/><line style="stroke: #A80036; stroke-width: 1.0;" x1="382" x2="382" y1="368.625" y2="806.4141"/><line style="stroke: #A80036; stroke-width: 1.0; stroke-dasharray: 1.0,4.0;" x1="382" x2="382" y1="806.4141" y2="834.4141"/><line style="stroke: #A80036; stroke-width: 1.0;" x1="382" x2="382" y1="834.4141" y2="1363"/><line style="stroke: #A80036; stroke-width: 1.0; stroke-dasharray: 1.0,4.0;" x1="382" x2="382" y1="1363" y2="1391"/><line style="stroke: #A80036; stroke-width: 1.0;" x1="382" x2="382" y1="1391" y2="1582.0625"/><line style="stroke: #A80036; stroke-width: 1.0;" x1="598.5" x2="598.5" y1="106.4297" y2="116.4297"/><line style="stroke: #A80036; stroke-width: 1.0; stroke-dasharray: 1.0,4.0;" x1="598.5" x2="598.5" y1="116.4297" y2="144.4297"/><line style="stroke: #A80036; stroke-width: 1.0;" x1="598.5" x2="598.5" y1="144.4297" y2="340.625"/><line style="stroke: #A80036; stroke-width: 1.0; stroke-dasharray: 1.0,4.0;" x1="598.5" x2="598.5" y1="340.625" y2="368.625"/><line style="stroke: #A80036; stroke-width: 1.0;" x1="598.5" x2="598.5" y1="368.625" y2="806.4141"/><line style="stroke: #A80036; stroke-width: 1.0; stroke-dasharray: 1.0,4.0;" x1="598.5" x2="598.5" y1="806.4141" y2="834.4141"/><line style="stroke: #A80036; stroke-width: 1.0;" x1="598.5" x2="598.5" y1="834.4141" y2="1363"/><line style="stroke: #A80036; stroke-width: 1.0; stroke-dasharray: 1.0,4.0;" x1="598.5" x2="598.5" y1="1363" y2="1391"/><line style="stroke: #A80036; stroke-width: 1.0;" x1="598.5" x2="598.5" y1="1391" y2="1582.0625"/><line style="stroke: #A80036; stroke-width: 1.0;" x1="669.5" x2="669.5" y1="106.4297" y2="116.4297"/><line style="stroke: #A80036; stroke-width: 1.0; stroke-dasharray: 1.0,4.0;" x1="669.5" x2="669.5" y1="116.4297" y2="144.4297"/><line style="stroke: #A80036; stroke-width: 1.0;" x1="669.5" x2="669.5" y1="144.4297" y2="340.625"/><line style="stroke: #A80036; stroke-width: 1.0; stroke-dasharray: 1.0,4.0;" x1="669.5" x2="669.5" y1="340.625" y2="368.625"/><line style="stroke: #A80036; stroke-width: 1.0;" x1="669.5" x2="669.5" y1="368.625" y2="806.4141"/><line style="stroke: #A80036; stroke-width: 1.0; stroke-dasharray: 1.0,4.0;" x1="669.5" x2="669.5" y1="806.4141" y2="834.4141"/><line style="stroke: #A80036; stroke-width: 1.0;" x1="669.5" x2="669.5" y1="834.4141" y2="1363"/><line style="stroke: #A80036; stroke-width: 1.0; stroke-dasharray: 1.0,4.0;" x1="669.5" x2="669.5" y1="1363" y2="1391"/><line style="stroke: #A80036; stroke-width: 1.0;" x1="669.5" x2="669.5" y1="1391" y2="1582.0625"/><rect fill="#FEFECE" filter="url(#f1pgvk4ne2dowm)" height="30.2969" style="stroke: #A80036; stroke-width: 1.5;" width="61" x="23" y="71.1328"/><text fill="#000000" font-family="sans-serif" font-size="14" lengthAdjust="spacingAndGlyphs" textLength="47" x="30" y="91.1279">entity1</text><rect fill="#FEFECE" filter="url(#f1pgvk4ne2dowm)" height="30.2969" style="stroke: #A80036; stroke-width: 1.5;" width="93" x="334" y="71.1328"/><text fill="#000000" font-family="sans-serif" font-size="14" lengthAdjust="spacingAndGlyphs" textLength="79" x="341" y="91.1279">middleware</text><text fill="#000000" font-family="sans-serif" font-size="14" lengthAdjust="spacingAndGlyphs" textLength="52" x="569.5" y="103.1279">owner2</text><ellipse cx="598.5" cy="33.1328" fill="#FEFECE" filter="url(#f1pgvk4ne2dowm)" rx="8" ry="8" style="stroke: #A80036; stroke-width: 2.0;"/><path d="M598.5,41.1328 L598.5,68.1328 M585.5,49.1328 L611.5,49.1328 M598.5,68.1328 L585.5,83.1328 M598.5,68.1328 L611.5,83.1328 " fill="none" filter="url(#f1pgvk4ne2dowm)" style="stroke: #A80036; stroke-width: 2.0;"/><rect fill="#FEFECE" filter="url(#f1pgvk4ne2dowm)" height="30.2969" style="stroke: #A80036; stroke-width: 1.5;" width="61" x="637.5" y="71.1328"/><text fill="#000000" font-family="sans-serif" font-size="14" lengthAdjust="spacingAndGlyphs" textLength="47" x="644.5" y="91.1279">entity2</text><path d="M13,151.4297 L248,151.4297 L248,158.4297 L238,168.4297 L13,168.4297 L13,151.4297 " fill="#EEEEEE" style="stroke: #000000; stroke-width: 1.0;"/><rect fill="none" height="121.9297" style="stroke: #000000; stroke-width: 2.0;" width="428" x="13" y="151.4297"/><text fill="#000000" font-family="sans-serif" font-size="13" font-weight="bold" lengthAdjust="spacingAndGlyphs" textLength="190" x="28" y="164.4966">HTTPS POST /entity/follow</text><polygon fill="#A80036" points="370.5,261.3594,380.5,265.3594,370.5,269.3594,374.5,265.3594" style="stroke: #A80036; stroke-width: 1.0;"/><line style="stroke: #A80036; stroke-width: 1.0;" x1="55.5" x2="376.5" y1="265.3594" y2="265.3594"/><text fill="#000000" font-family="sans-serif" font-size="13" font-weight="bold" lengthAdjust="spacingAndGlyphs" textLength="14" x="129.5" y="184.6294">id</text><text fill="#000000" font-family="sans-serif" font-size="13" lengthAdjust="spacingAndGlyphs" textLength="44" x="143.5" y="184.6294">: string</text><text fill="#000000" font-family="sans-serif" font-size="13" font-weight="bold" lengthAdjust="spacingAndGlyphs" textLength="49" x="94.5" y="199.7622">apikey</text><text fill="#000000" font-family="sans-serif" font-size="13" lengthAdjust="spacingAndGlyphs" textLength="44" x="143.5" y="199.7622">: string</text><text fill="#000000" font-family="sans-serif" font-size="13" font-weight="bold" lengthAdjust="spacingAndGlyphs" textLength="15" x="128.5" y="214.895">to</text><text fill="#000000" font-family="sans-serif" font-size="13" lengthAdjust="spacingAndGlyphs" textLength="44" x="143.5" y="214.895">: string</text><text fill="#000000" font-family="sans-serif" font-size="13" font-weight="bold" lengthAdjust="spacingAndGlyphs" textLength="37" x="106.5" y="230.0278">topic</text><text fill="#000000" font-family="sans-serif" font-size="13" lengthAdjust="spacingAndGlyphs" textLength="44" x="143.5" y="230.0278">: string</text><text fill="#000000" font-family="sans-serif" font-size="13" font-weight="bold" lengthAdjust="spacingAndGlyphs" textLength="81" x="62.5" y="245.1606">permission</text><text fill="#000000" font-family="sans-serif" font-size="13" lengthAdjust="spacingAndGlyphs" textLength="44" x="143.5" y="245.1606">: string</text><text fill="#000000" font-family="sans-serif" font-size="13" font-weight="bold" lengthAdjust="spacingAndGlyphs" textLength="53" x="90.5" y="260.2935">validity</text><text fill="#000000" font-family="sans-serif" font-size="13" lengthAdjust="spacingAndGlyphs" textLength="44" x="143.5" y="260.2935">: string</text><path d="M13,287.3594 L167,287.3594 L167,294.3594 L157,304.3594 L13,304.3594 L13,287.3594 " fill="#EEEEEE" style="stroke: #000000; stroke-width: 1.0;"/><rect fill="none" height="46.2656" style="stroke: #000000; stroke-width: 2.0;" width="428" x="13" y="287.3594"/><text fill="#000000" font-family="sans-serif" font-size="13" font-weight="bold" lengthAdjust="spacingAndGlyphs" textLength="109" x="28" y="300.4263">202 ACCEPTED</text><polygon fill="#A80036" points="66.5,321.625,56.5,325.625,66.5,329.625,62.5,325.625" style="stroke: #A80036; stroke-width: 1.0;"/><line style="stroke: #A80036; stroke-width: 1.0;" x1="60.5" x2="381.5" y1="325.625" y2="325.625"/><text fill="#000000" font-family="sans-serif" font-size="13" lengthAdjust="spacingAndGlyphs" textLength="303" x="72.5" y="320.5591">{"follow-id-read": string, "follow-id-write": string}</text><path d="M324,375.625 L622,375.625 L622,382.625 L612,392.625 L324,392.625 L324,375.625 " fill="#EEEEEE" style="stroke: #000000; stroke-width: 1.0;"/><rect fill="none" height="61.3984" style="stroke: #000000; stroke-width: 2.0;" width="313.5" x="324" y="375.625"/><text fill="#000000" font-family="sans-serif" font-size="13" font-weight="bold" lengthAdjust="spacingAndGlyphs" textLength="253" x="339" y="388.6919">HTTPS GET /owner/follow-requests</text><polygon fill="#A80036" points="393.5,425.0234,383.5,429.0234,393.5,433.0234,389.5,429.0234" style="stroke: #A80036; stroke-width: 1.0;"/><line style="stroke: #A80036; stroke-width: 1.0;" x1="387.5" x2="597.5" y1="429.0234" y2="429.0234"/><text fill="#000000" font-family="sans-serif" font-size="13" font-weight="bold" lengthAdjust="spacingAndGlyphs" textLength="14" x="434.5" y="408.8247">id</text><text fill="#000000" font-family="sans-serif" font-size="13" lengthAdjust="spacingAndGlyphs" textLength="44" x="448.5" y="408.8247">: string</text><text fill="#000000" font-family="sans-serif" font-size="13" font-weight="bold" lengthAdjust="spacingAndGlyphs" textLength="49" x="399.5" y="423.9575">apikey</text><text fill="#000000" font-family="sans-serif" font-size="13" lengthAdjust="spacingAndGlyphs" textLength="44" x="448.5" y="423.9575">: string</text><path d="M324,451.0234 L422,451.0234 L422,458.0234 L412,468.0234 L324,468.0234 L324,451.0234 " fill="#EEEEEE" style="stroke: #000000; stroke-width: 1.0;"/><rect fill="none" height="212.7266" style="stroke: #000000; stroke-width: 2.0;" width="313.5" x="324" y="451.0234"/><text fill="#000000" font-family="sans-serif" font-size="13" font-weight="bold" lengthAdjust="spacingAndGlyphs" textLength="53" x="339" y="464.0903">200 OK</text><polygon fill="#A80036" points="586.5,651.75,596.5,655.75,586.5,659.75,590.5,655.75" style="stroke: #A80036; stroke-width: 1.0;"/><line style="stroke: #A80036; stroke-width: 1.0;" x1="382.5" x2="592.5" y1="655.75" y2="655.75"/><text fill="#000000" font-family="sans-serif" font-size="13" lengthAdjust="spacingAndGlyphs" textLength="5" x="389.5" y="484.2231">[</text><text fill="#000000" font-family="sans-serif" font-size="13" lengthAdjust="spacingAndGlyphs" textLength="8" x="421.5" y="499.356">{</text><text fill="#000000" font-family="sans-serif" font-size="13" lengthAdjust="spacingAndGlyphs" textLength="109" x="453.5" y="514.4888">"follow-id": string,</text><text fill="#000000" font-family="sans-serif" font-size="13" lengthAdjust="spacingAndGlyphs" textLength="88" x="453.5" y="529.6216">"from": string,</text><text fill="#000000" font-family="sans-serif" font-size="13" lengthAdjust="spacingAndGlyphs" textLength="71" x="453.5" y="544.7544">"to": string,</text><text fill="#000000" font-family="sans-serif" font-size="13" lengthAdjust="spacingAndGlyphs" textLength="87" x="453.5" y="559.8872">"time": string,</text><text fill="#000000" font-family="sans-serif" font-size="13" lengthAdjust="spacingAndGlyphs" textLength="128" x="453.5" y="575.02">"permission": string,</text><text fill="#000000" font-family="sans-serif" font-size="13" lengthAdjust="spacingAndGlyphs" textLength="89" x="453.5" y="590.1528">"topic": string,</text><text fill="#000000" font-family="sans-serif" font-size="13" lengthAdjust="spacingAndGlyphs" textLength="98" x="453.5" y="605.2856">"validity": string</text><text fill="#000000" font-family="sans-serif" font-size="13" lengthAdjust="spacingAndGlyphs" textLength="12" x="421.5" y="620.4185">},</text><text fill="#000000" font-family="sans-serif" font-size="13" lengthAdjust="spacingAndGlyphs" textLength="12" x="425.5" y="635.5513">...</text><text fill="#000000" font-family="sans-serif" font-size="13" lengthAdjust="spacingAndGlyphs" textLength="5" x="389.5" y="650.6841">]</text><path d="M324,677.75 L559,677.75 L559,684.75 L549,694.75 L324,694.75 L324,677.75 " fill="#EEEEEE" style="stroke: #000000; stroke-width: 1.0;"/><rect fill="none" height="76.5313" style="stroke: #000000; stroke-width: 2.0;" width="313.5" x="324" y="677.75"/><text fill="#000000" font-family="sans-serif" font-size="13" font-weight="bold" lengthAdjust="spacingAndGlyphs" textLength="190" x="339" y="690.8169">HTTPS POST /owner/share</text><polygon fill="#A80036" points="393.5,742.2813,383.5,746.2813,393.5,750.2813,389.5,746.2813" style="stroke: #A80036; stroke-width: 1.0;"/><line style="stroke: #A80036; stroke-width: 1.0;" x1="387.5" x2="597.5" y1="746.2813" y2="746.2813"/><text fill="#000000" font-family="sans-serif" font-size="13" font-weight="bold" lengthAdjust="spacingAndGlyphs" textLength="14" x="448.5" y="710.9497">id</text><text fill="#000000" font-family="sans-serif" font-size="13" lengthAdjust="spacingAndGlyphs" textLength="44" x="462.5" y="710.9497">: string</text><text fill="#000000" font-family="sans-serif" font-size="13" font-weight="bold" lengthAdjust="spacingAndGlyphs" textLength="49" x="413.5" y="726.0825">apikey</text><text fill="#000000" font-family="sans-serif" font-size="13" lengthAdjust="spacingAndGlyphs" textLength="44" x="462.5" y="726.0825">: string</text><text fill="#000000" font-family="sans-serif" font-size="13" font-weight="bold" lengthAdjust="spacingAndGlyphs" textLength="63" x="399.5" y="741.2153">follow-id</text><text fill="#000000" font-family="sans-serif" font-size="13" lengthAdjust="spacingAndGlyphs" textLength="44" x="462.5" y="741.2153">: string</text><path d="M324,768.2813 L422,768.2813 L422,775.2813 L412,785.2813 L324,785.2813 L324,768.2813 " fill="#EEEEEE" style="stroke: #000000; stroke-width: 1.0;"/><rect fill="none" height="31.1328" style="stroke: #000000; stroke-width: 2.0;" width="313.5" x="324" y="768.2813"/><text fill="#000000" font-family="sans-serif" font-size="13" font-weight="bold" lengthAdjust="spacingAndGlyphs" textLength="53" x="339" y="781.3481">200 OK</text><polygon fill="#A80036" points="586.5,787.4141,596.5,791.4141,586.5,795.4141,590.5,791.4141" style="stroke: #A80036; stroke-width: 1.0;"/><line style="stroke: #A80036; stroke-width: 1.0;" x1="382.5" x2="592.5" y1="791.4141" y2="791.4141"/><path d="M13,841.4141 L289,841.4141 L289,848.4141 L279,858.4141 L13,858.4141 L13,841.4141 " fill="#EEEEEE" style="stroke: #000000; stroke-width: 1.0;"/><rect fill="none" height="61.3984" style="stroke: #000000; stroke-width: 2.0;" width="428" x="13" y="841.4141"/><text fill="#000000" font-family="sans-serif" font-size="13" font-weight="bold" lengthAdjust="spacingAndGlyphs" textLength="231" x="28" y="854.481">HTTPS GET /entity/follow-status</text><polygon fill="#A80036" points="370.5,890.8125,380.5,894.8125,370.5,898.8125,374.5,894.8125" style="stroke: #A80036; stroke-width: 1.0;"/><line style="stroke: #A80036; stroke-width: 1.0;" x1="55.5" x2="376.5" y1="894.8125" y2="894.8125"/><text fill="#000000" font-family="sans-serif" font-size="13" font-weight="bold" lengthAdjust="spacingAndGlyphs" textLength="14" x="97.5" y="874.6138">id</text><text fill="#000000" font-family="sans-serif" font-size="13" lengthAdjust="spacingAndGlyphs" textLength="44" x="111.5" y="874.6138">: string</text><text fill="#000000" font-family="sans-serif" font-size="13" font-weight="bold" lengthAdjust="spacingAndGlyphs" textLength="49" x="62.5" y="889.7466">apikey</text><text fill="#000000" font-family="sans-serif" font-size="13" lengthAdjust="spacingAndGlyphs" textLength="44" x="111.5" y="889.7466">: string</text><path d="M13,916.8125 L111,916.8125 L111,923.8125 L101,933.8125 L13,933.8125 L13,916.8125 " fill="#EEEEEE" style="stroke: #000000; stroke-width: 1.0;"/><rect fill="none" height="227.8594" style="stroke: #000000; stroke-width: 2.0;" width="428" x="13" y="916.8125"/><text fill="#000000" font-family="sans-serif" font-size="13" font-weight="bold" lengthAdjust="spacingAndGlyphs" textLength="53" x="28" y="929.8794">200 OK</text><polygon fill="#A80036" points="66.5,1132.6719,56.5,1136.6719,66.5,1140.6719,62.5,1136.6719" style="stroke: #A80036; stroke-width: 1.0;"/><line style="stroke: #A80036; stroke-width: 1.0;" x1="60.5" x2="381.5" y1="1136.6719" y2="1136.6719"/><text fill="#000000" font-family="sans-serif" font-size="13" lengthAdjust="spacingAndGlyphs" textLength="5" x="72.5" y="950.0122">[</text><text fill="#000000" font-family="sans-serif" font-size="13" lengthAdjust="spacingAndGlyphs" textLength="8" x="104.5" y="965.145">{</text><text fill="#000000" font-family="sans-serif" font-size="13" lengthAdjust="spacingAndGlyphs" textLength="109" x="136.5" y="980.2778">"follow-id": string,</text><text fill="#000000" font-family="sans-serif" font-size="13" lengthAdjust="spacingAndGlyphs" textLength="88" x="136.5" y="995.4106">"from": string,</text><text fill="#000000" font-family="sans-serif" font-size="13" lengthAdjust="spacingAndGlyphs" textLength="71" x="136.5" y="1010.5435">"to": string,</text><text fill="#000000" font-family="sans-serif" font-size="13" lengthAdjust="spacingAndGlyphs" textLength="87" x="136.5" y="1025.6763">"time": string,</text><text fill="#000000" font-family="sans-serif" font-size="13" lengthAdjust="spacingAndGlyphs" textLength="128" x="136.5" y="1040.8091">"permission": string,</text><text fill="#000000" font-family="sans-serif" font-size="13" lengthAdjust="spacingAndGlyphs" textLength="89" x="136.5" y="1055.9419">"topic": string,</text><text fill="#000000" font-family="sans-serif" font-size="13" lengthAdjust="spacingAndGlyphs" textLength="102" x="136.5" y="1071.0747">"validity": string,</text><text fill="#000000" font-family="sans-serif" font-size="13" lengthAdjust="spacingAndGlyphs" textLength="94" x="136.5" y="1086.2075">"status": string</text><text fill="#000000" font-family="sans-serif" font-size="13" lengthAdjust="spacingAndGlyphs" textLength="12" x="104.5" y="1101.3403">},</text><text fill="#000000" font-family="sans-serif" font-size="13" lengthAdjust="spacingAndGlyphs" textLength="12" x="108.5" y="1116.4731">...</text><text fill="#000000" font-family="sans-serif" font-size="13" lengthAdjust="spacingAndGlyphs" textLength="5" x="72.5" y="1131.606">]</text><path d="M324,1158.6719 L569,1158.6719 L569,1165.6719 L559,1175.6719 L324,1175.6719 L324,1158.6719 " fill="#EEEEEE" style="stroke: #000000; stroke-width: 1.0;"/><rect fill="none" height="152.1953" style="stroke: #000000; stroke-width: 2.0;" width="388.5" x="324" y="1158.6719"/><text fill="#000000" font-family="sans-serif" font-size="13" font-weight="bold" lengthAdjust="spacingAndGlyphs" textLength="200" x="339" y="1171.7388">HTTPS POST /entity/publish</text><polygon fill="#A80036" points="393.5,1298.8672,383.5,1302.8672,393.5,1306.8672,389.5,1302.8672" style="stroke: #A80036; stroke-width: 1.0;"/><line style="stroke: #A80036; stroke-width: 1.0;" x1="387.5" x2="669" y1="1302.8672" y2="1302.8672"/><text fill="#000000" font-family="sans-serif" font-size="13" font-weight="bold" lengthAdjust="spacingAndGlyphs" textLength="14" x="490.5" y="1191.8716">id</text><text fill="#000000" font-family="sans-serif" font-size="13" lengthAdjust="spacingAndGlyphs" textLength="44" x="504.5" y="1191.8716">: string</text><text fill="#000000" font-family="sans-serif" font-size="13" font-weight="bold" lengthAdjust="spacingAndGlyphs" textLength="49" x="455.5" y="1207.0044">apikey</text><text fill="#000000" font-family="sans-serif" font-size="13" lengthAdjust="spacingAndGlyphs" textLength="44" x="504.5" y="1207.0044">: string</text><text fill="#000000" font-family="sans-serif" font-size="13" font-weight="bold" lengthAdjust="spacingAndGlyphs" textLength="15" x="489.5" y="1222.1372">to</text><text fill="#000000" font-family="sans-serif" font-size="13" lengthAdjust="spacingAndGlyphs" textLength="44" x="504.5" y="1222.1372">: string</text><text fill="#000000" font-family="sans-serif" font-size="13" font-weight="bold" lengthAdjust="spacingAndGlyphs" textLength="54" x="450.5" y="1237.27">subject</text><text fill="#000000" font-family="sans-serif" font-size="13" lengthAdjust="spacingAndGlyphs" textLength="44" x="504.5" y="1237.27">: string</text><text fill="#000000" font-family="sans-serif" font-size="13" font-weight="bold" lengthAdjust="spacingAndGlyphs" textLength="105" x="399.5" y="1252.4028">message-type</text><text fill="#000000" font-family="sans-serif" font-size="13" lengthAdjust="spacingAndGlyphs" textLength="44" x="504.5" y="1252.4028">: string</text><text fill="#000000" font-family="sans-serif" font-size="13" font-weight="bold" lengthAdjust="spacingAndGlyphs" textLength="94" x="410.5" y="1267.5356">content-type</text><text fill="#000000" font-family="sans-serif" font-size="13" lengthAdjust="spacingAndGlyphs" textLength="44" x="504.5" y="1267.5356">: string</text><text fill="#000000" font-family="sans-serif" font-size="13" lengthAdjust="spacingAndGlyphs" textLength="0" x="548.5" y="1282.6685"/><text fill="#000000" font-family="sans-serif" font-size="13" font-weight="bold" lengthAdjust="spacingAndGlyphs" textLength="149" x="399.5" y="1297.8013">&lt;message in body&gt;</text><path d="M324,1324.8672 L478,1324.8672 L478,1331.8672 L468,1341.8672 L324,1341.8672 L324,1324.8672 " fill="#EEEEEE" style="stroke: #000000; stroke-width: 1.0;"/><rect fill="none" height="31.1328" style="stroke: #000000; stroke-width: 2.0;" width="388.5" x="324" y="1324.8672"/><text fill="#000000" font-family="sans-serif" font-size="13" font-weight="bold" lengthAdjust="spacingAndGlyphs" textLength="109" x="339" y="1337.9341">202 ACCEPTED</text><polygon fill="#A80036" points="658,1344,668,1348,658,1352,662,1348" style="stroke: #A80036; stroke-width: 1.0;"/><line style="stroke: #A80036; stroke-width: 1.0;" x1="382.5" x2="664" y1="1348" y2="1348"/><path d="M13,1398 L266,1398 L266,1405 L256,1415 L13,1415 L13,1398 " fill="#EEEEEE" style="stroke: #000000; stroke-width: 1.0;"/><rect fill="none" height="106.7969" style="stroke: #000000; stroke-width: 2.0;" width="428" x="13" y="1398"/><text fill="#000000" font-family="sans-serif" font-size="13" font-weight="bold" lengthAdjust="spacingAndGlyphs" textLength="208" x="28" y="1411.0669">HTTPS GET /entity/subscribe</text><polygon fill="#A80036" points="370.5,1492.7969,380.5,1496.7969,370.5,1500.7969,374.5,1496.7969" style="stroke: #A80036; stroke-width: 1.0;"/><line style="stroke: #A80036; stroke-width: 1.0;" x1="55.5" x2="376.5" y1="1496.7969" y2="1496.7969"/><text fill="#000000" font-family="sans-serif" font-size="13" font-weight="bold" lengthAdjust="spacingAndGlyphs" textLength="14" x="160.5" y="1431.1997">id</text><text fill="#000000" font-family="sans-serif" font-size="13" lengthAdjust="spacingAndGlyphs" textLength="44" x="174.5" y="1431.1997">: string</text><text fill="#000000" font-family="sans-serif" font-size="13" font-weight="bold" lengthAdjust="spacingAndGlyphs" textLength="49" x="125.5" y="1446.3325">apikey</text><text fill="#000000" font-family="sans-serif" font-size="13" lengthAdjust="spacingAndGlyphs" textLength="44" x="174.5" y="1446.3325">: string</text><text fill="#000000" font-family="sans-serif" font-size="13" font-weight="bold" lengthAdjust="spacingAndGlyphs" textLength="15" x="159.5" y="1461.4653">to</text><text fill="#000000" font-family="sans-serif" font-size="13" lengthAdjust="spacingAndGlyphs" textLength="44" x="174.5" y="1461.4653">: string</text><text fill="#000000" font-family="sans-serif" font-size="13" font-weight="bold" lengthAdjust="spacingAndGlyphs" textLength="112" x="62.5" y="1476.5981">num-messages</text><text fill="#000000" font-family="sans-serif" font-size="13" lengthAdjust="spacingAndGlyphs" textLength="44" x="174.5" y="1476.5981">: string</text><text fill="#000000" font-family="sans-serif" font-size="13" font-weight="bold" lengthAdjust="spacingAndGlyphs" textLength="105" x="69.5" y="1491.731">message-type</text><text fill="#000000" font-family="sans-serif" font-size="13" lengthAdjust="spacingAndGlyphs" textLength="44" x="174.5" y="1491.731">: string</text><path d="M13,1518.7969 L111,1518.7969 L111,1525.7969 L101,1535.7969 L13,1535.7969 L13,1518.7969 " fill="#EEEEEE" style="stroke: #000000; stroke-width: 1.0;"/><rect fill="none" height="46.2656" style="stroke: #000000; stroke-width: 2.0;" width="428" x="13" y="1518.7969"/><text fill="#000000" font-family="sans-serif" font-size="13" font-weight="bold" lengthAdjust="spacingAndGlyphs" textLength="53" x="28" y="1531.8638">200 OK</text><polygon fill="#A80036" points="66.5,1553.0625,56.5,1557.0625,66.5,1561.0625,62.5,1557.0625" style="stroke: #A80036; stroke-width: 1.0;"/><line style="stroke: #A80036; stroke-width: 1.0;" x1="60.5" x2="381.5" y1="1557.0625" y2="1557.0625"/><text fill="#000000" font-family="sans-serif" font-size="13" font-weight="bold" lengthAdjust="spacingAndGlyphs" textLength="268" x="72.5" y="1551.9966">&lt;array of messages in json format&gt;</text><!--
@startuml
hide footbox


...
group HTTPS POST /entity/follow
entity1 -> middleware: **id**: string\r**apikey**: string\r**to**: string\r**topic**: string\r**permission**: string\r**validity**: string
end

group 202 ACCEPTED
middleware -> entity1: {"follow-id-read": string, "follow-id-write": string}
end

...



box " "
    actor owner2

	participant entity2
end box

group HTTPS GET /owner/follow-requests
owner2 -> middleware:**id**: string\r**apikey**: string
end

group 200 OK
middleware -> owner2: [\l\t{\t\r\t\t"follow-id": string,\r\t\t"from": string,\r\t\t"to": string,\r\t\t"time": string,\r\t\t"permission": string,\r\t\t"topic": string,\r\t\t"validity": string\r\t},\l\t ...\l]
end

group HTTPS POST /owner/share
owner2 -> middleware : **id**: string\r**apikey**: string\r**follow-id**: string
end

group 200 OK
middleware -> owner2
end

...
group HTTPS GET /entity/follow-status
entity1 -> middleware: **id**: string\r**apikey**: string
end

group 200 OK
middleware -> entity1: [\l\t{\t\r\t\t"follow-id": string,\r\t\t"from": string,\r\t\t"to": string,\r\t\t"time": string,\r\t\t"permission": string,\r\t\t"topic": string,\r\t\t"validity": string,\r\t\t"status": string\r\t},\l\t ...\l]
end


group HTTPS POST /entity/publish
entity2 -> middleware: **id**: string\r**apikey**: string\r**to**: string\r**subject**: string\r**message-type**: string\r**content-type**: string\r\r**<message in body>**
end

group 202 ACCEPTED
middleware -> entity2:
end

...
group HTTPS GET /entity/subscribe

entity1 -> middleware: **id**: string\r**apikey**: string\r**to**: string\r**num-messages**: string\r**message-type**: string
end

group 200 OK
middleware -> entity1: **<array of messages in json format>**
end
@enduml

PlantUML version 1.2018.13(Mon Nov 26 17:11:51 UTC 2018)
(GPL source distribution)
Java Runtime: Java(TM) SE Runtime Environment
JVM: Java HotSpot(TM) 64-Bit Server VM
Java Version: 1.7.0_25-b15
Operating System: Linux
Default Encoding: UTF-8
Language: en
Country: US
--></g></svg>