<?xml version="1.0" encoding="UTF-8" standalone="no"?>
<svg xmlns="http://www.w3.org/2000/svg" xmlns:xlink="http://www.w3.org/1999/xlink" contentScriptType="application/ecmascript" contentStyleType="text/css" height="1573px" preserveAspectRatio="none" style="width:723px;height:1573px;" version="1.1" viewBox="0 0 723 1573" width="723px" zoomAndPan="magnify"><defs><filter height="300%" id="f145n6no9fhb5m" width="300%" x="-1" y="-1"><feGaussianBlur result="blurOut" stdDeviation="2.0"/><feColorMatrix in="blurOut" result="blurOut2" type="matrix" values="0 0 0 0 0 0 0 0 0 0 0 0 0 0 0 0 0 0 .4 0"/><feOffset dx="4.0" dy="4.0" in="blurOut2" result="blurOut3"/><feBlend in="SourceGraphic" in2="blurOut3" mode="normal"/></filter></defs><g><rect fill="#FFFFFF" filter="url(#f145n6no9fhb5m)" height="121.9297" style="stroke: #000000; stroke-width: 2.0;" width="428" x="13" y="131.2969"/><rect fill="#FFFFFF" filter="url(#f145n6no9fhb5m)" height="46.2656" style="stroke: #000000; stroke-width: 2.0;" width="428" x="13" y="267.2266"/><rect fill="#FFFFFF" filter="url(#f145n6no9fhb5m)" height="61.3984" style="stroke: #000000; stroke-width: 2.0;" width="313.5" x="324" y="355.4922"/><rect fill="#FFFFFF" filter="url(#f145n6no9fhb5m)" height="212.7266" style="stroke: #000000; stroke-width: 2.0;" width="313.5" x="324" y="430.8906"/><rect fill="#FFFFFF" filter="url(#f145n6no9fhb5m)" height="76.5313" style="stroke: #000000; stroke-width: 2.0;" width="313.5" x="324" y="657.6172"/><rect fill="#FFFFFF" filter="url(#f145n6no9fhb5m)" height="31.1328" style="stroke: #000000; stroke-width: 2.0;" width="313.5" x="324" y="748.1484"/><rect fill="#FFFFFF" filter="url(#f145n6no9fhb5m)" height="61.3984" style="stroke: #000000; stroke-width: 2.0;" width="428" x="13" y="821.2813"/><rect fill="#FFFFFF" filter="url(#f145n6no9fhb5m)" height="227.8594" style="stroke: #000000; stroke-width: 2.0;" width="428" x="13" y="896.6797"/><rect fill="#FFFFFF" filter="url(#f145n6no9fhb5m)" height="152.1953" style="stroke: #000000; stroke-width: 2.0;" width="388.5" x="324" y="1138.5391"/><rect fill="#FFFFFF" filter="url(#f145n6no9fhb5m)" height="31.1328" style="stroke: #000000; stroke-width: 2.0;" width="388.5" x="324" y="1304.7344"/><rect fill="#FFFFFF" filter="url(#f145n6no9fhb5m)" height="106.7969" style="stroke: #000000; stroke-width: 2.0;" width="428" x="13" y="1377.8672"/><rect fill="#FFFFFF" filter="url(#f145n6no9fhb5m)" height="46.2656" style="stroke: #000000; stroke-width: 2.0;" width="428" x="13" y="1498.6641"/><line style="stroke: #A80036; stroke-width: 1.0;" x1="55" x2="55" y1="86.2969" y2="96.2969"/><line style="stroke: #A80036; stroke-width: 1.0; stroke-dasharray: 1.0,4.0;" x1="55" x2="55" y1="96.2969" y2="124.2969"/><line style="stroke: #A80036; stroke-width: 1.0;" x1="55" x2="55" y1="124.2969" y2="320.4922"/><line style="stroke: #A80036; stroke-width: 1.0; stroke-dasharray: 1.0,4.0;" x1="55" x2="55" y1="320.4922" y2="348.4922"/><line style="stroke: #A80036; stroke-width: 1.0;" x1="55" x2="55" y1="348.4922" y2="786.2813"/><line style="stroke: #A80036; stroke-width: 1.0; stroke-dasharray: 1.0,4.0;" x1="55" x2="55" y1="786.2813" y2="814.2813"/><line style="stroke: #A80036; stroke-width: 1.0;" x1="55" x2="55" y1="814.2813" y2="1342.8672"/><line style="stroke: #A80036; stroke-width: 1.0; stroke-dasharray: 1.0,4.0;" x1="55" x2="55" y1="1342.8672" y2="1370.8672"/><line style="stroke: #A80036; stroke-width: 1.0;" x1="55" x2="55" y1="1370.8672" y2="1561.9297"/><line style="stroke: #A80036; stroke-width: 1.0;" x1="382" x2="382" y1="86.2969" y2="96.2969"/><line style="stroke: #A80036; stroke-width: 1.0; stroke-dasharray: 1.0,4.0;" x1="382" x2="382" y1="96.2969" y2="124.2969"/><line style="stroke: #A80036; stroke-width: 1.0;" x1="382" x2="382" y1="124.2969" y2="320.4922"/><line style="stroke: #A80036; stroke-width: 1.0; stroke-dasharray: 1.0,4.0;" x1="382" x2="382" y1="320.4922" y2="348.4922"/><line style="stroke: #A80036; stroke-width: 1.0;" x1="382" x2="382" y1="348.4922" y2="786.2813"/><line style="stroke: #A80036; stroke-width: 1.0; stroke-dasharray: 1.0,4.0;" x1="382" x2="382" y1="786.2813" y2="814.2813"/><line style="stroke: #A80036; stroke-width: 1.0;" x1="382" x2="382" y1="814.2813" y2="1342.8672"/><line style="stroke: #A80036; stroke-width: 1.0; stroke-dasharray: 1.0,4.0;" x1="382" x2="382" y1="1342.8672" y2="1370.8672"/><line style="stroke: #A80036; stroke-width: 1.0;" x1="382" x2="382" y1="1370.8672" y2="1561.9297"/><line style="stroke: #A80036; stroke-width: 1.0;" x1="598.5" x2="598.5" y1="86.2969" y2="96.2969"/><line style="stroke: #A80036; stroke-width: 1.0; stroke-dasharray: 1.0,4.0;" x1="598.5" x2="598.5" y1="96.2969" y2="124.2969"/><line style="stroke: #A80036; stroke-width: 1.0;" x1="598.5" x2="598.5" y1="124.2969" y2="320.4922"/><line style="stroke: #A80036; stroke-width: 1.0; stroke-dasharray: 1.0,4.0;" x1="598.5" x2="598.5" y1="320.4922" y2="348.4922"/><line style="stroke: #A80036; stroke-width: 1.0;" x1="598.5" x2="598.5" y1="348.4922" y2="786.2813"/><line style="stroke: #A80036; stroke-width: 1.0; stroke-dasharray: 1.0,4.0;" x1="598.5" x2="598.5" y1="786.2813" y2="814.2813"/><line style="stroke: #A80036; stroke-width: 1.0;" x1="598.5" x2="598.5" y1="814.2813" y2="1342.8672"/><line style="stroke: #A80036; stroke-width: 1.0; stroke-dasharray: 1.0,4.0;" x1="598.5" x2="598.5" y1="1342.8672" y2="1370.8672"/><line style="stroke: #A80036; stroke-width: 1.0;" x1="598.5" x2="598.5" y1="1370.8672" y2="1561.9297"/><line style="stroke: #A80036; stroke-width: 1.0;" x1="669.5" x2="669.5" y1="86.2969" y2="96.2969"/><line style="stroke: #A80036; stroke-width: 1.0; stroke-dasharray: 1.0,4.0;" x1="669.5" x2="669.5" y1="96.2969" y2="124.2969"/><line style="stroke: #A80036; stroke-width: 1.0;" x1="669.5" x2="669.5" y1="124.2969" y2="320.4922"/><line style="stroke: #A80036; stroke-width: 1.0; stroke-dasharray: 1.0,4.0;" x1="669.5" x2="669.5" y1="320.4922" y2="348.4922"/><line style="stroke: #A80036; stroke-width: 1.0;" x1="669.5" x2="669.5" y1="348.4922" y2="786.2813"/><line style="stroke: #A80036; stroke-width: 1.0; stroke-dasharray: 1.0,4.0;" x1="669.5" x2="669.5" y1="786.2813" y2="814.2813"/><line style="stroke: #A80036; stroke-width: 1.0;" x1="669.5" x2="669.5" y1="814.2813" y2="1342.8672"/><line style="stroke: #A80036; stroke-width: 1.0; stroke-dasharray: 1.0,4.0;" x1="669.5" x2="669.5" y1="1342.8672" y2="1370.8672"/><line style="stroke: #A80036; stroke-width: 1.0;" x1="669.5" x2="669.5" y1="1370.8672" y2="1561.9297"/><rect fill="#FEFECE" filter="url(#f145n6no9fhb5m)" height="30.2969" style="stroke: #A80036; stroke-width: 1.5;" width="61" x="23" y="51"/><text fill="#000000" font-family="sans-serif" font-size="14" lengthAdjust="spacingAndGlyphs" textLength="47" x="30" y="70.9951">entity1</text><rect fill="#FEFECE" filter="url(#f145n6no9fhb5m)" height="30.2969" style="stroke: #A80036; stroke-width: 1.5;" width="93" x="334" y="51"/><text fill="#000000" font-family="sans-serif" font-size="14" lengthAdjust="spacingAndGlyphs" textLength="79" x="341" y="70.9951">middleware</text><text fill="#000000" font-family="sans-serif" font-size="14" lengthAdjust="spacingAndGlyphs" textLength="52" x="569.5" y="82.9951">owner2</text><ellipse cx="598.5" cy="13" fill="#FEFECE" filter="url(#f145n6no9fhb5m)" rx="8" ry="8" style="stroke: #A80036; stroke-width: 2.0;"/><path d="M598.5,21 L598.5,48 M585.5,29 L611.5,29 M598.5,48 L585.5,63 M598.5,48 L611.5,63 " fill="none" filter="url(#f145n6no9fhb5m)" style="stroke: #A80036; stroke-width: 2.0;"/><rect fill="#FEFECE" filter="url(#f145n6no9fhb5m)" height="30.2969" style="stroke: #A80036; stroke-width: 1.5;" width="61" x="637.5" y="51"/><text fill="#000000" font-family="sans-serif" font-size="14" lengthAdjust="spacingAndGlyphs" textLength="47" x="644.5" y="70.9951">entity2</text><path d="M13,131.2969 L248,131.2969 L248,138.2969 L238,148.2969 L13,148.2969 L13,131.2969 " fill="#EEEEEE" style="stroke: #000000; stroke-width: 1.0;"/><rect fill="none" height="121.9297" style="stroke: #000000; stroke-width: 2.0;" width="428" x="13" y="131.2969"/><text fill="#000000" font-family="sans-serif" font-size="13" font-weight="bold" lengthAdjust="spacingAndGlyphs" textLength="190" x="28" y="144.3638">HTTPS POST /entity/follow</text><polygon fill="#A80036" points="370.5,241.2266,380.5,245.2266,370.5,249.2266,374.5,245.2266" style="stroke: #A80036; stroke-width: 1.0;"/><line style="stroke: #A80036; stroke-width: 1.0;" x1="55.5" x2="376.5" y1="245.2266" y2="245.2266"/><text fill="#000000" font-family="sans-serif" font-size="13" font-weight="bold" lengthAdjust="spacingAndGlyphs" textLength="14" x="129.5" y="164.4966">id</text><text fill="#000000" font-family="sans-serif" font-size="13" lengthAdjust="spacingAndGlyphs" textLength="44" x="143.5" y="164.4966">: string</text><text fill="#000000" font-family="sans-serif" font-size="13" font-weight="bold" lengthAdjust="spacingAndGlyphs" textLength="49" x="94.5" y="179.6294">apikey</text><text fill="#000000" font-family="sans-serif" font-size="13" lengthAdjust="spacingAndGlyphs" textLength="44" x="143.5" y="179.6294">: string</text><text fill="#000000" font-family="sans-serif" font-size="13" font-weight="bold" lengthAdjust="spacingAndGlyphs" textLength="15" x="128.5" y="194.7622">to</text><text fill="#000000" font-family="sans-serif" font-size="13" lengthAdjust="spacingAndGlyphs" textLength="44" x="143.5" y="194.7622">: string</text><text fill="#000000" font-family="sans-serif" font-size="13" font-weight="bold" lengthAdjust="spacingAndGlyphs" textLength="37" x="106.5" y="209.895">topic</text><text fill="#000000" font-family="sans-serif" font-size="13" lengthAdjust="spacingAndGlyphs" textLength="44" x="143.5" y="209.895">: string</text><text fill="#000000" font-family="sans-serif" font-size="13" font-weight="bold" lengthAdjust="spacingAndGlyphs" textLength="81" x="62.5" y="225.0278">permission</text><text fill="#000000" font-family="sans-serif" font-size="13" lengthAdjust="spacingAndGlyphs" textLength="44" x="143.5" y="225.0278">: string</text><text fill="#000000" font-family="sans-serif" font-size="13" font-weight="bold" lengthAdjust="spacingAndGlyphs" textLength="53" x="90.5" y="240.1606">validity</text><text fill="#000000" font-family="sans-serif" font-size="13" lengthAdjust="spacingAndGlyphs" textLength="44" x="143.5" y="240.1606">: string</text><path d="M13,267.2266 L167,267.2266 L167,274.2266 L157,284.2266 L13,284.2266 L13,267.2266 " fill="#EEEEEE" style="stroke: #000000; stroke-width: 1.0;"/><rect fill="none" height="46.2656" style="stroke: #000000; stroke-width: 2.0;" width="428" x="13" y="267.2266"/><text fill="#000000" font-family="sans-serif" font-size="13" font-weight="bold" lengthAdjust="spacingAndGlyphs" textLength="109" x="28" y="280.2935">202 ACCEPTED</text><polygon fill="#A80036" points="66.5,301.4922,56.5,305.4922,66.5,309.4922,62.5,305.4922" style="stroke: #A80036; stroke-width: 1.0;"/><line style="stroke: #A80036; stroke-width: 1.0;" x1="60.5" x2="381.5" y1="305.4922" y2="305.4922"/><text fill="#000000" font-family="sans-serif" font-size="13" lengthAdjust="spacingAndGlyphs" textLength="303" x="72.5" y="300.4263">{"follow-id-read": string, "follow-id-write": string}</text><path d="M324,355.4922 L622,355.4922 L622,362.4922 L612,372.4922 L324,372.4922 L324,355.4922 " fill="#EEEEEE" style="stroke: #000000; stroke-width: 1.0;"/><rect fill="none" height="61.3984" style="stroke: #000000; stroke-width: 2.0;" width="313.5" x="324" y="355.4922"/><text fill="#000000" font-family="sans-serif" font-size="13" font-weight="bold" lengthAdjust="spacingAndGlyphs" textLength="253" x="339" y="368.5591">HTTPS GET /owner/follow-requests</text><polygon fill="#A80036" points="393.5,404.8906,383.5,408.8906,393.5,412.8906,389.5,408.8906" style="stroke: #A80036; stroke-width: 1.0;"/><line style="stroke: #A80036; stroke-width: 1.0;" x1="387.5" x2="597.5" y1="408.8906" y2="408.8906"/><text fill="#000000" font-family="sans-serif" font-size="13" font-weight="bold" lengthAdjust="spacingAndGlyphs" textLength="14" x="434.5" y="388.6919">id</text><text fill="#000000" font-family="sans-serif" font-size="13" lengthAdjust="spacingAndGlyphs" textLength="44" x="448.5" y="388.6919">: string</text><text fill="#000000" font-family="sans-serif" font-size="13" font-weight="bold" lengthAdjust="spacingAndGlyphs" textLength="49" x="399.5" y="403.8247">apikey</text><text fill="#000000" font-family="sans-serif" font-size="13" lengthAdjust="spacingAndGlyphs" textLength="44" x="448.5" y="403.8247">: string</text><path d="M324,430.8906 L422,430.8906 L422,437.8906 L412,447.8906 L324,447.8906 L324,430.8906 " fill="#EEEEEE" style="stroke: #000000; stroke-width: 1.0;"/><rect fill="none" height="212.7266" style="stroke: #000000; stroke-width: 2.0;" width="313.5" x="324" y="430.8906"/><text fill="#000000" font-family="sans-serif" font-size="13" font-weight="bold" lengthAdjust="spacingAndGlyphs" textLength="53" x="339" y="443.9575">200 OK</text><polygon fill="#A80036" points="586.5,631.6172,596.5,635.6172,586.5,639.6172,590.5,635.6172" style="stroke: #A80036; stroke-width: 1.0;"/><line style="stroke: #A80036; stroke-width: 1.0;" x1="382.5" x2="592.5" y1="635.6172" y2="635.6172"/><text fill="#000000" font-family="sans-serif" font-size="13" lengthAdjust="spacingAndGlyphs" textLength="5" x="389.5" y="464.0903">[</text><text fill="#000000" font-family="sans-serif" font-size="13" lengthAdjust="spacingAndGlyphs" textLength="8" x="421.5" y="479.2231">{</text><text fill="#000000" font-family="sans-serif" font-size="13" lengthAdjust="spacingAndGlyphs" textLength="109" x="453.5" y="494.356">"follow-id": string,</text><text fill="#000000" font-family="sans-serif" font-size="13" lengthAdjust="spacingAndGlyphs" textLength="88" x="453.5" y="509.4888">"from": string,</text><text fill="#000000" font-family="sans-serif" font-size="13" lengthAdjust="spacingAndGlyphs" textLength="71" x="453.5" y="524.6216">"to": string,</text><text fill="#000000" font-family="sans-serif" font-size="13" lengthAdjust="spacingAndGlyphs" textLength="87" x="453.5" y="539.7544">"time": string,</text><text fill="#000000" font-family="sans-serif" font-size="13" lengthAdjust="spacingAndGlyphs" textLength="128" x="453.5" y="554.8872">"permission": string,</text><text fill="#000000" font-family="sans-serif" font-size="13" lengthAdjust="spacingAndGlyphs" textLength="89" x="453.5" y="570.02">"topic": string,</text><text fill="#000000" font-family="sans-serif" font-size="13" lengthAdjust="spacingAndGlyphs" textLength="98" x="453.5" y="585.1528">"validity": string</text><text fill="#000000" font-family="sans-serif" font-size="13" lengthAdjust="spacingAndGlyphs" textLength="12" x="421.5" y="600.2856">},</text><text fill="#000000" font-family="sans-serif" font-size="13" lengthAdjust="spacingAndGlyphs" textLength="12" x="425.5" y="615.4185">...</text><text fill="#000000" font-family="sans-serif" font-size="13" lengthAdjust="spacingAndGlyphs" textLength="5" x="389.5" y="630.5513">]</text><path d="M324,657.6172 L559,657.6172 L559,664.6172 L549,674.6172 L324,674.6172 L324,657.6172 " fill="#EEEEEE" style="stroke: #000000; stroke-width: 1.0;"/><rect fill="none" height="76.5313" style="stroke: #000000; stroke-width: 2.0;" width="313.5" x="324" y="657.6172"/><text fill="#000000" font-family="sans-serif" font-size="13" font-weight="bold" lengthAdjust="spacingAndGlyphs" textLength="190" x="339" y="670.6841">HTTPS POST /owner/share</text><polygon fill="#A80036" points="393.5,722.1484,383.5,726.1484,393.5,730.1484,389.5,726.1484" style="stroke: #A80036; stroke-width: 1.0;"/><line style="stroke: #A80036; stroke-width: 1.0;" x1="387.5" x2="597.5" y1="726.1484" y2="726.1484"/><text fill="#000000" font-family="sans-serif" font-size="13" font-weight="bold" lengthAdjust="spacingAndGlyphs" textLength="14" x="448.5" y="690.8169">id</text><text fill="#000000" font-family="sans-serif" font-size="13" lengthAdjust="spacingAndGlyphs" textLength="44" x="462.5" y="690.8169">: string</text><text fill="#000000" font-family="sans-serif" font-size="13" font-weight="bold" lengthAdjust="spacingAndGlyphs" textLength="49" x="413.5" y="705.9497">apikey</text><text fill="#000000" font-family="sans-serif" font-size="13" lengthAdjust="spacingAndGlyphs" textLength="44" x="462.5" y="705.9497">: string</text><text fill="#000000" font-family="sans-serif" font-size="13" font-weight="bold" lengthAdjust="spacingAndGlyphs" textLength="63" x="399.5" y="721.0825">follow-id</text><text fill="#000000" font-family="sans-serif" font-size="13" lengthAdjust="spacingAndGlyphs" textLength="44" x="462.5" y="721.0825">: string</text><path d="M324,748.1484 L422,748.1484 L422,755.1484 L412,765.1484 L324,765.1484 L324,748.1484 " fill="#EEEEEE" style="stroke: #000000; stroke-width: 1.0;"/><rect fill="none" height="31.1328" style="stroke: #000000; stroke-width: 2.0;" width="313.5" x="324" y="748.1484"/><text fill="#000000" font-family="sans-serif" font-size="13" font-weight="bold" lengthAdjust="spacingAndGlyphs" textLength="53" x="339" y="761.2153">200 OK</text><polygon fill="#A80036" points="586.5,767.2813,596.5,771.2813,586.5,775.2813,590.5,771.2813" style="stroke: #A80036; stroke-width: 1.0;"/><line style="stroke: #A80036; stroke-width: 1.0;" x1="382.5" x2="592.5" y1="771.2813" y2="771.2813"/><path d="M13,821.2813 L289,821.2813 L289,828.2813 L279,838.2813 L13,838.2813 L13,821.2813 " fill="#EEEEEE" style="stroke: #000000; stroke-width: 1.0;"/><rect fill="none" height="61.3984" style="stroke: #000000; stroke-width: 2.0;" width="428" x="13" y="821.2813"/><text fill="#000000" font-family="sans-serif" font-size="13" font-weight="bold" lengthAdjust="spacingAndGlyphs" textLength="231" x="28" y="834.3481">HTTPS GET /entity/follow-status</text><polygon fill="#A80036" points="370.5,870.6797,380.5,874.6797,370.5,878.6797,374.5,874.6797" style="stroke: #A80036; stroke-width: 1.0;"/><line style="stroke: #A80036; stroke-width: 1.0;" x1="55.5" x2="376.5" y1="874.6797" y2="874.6797"/><text fill="#000000" font-family="sans-serif" font-size="13" font-weight="bold" lengthAdjust="spacingAndGlyphs" textLength="14" x="97.5" y="854.481">id</text><text fill="#000000" font-family="sans-serif" font-size="13" lengthAdjust="spacingAndGlyphs" textLength="44" x="111.5" y="854.481">: string</text><text fill="#000000" font-family="sans-serif" font-size="13" font-weight="bold" lengthAdjust="spacingAndGlyphs" textLength="49" x="62.5" y="869.6138">apikey</text><text fill="#000000" font-family="sans-serif" font-size="13" lengthAdjust="spacingAndGlyphs" textLength="44" x="111.5" y="869.6138">: string</text><path d="M13,896.6797 L111,896.6797 L111,903.6797 L101,913.6797 L13,913.6797 L13,896.6797 " fill="#EEEEEE" style="stroke: #000000; stroke-width: 1.0;"/><rect fill="none" height="227.8594" style="stroke: #000000; stroke-width: 2.0;" width="428" x="13" y="896.6797"/><text fill="#000000" font-family="sans-serif" font-size="13" font-weight="bold" lengthAdjust="spacingAndGlyphs" textLength="53" x="28" y="909.7466">200 OK</text><polygon fill="#A80036" points="66.5,1112.5391,56.5,1116.5391,66.5,1120.5391,62.5,1116.5391" style="stroke: #A80036; stroke-width: 1.0;"/><line style="stroke: #A80036; stroke-width: 1.0;" x1="60.5" x2="381.5" y1="1116.5391" y2="1116.5391"/><text fill="#000000" font-family="sans-serif" font-size="13" lengthAdjust="spacingAndGlyphs" textLength="5" x="72.5" y="929.8794">[</text><text fill="#000000" font-family="sans-serif" font-size="13" lengthAdjust="spacingAndGlyphs" textLength="8" x="104.5" y="945.0122">{</text><text fill="#000000" font-family="sans-serif" font-size="13" lengthAdjust="spacingAndGlyphs" textLength="109" x="136.5" y="960.145">"follow-id": string,</text><text fill="#000000" font-family="sans-serif" font-size="13" lengthAdjust="spacingAndGlyphs" textLength="88" x="136.5" y="975.2778">"from": string,</text><text fill="#000000" font-family="sans-serif" font-size="13" lengthAdjust="spacingAndGlyphs" textLength="71" x="136.5" y="990.4106">"to": string,</text><text fill="#000000" font-family="sans-serif" font-size="13" lengthAdjust="spacingAndGlyphs" textLength="87" x="136.5" y="1005.5435">"time": string,</text><text fill="#000000" font-family="sans-serif" font-size="13" lengthAdjust="spacingAndGlyphs" textLength="128" x="136.5" y="1020.6763">"permission": string,</text><text fill="#000000" font-family="sans-serif" font-size="13" lengthAdjust="spacingAndGlyphs" textLength="89" x="136.5" y="1035.8091">"topic": string,</text><text fill="#000000" font-family="sans-serif" font-size="13" lengthAdjust="spacingAndGlyphs" textLength="102" x="136.5" y="1050.9419">"validity": string,</text><text fill="#000000" font-family="sans-serif" font-size="13" lengthAdjust="spacingAndGlyphs" textLength="94" x="136.5" y="1066.0747">"status": string</text><text fill="#000000" font-family="sans-serif" font-size="13" lengthAdjust="spacingAndGlyphs" textLength="12" x="104.5" y="1081.2075">},</text><text fill="#000000" font-family="sans-serif" font-size="13" lengthAdjust="spacingAndGlyphs" textLength="12" x="108.5" y="1096.3403">...</text><text fill="#000000" font-family="sans-serif" font-size="13" lengthAdjust="spacingAndGlyphs" textLength="5" x="72.5" y="1111.4731">]</text><path d="M324,1138.5391 L569,1138.5391 L569,1145.5391 L559,1155.5391 L324,1155.5391 L324,1138.5391 " fill="#EEEEEE" style="stroke: #000000; stroke-width: 1.0;"/><rect fill="none" height="152.1953" style="stroke: #000000; stroke-width: 2.0;" width="388.5" x="324" y="1138.5391"/><text fill="#000000" font-family="sans-serif" font-size="13" font-weight="bold" lengthAdjust="spacingAndGlyphs" textLength="200" x="339" y="1151.606">HTTPS POST /entity/publish</text><polygon fill="#A80036" points="393.5,1278.7344,383.5,1282.7344,393.5,1286.7344,389.5,1282.7344" style="stroke: #A80036; stroke-width: 1.0;"/><line style="stroke: #A80036; stroke-width: 1.0;" x1="387.5" x2="669" y1="1282.7344" y2="1282.7344"/><text fill="#000000" font-family="sans-serif" font-size="13" font-weight="bold" lengthAdjust="spacingAndGlyphs" textLength="14" x="490.5" y="1171.7388">id</text><text fill="#000000" font-family="sans-serif" font-size="13" lengthAdjust="spacingAndGlyphs" textLength="44" x="504.5" y="1171.7388">: string</text><text fill="#000000" font-family="sans-serif" font-size="13" font-weight="bold" lengthAdjust="spacingAndGlyphs" textLength="49" x="455.5" y="1186.8716">apikey</text><text fill="#000000" font-family="sans-serif" font-size="13" lengthAdjust="spacingAndGlyphs" textLength="44" x="504.5" y="1186.8716">: string</text><text fill="#000000" font-family="sans-serif" font-size="13" font-weight="bold" lengthAdjust="spacingAndGlyphs" textLength="15" x="489.5" y="1202.0044">to</text><text fill="#000000" font-family="sans-serif" font-size="13" lengthAdjust="spacingAndGlyphs" textLength="44" x="504.5" y="1202.0044">: string</text><text fill="#000000" font-family="sans-serif" font-size="13" font-weight="bold" lengthAdjust="spacingAndGlyphs" textLength="54" x="450.5" y="1217.1372">subject</text><text fill="#000000" font-family="sans-serif" font-size="13" lengthAdjust="spacingAndGlyphs" textLength="44" x="504.5" y="1217.1372">: string</text><text fill="#000000" font-family="sans-serif" font-size="13" font-weight="bold" lengthAdjust="spacingAndGlyphs" textLength="105" x="399.5" y="1232.27">message-type</text><text fill="#000000" font-family="sans-serif" font-size="13" lengthAdjust="spacingAndGlyphs" textLength="44" x="504.5" y="1232.27">: string</text><text fill="#000000" font-family="sans-serif" font-size="13" font-weight="bold" lengthAdjust="spacingAndGlyphs" textLength="94" x="410.5" y="1247.4028">content-type</text><text fill="#000000" font-family="sans-serif" font-size="13" lengthAdjust="spacingAndGlyphs" textLength="44" x="504.5" y="1247.4028">: string</text><text fill="#000000" font-family="sans-serif" font-size="13" lengthAdjust="spacingAndGlyphs" textLength="0" x="548.5" y="1262.5356"/><text fill="#000000" font-family="sans-serif" font-size="13" font-weight="bold" lengthAdjust="spacingAndGlyphs" textLength="149" x="399.5" y="1277.6685">&lt;message in body&gt;</text><path d="M324,1304.7344 L478,1304.7344 L478,1311.7344 L468,1321.7344 L324,1321.7344 L324,1304.7344 " fill="#EEEEEE" style="stroke: #000000; stroke-width: 1.0;"/><rect fill="none" height="31.1328" style="stroke: #000000; stroke-width: 2.0;" width="388.5" x="324" y="1304.7344"/><text fill="#000000" font-family="sans-serif" font-size="13" font-weight="bold" lengthAdjust="spacingAndGlyphs" textLength="109" x="339" y="1317.8013">202 ACCEPTED</text><polygon fill="#A80036" points="658,1323.8672,668,1327.8672,658,1331.8672,662,1327.8672" style="stroke: #A80036; stroke-width: 1.0;"/><line style="stroke: #A80036; stroke-width: 1.0;" x1="382.5" x2="664" y1="1327.8672" y2="1327.8672"/><path d="M13,1377.8672 L266,1377.8672 L266,1384.8672 L256,1394.8672 L13,1394.8672 L13,1377.8672 " fill="#EEEEEE" style="stroke: #000000; stroke-width: 1.0;"/><rect fill="none" height="106.7969" style="stroke: #000000; stroke-width: 2.0;" width="428" x="13" y="1377.8672"/><text fill="#000000" font-family="sans-serif" font-size="13" font-weight="bold" lengthAdjust="spacingAndGlyphs" textLength="208" x="28" y="1390.9341">HTTPS GET /entity/subscribe</text><polygon fill="#A80036" points="370.5,1472.6641,380.5,1476.6641,370.5,1480.6641,374.5,1476.6641" style="stroke: #A80036; stroke-width: 1.0;"/><line style="stroke: #A80036; stroke-width: 1.0;" x1="55.5" x2="376.5" y1="1476.6641" y2="1476.6641"/><text fill="#000000" font-family="sans-serif" font-size="13" font-weight="bold" lengthAdjust="spacingAndGlyphs" textLength="14" x="160.5" y="1411.0669">id</text><text fill="#000000" font-family="sans-serif" font-size="13" lengthAdjust="spacingAndGlyphs" textLength="44" x="174.5" y="1411.0669">: string</text><text fill="#000000" font-family="sans-serif" font-size="13" font-weight="bold" lengthAdjust="spacingAndGlyphs" textLength="49" x="125.5" y="1426.1997">apikey</text><text fill="#000000" font-family="sans-serif" font-size="13" lengthAdjust="spacingAndGlyphs" textLength="44" x="174.5" y="1426.1997">: string</text><text fill="#000000" font-family="sans-serif" font-size="13" font-weight="bold" lengthAdjust="spacingAndGlyphs" textLength="15" x="159.5" y="1441.3325">to</text><text fill="#000000" font-family="sans-serif" font-size="13" lengthAdjust="spacingAndGlyphs" textLength="44" x="174.5" y="1441.3325">: string</text><text fill="#000000" font-family="sans-serif" font-size="13" font-weight="bold" lengthAdjust="spacingAndGlyphs" textLength="112" x="62.5" y="1456.4653">num-messages</text><text fill="#000000" font-family="sans-serif" font-size="13" lengthAdjust="spacingAndGlyphs" textLength="44" x="174.5" y="1456.4653">: string</text><text fill="#000000" font-family="sans-serif" font-size="13" font-weight="bold" lengthAdjust="spacingAndGlyphs" textLength="105" x="69.5" y="1471.5981">message-type</text><text fill="#000000" font-family="sans-serif" font-size="13" lengthAdjust="spacingAndGlyphs" textLength="44" x="174.5" y="1471.5981">: string</text><path d="M13,1498.6641 L111,1498.6641 L111,1505.6641 L101,1515.6641 L13,1515.6641 L13,1498.6641 " fill="#EEEEEE" style="stroke: #000000; stroke-width: 1.0;"/><rect fill="none" height="46.2656" style="stroke: #000000; stroke-width: 2.0;" width="428" x="13" y="1498.6641"/><text fill="#000000" font-family="sans-serif" font-size="13" font-weight="bold" lengthAdjust="spacingAndGlyphs" textLength="53" x="28" y="1511.731">200 OK</text><polygon fill="#A80036" points="66.5,1532.9297,56.5,1536.9297,66.5,1540.9297,62.5,1536.9297" style="stroke: #A80036; stroke-width: 1.0;"/><line style="stroke: #A80036; stroke-width: 1.0;" x1="60.5" x2="381.5" y1="1536.9297" y2="1536.9297"/><text fill="#000000" font-family="sans-serif" font-size="13" font-weight="bold" lengthAdjust="spacingAndGlyphs" textLength="268" x="72.5" y="1531.8638">&lt;array of messages in json format&gt;</text><!--
@startuml
hide footbox


...
group HTTPS POST /entity/follow
entity1 -> middleware: **id**: string\r**apikey**: string\r**to**: string\r**topic**: string\r**permission**: string\r**validity**: string
end

group 202 ACCEPTED
middleware -> entity1: {"follow-id-read": string, "follow-id-write": string}
end

...

actor owner2

group HTTPS GET /owner/follow-requests
owner2 -> middleware:**id**: string\r**apikey**: string
end

group 200 OK
middleware -> owner2: [\l\t{\t\r\t\t"follow-id": string,\r\t\t"from": string,\r\t\t"to": string,\r\t\t"time": string,\r\t\t"permission": string,\r\t\t"topic": string,\r\t\t"validity": string\r\t},\l\t ...\l]
end

group HTTPS POST /owner/share
owner2 -> middleware : **id**: string\r**apikey**: string\r**follow-id**: string
end

group 200 OK
middleware -> owner2
end

...
group HTTPS GET /entity/follow-status
entity1 -> middleware: **id**: string\r**apikey**: string
end

group 200 OK
middleware -> entity1: [\l\t{\t\r\t\t"follow-id": string,\r\t\t"from": string,\r\t\t"to": string,\r\t\t"time": string,\r\t\t"permission": string,\r\t\t"topic": string,\r\t\t"validity": string,\r\t\t"status": string\r\t},\l\t ...\l]
end


group HTTPS POST /entity/publish
entity2 -> middleware: **id**: string\r**apikey**: string\r**to**: string\r**subject**: string\r**message-type**: string\r**content-type**: string\r\r**<message in body>**
end

group 202 ACCEPTED
middleware -> entity2:
end

...
group HTTPS GET /entity/subscribe

entity1 -> middleware: **id**: string\r**apikey**: string\r**to**: string\r**num-messages**: string\r**message-type**: string
end

group 200 OK
middleware -> entity1: **<array of messages in json format>**
end
@enduml

PlantUML version 1.2018.13(Mon Nov 26 17:11:51 UTC 2018)
(GPL source distribution)
Java Runtime: Java(TM) SE Runtime Environment
JVM: Java HotSpot(TM) 64-Bit Server VM
Java Version: 1.7.0_25-b15
Operating System: Linux
Default Encoding: UTF-8
Language: en
Country: US
--></g></svg>