<?xml version="1.0" encoding="UTF-8" standalone="no"?>
<svg xmlns="http://www.w3.org/2000/svg" xmlns:xlink="http://www.w3.org/1999/xlink" contentScriptType="application/ecmascript" contentStyleType="text/css" height="599px" preserveAspectRatio="none" style="width:577px;height:599px;" version="1.1" viewBox="0 0 577 599" width="577px" zoomAndPan="magnify"><defs><filter height="300%" id="fbihni85h4q0l" width="300%" x="-1" y="-1"><feGaussianBlur result="blurOut" stdDeviation="2.0"/><feColorMatrix in="blurOut" result="blurOut2" type="matrix" values="0 0 0 0 0 0 0 0 0 0 0 0 0 0 0 0 0 0 .4 0"/><feOffset dx="4.0" dy="4.0" in="blurOut2" result="blurOut3"/><feBlend in="SourceGraphic" in2="blurOut3" mode="normal"/></filter></defs><g><rect fill="#FFFFFF" filter="url(#fbihni85h4q0l)" height="76.5313" style="stroke: #000000; stroke-width: 2.0;" width="313" x="24" y="164.4297"/><rect fill="#FEFECE" filter="url(#fbihni85h4q0l)" height="30.2969" style="stroke: #A80036; stroke-width: 1.5;" width="57" x="443.5" y="247.9609"/><text fill="#000000" font-family="sans-serif" font-size="14" lengthAdjust="spacingAndGlyphs" textLength="43" x="450.5" y="267.9561">owner</text><rect fill="#FFFFFF" filter="url(#fbihni85h4q0l)" height="46.2656" style="stroke: #000000; stroke-width: 2.0;" width="300.5" x="24" y="300.2578"/><rect fill="#FFFFFF" filter="url(#fbihni85h4q0l)" height="76.5313" style="stroke: #000000; stroke-width: 2.0;" width="313" x="207.5" y="388.5234"/><rect fill="#FEFECE" filter="url(#fbihni85h4q0l)" height="30.2969" style="stroke: #A80036; stroke-width: 1.5;" width="52" x="514.5" y="472.0547"/><text fill="#000000" font-family="sans-serif" font-size="14" lengthAdjust="spacingAndGlyphs" textLength="38" x="521.5" y="492.0498">entity</text><rect fill="#FFFFFF" filter="url(#fbihni85h4q0l)" height="46.2656" style="stroke: #000000; stroke-width: 2.0;" width="307" x="207.5" y="524.3516"/><line style="stroke: #A80036; stroke-width: 1.0;" x1="58" x2="58" y1="86.2969" y2="129.4297"/><line style="stroke: #A80036; stroke-width: 1.0; stroke-dasharray: 1.0,4.0;" x1="58" x2="58" y1="129.4297" y2="157.4297"/><line style="stroke: #A80036; stroke-width: 1.0;" x1="58" x2="58" y1="157.4297" y2="353.5234"/><line style="stroke: #A80036; stroke-width: 1.0; stroke-dasharray: 1.0,4.0;" x1="58" x2="58" y1="353.5234" y2="381.5234"/><line style="stroke: #A80036; stroke-width: 1.0;" x1="58" x2="58" y1="381.5234" y2="587.6172"/><line style="stroke: #A80036; stroke-width: 1.0;" x1="265.5" x2="265.5" y1="86.2969" y2="129.4297"/><line style="stroke: #A80036; stroke-width: 1.0; stroke-dasharray: 1.0,4.0;" x1="265.5" x2="265.5" y1="129.4297" y2="157.4297"/><line style="stroke: #A80036; stroke-width: 1.0;" x1="265.5" x2="265.5" y1="157.4297" y2="353.5234"/><line style="stroke: #A80036; stroke-width: 1.0; stroke-dasharray: 1.0,4.0;" x1="265.5" x2="265.5" y1="353.5234" y2="381.5234"/><line style="stroke: #A80036; stroke-width: 1.0;" x1="265.5" x2="265.5" y1="381.5234" y2="587.6172"/><line style="stroke: #A80036; stroke-width: 1.0;" x1="473.5" x2="473.5" y1="280.6094" y2="353.5234"/><line style="stroke: #A80036; stroke-width: 1.0; stroke-dasharray: 1.0,4.0;" x1="473.5" x2="473.5" y1="353.5234" y2="381.5234"/><line style="stroke: #A80036; stroke-width: 1.0;" x1="473.5" x2="473.5" y1="381.5234" y2="587.6172"/><line style="stroke: #A80036; stroke-width: 1.0;" x1="542.5" x2="542.5" y1="504.7031" y2="587.6172"/><text fill="#000000" font-family="sans-serif" font-size="14" lengthAdjust="spacingAndGlyphs" textLength="42" x="34" y="82.9951">admin</text><ellipse cx="58" cy="13" fill="#FEFECE" filter="url(#fbihni85h4q0l)" rx="8" ry="8" style="stroke: #A80036; stroke-width: 2.0;"/><path d="M58,21 L58,48 M45,29 L71,29 M58,48 L45,63 M58,48 L71,63 " fill="none" filter="url(#fbihni85h4q0l)" style="stroke: #A80036; stroke-width: 2.0;"/><rect fill="#FEFECE" filter="url(#fbihni85h4q0l)" height="30.2969" style="stroke: #A80036; stroke-width: 1.5;" width="93" x="217.5" y="51"/><text fill="#000000" font-family="sans-serif" font-size="14" lengthAdjust="spacingAndGlyphs" textLength="79" x="224.5" y="70.9951">middleware</text><polygon fill="#FBFB77" filter="url(#fbihni85h4q0l)" points="18,101.2969,99,101.2969,109,112.2969,99,124.2969,18,124.2969,8,112.2969,18,101.2969" style="stroke: #A80036; stroke-width: 1.0;"/><text fill="#000000" font-family="sans-serif" font-size="13" lengthAdjust="spacingAndGlyphs" textLength="77" x="20" y="117.3638">on localhost</text><path d="M24,164.4297 L332,164.4297 L332,171.4297 L322,181.4297 L24,181.4297 L24,164.4297 " fill="#EEEEEE" style="stroke: #000000; stroke-width: 1.0;"/><rect fill="none" height="76.5313" style="stroke: #000000; stroke-width: 2.0;" width="313" x="24" y="164.4297"/><text fill="#000000" font-family="sans-serif" font-size="13" font-weight="bold" lengthAdjust="spacingAndGlyphs" textLength="263" x="39" y="177.4966">HTTPS POST /admin/reguster-owner</text><polygon fill="#A80036" points="254,228.9609,264,232.9609,254,236.9609,258,232.9609" style="stroke: #A80036; stroke-width: 1.0;"/><line style="stroke: #A80036; stroke-width: 1.0;" x1="58" x2="260" y1="232.9609" y2="232.9609"/><text fill="#000000" font-family="sans-serif" font-size="13" font-weight="bold" lengthAdjust="spacingAndGlyphs" textLength="14" x="100" y="197.6294">id</text><text fill="#000000" font-family="sans-serif" font-size="13" lengthAdjust="spacingAndGlyphs" textLength="44" x="114" y="197.6294">: string</text><text fill="#000000" font-family="sans-serif" font-size="13" font-weight="bold" lengthAdjust="spacingAndGlyphs" textLength="49" x="65" y="212.7622">apikey</text><text fill="#000000" font-family="sans-serif" font-size="13" lengthAdjust="spacingAndGlyphs" textLength="44" x="114" y="212.7622">: string</text><text fill="#000000" font-family="sans-serif" font-size="13" font-weight="bold" lengthAdjust="spacingAndGlyphs" textLength="45" x="69" y="227.895">owner</text><text fill="#000000" font-family="sans-serif" font-size="13" lengthAdjust="spacingAndGlyphs" textLength="44" x="114" y="227.895">: string</text><polygon fill="#A80036" points="431.5,265.0938,441.5,269.0938,431.5,273.0938,435.5,269.0938" style="stroke: #A80036; stroke-width: 1.0;"/><line style="stroke: #A80036; stroke-width: 1.0;" x1="266" x2="437.5" y1="269.0938" y2="269.0938"/><text fill="#000000" font-family="sans-serif" font-size="13" lengthAdjust="spacingAndGlyphs" textLength="25" x="273" y="264.0278">new</text><rect fill="#FEFECE" filter="url(#fbihni85h4q0l)" height="30.2969" style="stroke: #A80036; stroke-width: 1.5;" width="57" x="443.5" y="247.9609"/><text fill="#000000" font-family="sans-serif" font-size="14" lengthAdjust="spacingAndGlyphs" textLength="43" x="450.5" y="267.9561">owner</text><path d="M24,300.2578 L168,300.2578 L168,307.2578 L158,317.2578 L24,317.2578 L24,300.2578 " fill="#EEEEEE" style="stroke: #000000; stroke-width: 1.0;"/><rect fill="none" height="46.2656" style="stroke: #000000; stroke-width: 2.0;" width="300.5" x="24" y="300.2578"/><text fill="#000000" font-family="sans-serif" font-size="13" font-weight="bold" lengthAdjust="spacingAndGlyphs" textLength="99" x="39" y="313.3247">201 CREATED</text><polygon fill="#A80036" points="69,334.5234,59,338.5234,69,342.5234,65,338.5234" style="stroke: #A80036; stroke-width: 1.0;"/><line style="stroke: #A80036; stroke-width: 1.0;" x1="63" x2="265" y1="338.5234" y2="338.5234"/><text fill="#000000" font-family="sans-serif" font-size="13" lengthAdjust="spacingAndGlyphs" textLength="184" x="75" y="333.4575">{"id": string, "apikey": string}</text><path d="M207.5,388.5234 L515.5,388.5234 L515.5,395.5234 L505.5,405.5234 L207.5,405.5234 L207.5,388.5234 " fill="#EEEEEE" style="stroke: #000000; stroke-width: 1.0;"/><rect fill="none" height="76.5313" style="stroke: #000000; stroke-width: 2.0;" width="313" x="207.5" y="388.5234"/><text fill="#000000" font-family="sans-serif" font-size="13" font-weight="bold" lengthAdjust="spacingAndGlyphs" textLength="263" x="222.5" y="401.5903">HTTPS POST /admin/reguster-owner</text><polygon fill="#A80036" points="277,453.0547,267,457.0547,277,461.0547,273,457.0547" style="stroke: #A80036; stroke-width: 1.0;"/><line style="stroke: #A80036; stroke-width: 1.0;" x1="271" x2="473" y1="457.0547" y2="457.0547"/><text fill="#000000" font-family="sans-serif" font-size="13" font-weight="bold" lengthAdjust="spacingAndGlyphs" textLength="14" x="318" y="421.7231">id</text><text fill="#000000" font-family="sans-serif" font-size="13" lengthAdjust="spacingAndGlyphs" textLength="44" x="332" y="421.7231">: string</text><text fill="#000000" font-family="sans-serif" font-size="13" font-weight="bold" lengthAdjust="spacingAndGlyphs" textLength="49" x="283" y="436.856">apikey</text><text fill="#000000" font-family="sans-serif" font-size="13" lengthAdjust="spacingAndGlyphs" textLength="44" x="332" y="436.856">: string</text><text fill="#000000" font-family="sans-serif" font-size="13" font-weight="bold" lengthAdjust="spacingAndGlyphs" textLength="42" x="290" y="451.9888">entity</text><text fill="#000000" font-family="sans-serif" font-size="13" lengthAdjust="spacingAndGlyphs" textLength="44" x="332" y="451.9888">: string</text><polygon fill="#A80036" points="502.5,489.1875,512.5,493.1875,502.5,497.1875,506.5,493.1875" style="stroke: #A80036; stroke-width: 1.0;"/><line style="stroke: #A80036; stroke-width: 1.0;" x1="266" x2="508.5" y1="493.1875" y2="493.1875"/><text fill="#000000" font-family="sans-serif" font-size="13" lengthAdjust="spacingAndGlyphs" textLength="25" x="273" y="488.1216">new</text><rect fill="#FEFECE" filter="url(#fbihni85h4q0l)" height="30.2969" style="stroke: #A80036; stroke-width: 1.5;" width="52" x="514.5" y="472.0547"/><text fill="#000000" font-family="sans-serif" font-size="14" lengthAdjust="spacingAndGlyphs" textLength="38" x="521.5" y="492.0498">entity</text><path d="M207.5,524.3516 L351.5,524.3516 L351.5,531.3516 L341.5,541.3516 L207.5,541.3516 L207.5,524.3516 " fill="#EEEEEE" style="stroke: #000000; stroke-width: 1.0;"/><rect fill="none" height="46.2656" style="stroke: #000000; stroke-width: 2.0;" width="307" x="207.5" y="524.3516"/><text fill="#000000" font-family="sans-serif" font-size="13" font-weight="bold" lengthAdjust="spacingAndGlyphs" textLength="99" x="222.5" y="537.4185">201 CREATED</text><polygon fill="#A80036" points="462,558.6172,472,562.6172,462,566.6172,466,562.6172" style="stroke: #A80036; stroke-width: 1.0;"/><line style="stroke: #A80036; stroke-width: 1.0;" x1="266" x2="468" y1="562.6172" y2="562.6172"/><text fill="#000000" font-family="sans-serif" font-size="13" lengthAdjust="spacingAndGlyphs" textLength="184" x="273" y="557.5513">{"id": string, "apikey": string}</text><!--
@startuml
actor admin
hide footbox

hnote over admin : on localhost
...

group HTTPS POST /admin/reguster-owner
admin -> middleware: **id**: string\r**apikey**: string\r**owner**: string
end

create owner
middleware -> owner : new

group 201 CREATED
middleware -> admin: {"id": string, "apikey": string}
end

...

group HTTPS POST /admin/reguster-owner

owner -> middleware: **id**: string\r**apikey**: string\r**entity**: string

end

create entity
middleware -> entity : new

group 201 CREATED
middleware -> owner: {"id": string, "apikey": string}
end
@enduml

PlantUML version 1.2018.13(Mon Nov 26 17:11:51 UTC 2018)
(GPL source distribution)
Java Runtime: Java(TM) SE Runtime Environment
JVM: Java HotSpot(TM) 64-Bit Server VM
Java Version: 1.7.0_25-b15
Operating System: Linux
Default Encoding: UTF-8
Language: en
Country: US
--></g></svg>