<?xml version="1.0" encoding="UTF-8" standalone="no"?>
<svg xmlns="http://www.w3.org/2000/svg" xmlns:xlink="http://www.w3.org/1999/xlink" contentScriptType="application/ecmascript" contentStyleType="text/css" height="506px" preserveAspectRatio="none" style="width:579px;height:506px;" version="1.1" viewBox="0 0 579 506" width="579px" zoomAndPan="magnify"><defs><filter height="300%" id="f1sgb3y0i4yx4" width="300%" x="-1" y="-1"><feGaussianBlur result="blurOut" stdDeviation="2.0"/><feColorMatrix in="blurOut" result="blurOut2" type="matrix" values="0 0 0 0 0 0 0 0 0 0 0 0 0 0 0 0 0 0 .4 0"/><feOffset dx="4.0" dy="4.0" in="blurOut2" result="blurOut3"/><feBlend in="SourceGraphic" in2="blurOut3" mode="normal"/></filter></defs><g><rect fill="#FEFECE" filter="url(#f1sgb3y0i4yx4)" height="30.2969" style="stroke: #A80036; stroke-width: 1.5;" width="57" x="445.5" y="170.8281"/><text fill="#000000" font-family="sans-serif" font-size="14" lengthAdjust="spacingAndGlyphs" textLength="43" x="452.5" y="190.8232">owner</text><rect fill="#FFFFFF" filter="url(#f1sgb3y0i4yx4)" height="46.2656" style="stroke: #000000; stroke-width: 2.0;" width="313.5" x="13" y="223.125"/><rect fill="#FEFECE" filter="url(#f1sgb3y0i4yx4)" height="30.2969" style="stroke: #A80036; stroke-width: 1.5;" width="52" x="516.5" y="378.9219"/><text fill="#000000" font-family="sans-serif" font-size="14" lengthAdjust="spacingAndGlyphs" textLength="38" x="523.5" y="398.917">entity</text><rect fill="#FFFFFF" filter="url(#f1sgb3y0i4yx4)" height="46.2656" style="stroke: #000000; stroke-width: 2.0;" width="307" x="209.5" y="431.2188"/><line style="stroke: #A80036; stroke-width: 1.0;" x1="47" x2="47" y1="86.2969" y2="276.3906"/><line style="stroke: #A80036; stroke-width: 1.0; stroke-dasharray: 1.0,4.0;" x1="47" x2="47" y1="276.3906" y2="304.3906"/><line style="stroke: #A80036; stroke-width: 1.0;" x1="47" x2="47" y1="304.3906" y2="494.4844"/><line style="stroke: #A80036; stroke-width: 1.0;" x1="267.5" x2="267.5" y1="86.2969" y2="276.3906"/><line style="stroke: #A80036; stroke-width: 1.0; stroke-dasharray: 1.0,4.0;" x1="267.5" x2="267.5" y1="276.3906" y2="304.3906"/><line style="stroke: #A80036; stroke-width: 1.0;" x1="267.5" x2="267.5" y1="304.3906" y2="494.4844"/><line style="stroke: #A80036; stroke-width: 1.0;" x1="475.5" x2="475.5" y1="203.4766" y2="276.3906"/><line style="stroke: #A80036; stroke-width: 1.0; stroke-dasharray: 1.0,4.0;" x1="475.5" x2="475.5" y1="276.3906" y2="304.3906"/><line style="stroke: #A80036; stroke-width: 1.0;" x1="475.5" x2="475.5" y1="304.3906" y2="494.4844"/><line style="stroke: #A80036; stroke-width: 1.0;" x1="544.5" x2="544.5" y1="411.5703" y2="494.4844"/><text fill="#000000" font-family="sans-serif" font-size="14" lengthAdjust="spacingAndGlyphs" textLength="42" x="23" y="82.9951">admin</text><ellipse cx="47" cy="13" fill="#FEFECE" filter="url(#f1sgb3y0i4yx4)" rx="8" ry="8" style="stroke: #A80036; stroke-width: 2.0;"/><path d="M47,21 L47,48 M34,29 L60,29 M47,48 L34,63 M47,48 L60,63 " fill="none" filter="url(#f1sgb3y0i4yx4)" style="stroke: #A80036; stroke-width: 2.0;"/><rect fill="#FEFECE" filter="url(#f1sgb3y0i4yx4)" height="30.2969" style="stroke: #A80036; stroke-width: 1.5;" width="93" x="219.5" y="51"/><text fill="#000000" font-family="sans-serif" font-size="14" lengthAdjust="spacingAndGlyphs" textLength="79" x="226.5" y="70.9951">middleware</text><polygon fill="#A80036" points="256,158.8281,266,162.8281,256,166.8281,260,162.8281" style="stroke: #A80036; stroke-width: 1.0;"/><line style="stroke: #A80036; stroke-width: 1.0;" x1="47" x2="262" y1="162.8281" y2="162.8281"/><text fill="#000000" font-family="sans-serif" font-size="13" font-weight="bold" lengthAdjust="spacingAndGlyphs" textLength="197" x="54" y="112.3638">HTTPS GET /register-owner</text><text fill="#000000" font-family="sans-serif" font-size="13" font-weight="bold" lengthAdjust="spacingAndGlyphs" textLength="14" x="193" y="127.4966">id</text><text fill="#000000" font-family="sans-serif" font-size="13" lengthAdjust="spacingAndGlyphs" textLength="44" x="207" y="127.4966">: string</text><text fill="#000000" font-family="sans-serif" font-size="13" font-weight="bold" lengthAdjust="spacingAndGlyphs" textLength="49" x="158" y="142.6294">apikey</text><text fill="#000000" font-family="sans-serif" font-size="13" lengthAdjust="spacingAndGlyphs" textLength="44" x="207" y="142.6294">: string</text><text fill="#000000" font-family="sans-serif" font-size="13" font-weight="bold" lengthAdjust="spacingAndGlyphs" textLength="45" x="162" y="157.7622">owner</text><text fill="#000000" font-family="sans-serif" font-size="13" lengthAdjust="spacingAndGlyphs" textLength="44" x="207" y="157.7622">: string</text><polygon fill="#A80036" points="433.5,187.9609,443.5,191.9609,433.5,195.9609,437.5,191.9609" style="stroke: #A80036; stroke-width: 1.0;"/><line style="stroke: #A80036; stroke-width: 1.0;" x1="268" x2="439.5" y1="191.9609" y2="191.9609"/><text fill="#000000" font-family="sans-serif" font-size="13" lengthAdjust="spacingAndGlyphs" textLength="25" x="275" y="186.895">new</text><rect fill="#FEFECE" filter="url(#f1sgb3y0i4yx4)" height="30.2969" style="stroke: #A80036; stroke-width: 1.5;" width="57" x="445.5" y="170.8281"/><text fill="#000000" font-family="sans-serif" font-size="14" lengthAdjust="spacingAndGlyphs" textLength="43" x="452.5" y="190.8232">owner</text><path d="M13,223.125 L157,223.125 L157,230.125 L147,240.125 L13,240.125 L13,223.125 " fill="#EEEEEE" style="stroke: #000000; stroke-width: 1.0;"/><rect fill="none" height="46.2656" style="stroke: #000000; stroke-width: 2.0;" width="313.5" x="13" y="223.125"/><text fill="#000000" font-family="sans-serif" font-size="13" font-weight="bold" lengthAdjust="spacingAndGlyphs" textLength="99" x="28" y="236.1919">201 CREATED</text><polygon fill="#A80036" points="58,257.3906,48,261.3906,58,265.3906,54,261.3906" style="stroke: #A80036; stroke-width: 1.0;"/><line style="stroke: #A80036; stroke-width: 1.0;" x1="52" x2="267" y1="261.3906" y2="261.3906"/><text fill="#000000" font-family="sans-serif" font-size="13" lengthAdjust="spacingAndGlyphs" textLength="184" x="64" y="256.3247">{"id": string, "apikey": string}</text><polygon fill="#A80036" points="279,366.9219,269,370.9219,279,374.9219,275,370.9219" style="stroke: #A80036; stroke-width: 1.0;"/><line style="stroke: #A80036; stroke-width: 1.0;" x1="273" x2="475" y1="370.9219" y2="370.9219"/><text fill="#000000" font-family="sans-serif" font-size="13" font-weight="bold" lengthAdjust="spacingAndGlyphs" textLength="147" x="285" y="320.4575">HTTPS GET /register</text><text fill="#000000" font-family="sans-serif" font-size="13" font-weight="bold" lengthAdjust="spacingAndGlyphs" textLength="14" x="374" y="335.5903">id</text><text fill="#000000" font-family="sans-serif" font-size="13" lengthAdjust="spacingAndGlyphs" textLength="44" x="388" y="335.5903">: string</text><text fill="#000000" font-family="sans-serif" font-size="13" font-weight="bold" lengthAdjust="spacingAndGlyphs" textLength="49" x="339" y="350.7231">apikey</text><text fill="#000000" font-family="sans-serif" font-size="13" lengthAdjust="spacingAndGlyphs" textLength="44" x="388" y="350.7231">: string</text><text fill="#000000" font-family="sans-serif" font-size="13" font-weight="bold" lengthAdjust="spacingAndGlyphs" textLength="42" x="346" y="365.856">entity</text><text fill="#000000" font-family="sans-serif" font-size="13" lengthAdjust="spacingAndGlyphs" textLength="44" x="388" y="365.856">: string</text><polygon fill="#A80036" points="504.5,396.0547,514.5,400.0547,504.5,404.0547,508.5,400.0547" style="stroke: #A80036; stroke-width: 1.0;"/><line style="stroke: #A80036; stroke-width: 1.0;" x1="268" x2="510.5" y1="400.0547" y2="400.0547"/><text fill="#000000" font-family="sans-serif" font-size="13" lengthAdjust="spacingAndGlyphs" textLength="25" x="275" y="394.9888">new</text><rect fill="#FEFECE" filter="url(#f1sgb3y0i4yx4)" height="30.2969" style="stroke: #A80036; stroke-width: 1.5;" width="52" x="516.5" y="378.9219"/><text fill="#000000" font-family="sans-serif" font-size="14" lengthAdjust="spacingAndGlyphs" textLength="38" x="523.5" y="398.917">entity</text><path d="M209.5,431.2188 L353.5,431.2188 L353.5,438.2188 L343.5,448.2188 L209.5,448.2188 L209.5,431.2188 " fill="#EEEEEE" style="stroke: #000000; stroke-width: 1.0;"/><rect fill="none" height="46.2656" style="stroke: #000000; stroke-width: 2.0;" width="307" x="209.5" y="431.2188"/><text fill="#000000" font-family="sans-serif" font-size="13" font-weight="bold" lengthAdjust="spacingAndGlyphs" textLength="99" x="224.5" y="444.2856">201 CREATED</text><polygon fill="#A80036" points="464,465.4844,474,469.4844,464,473.4844,468,469.4844" style="stroke: #A80036; stroke-width: 1.0;"/><line style="stroke: #A80036; stroke-width: 1.0;" x1="268" x2="470" y1="469.4844" y2="469.4844"/><text fill="#000000" font-family="sans-serif" font-size="13" lengthAdjust="spacingAndGlyphs" textLength="184" x="275" y="464.4185">{"id": string, "apikey": string}</text><!--
@startuml
actor admin
hide footbox

admin -> middleware: **HTTPS GET /register-owner**\r**id**: string\r**apikey**: string\r**owner**: string

create owner
middleware -> owner : new

group 201 CREATED
middleware -> admin: {"id": string, "apikey": string}
end

...


owner -> middleware: **HTTPS GET /register**\r**id**: string\r**apikey**: string\r**entity**: string

create entity
middleware -> entity : new

group 201 CREATED
middleware -> owner: {"id": string, "apikey": string}
end
@enduml

PlantUML version 1.2018.13(Mon Nov 26 17:11:51 UTC 2018)
(GPL source distribution)
Java Runtime: Java(TM) SE Runtime Environment
JVM: Java HotSpot(TM) 64-Bit Server VM
Java Version: 1.7.0_25-b15
Operating System: Linux
Default Encoding: UTF-8
Language: en
Country: US
--></g></svg>