<?xml version="1.0" encoding="UTF-8" standalone="no"?>
<svg xmlns="http://www.w3.org/2000/svg" xmlns:xlink="http://www.w3.org/1999/xlink" contentScriptType="application/ecmascript" contentStyleType="text/css" height="584px" preserveAspectRatio="none" style="width:577px;height:584px;" version="1.1" viewBox="0 0 577 584" width="577px" zoomAndPan="magnify"><defs><filter height="300%" id="f1m94i3m4gwllb" width="300%" x="-1" y="-1"><feGaussianBlur result="blurOut" stdDeviation="2.0"/><feColorMatrix in="blurOut" result="blurOut2" type="matrix" values="0 0 0 0 0 0 0 0 0 0 0 0 0 0 0 0 0 0 .4 0"/><feOffset dx="4.0" dy="4.0" in="blurOut2" result="blurOut3"/><feBlend in="SourceGraphic" in2="blurOut3" mode="normal"/></filter></defs><g><rect fill="#FFFFFF" filter="url(#f1m94i3m4gwllb)" height="61.3984" style="stroke: #000000; stroke-width: 2.0;" width="308" x="24" y="164.4297"/><rect fill="#FEFECE" filter="url(#f1m94i3m4gwllb)" height="30.2969" style="stroke: #A80036; stroke-width: 1.5;" width="57" x="443.5" y="232.8281"/><text fill="#000000" font-family="sans-serif" font-size="14" lengthAdjust="spacingAndGlyphs" textLength="43" x="450.5" y="252.8232">owner</text><rect fill="#FFFFFF" filter="url(#f1m94i3m4gwllb)" height="46.2656" style="stroke: #000000; stroke-width: 2.0;" width="300.5" x="24" y="285.125"/><rect fill="#FFFFFF" filter="url(#f1m94i3m4gwllb)" height="76.5313" style="stroke: #000000; stroke-width: 2.0;" width="307" x="207.5" y="373.3906"/><rect fill="#FEFECE" filter="url(#f1m94i3m4gwllb)" height="30.2969" style="stroke: #A80036; stroke-width: 1.5;" width="52" x="514.5" y="456.9219"/><text fill="#000000" font-family="sans-serif" font-size="14" lengthAdjust="spacingAndGlyphs" textLength="38" x="521.5" y="476.917">entity</text><rect fill="#FFFFFF" filter="url(#f1m94i3m4gwllb)" height="46.2656" style="stroke: #000000; stroke-width: 2.0;" width="307" x="207.5" y="509.2188"/><line style="stroke: #A80036; stroke-width: 1.0;" x1="58" x2="58" y1="86.2969" y2="129.4297"/><line style="stroke: #A80036; stroke-width: 1.0; stroke-dasharray: 1.0,4.0;" x1="58" x2="58" y1="129.4297" y2="157.4297"/><line style="stroke: #A80036; stroke-width: 1.0;" x1="58" x2="58" y1="157.4297" y2="338.3906"/><line style="stroke: #A80036; stroke-width: 1.0; stroke-dasharray: 1.0,4.0;" x1="58" x2="58" y1="338.3906" y2="366.3906"/><line style="stroke: #A80036; stroke-width: 1.0;" x1="58" x2="58" y1="366.3906" y2="572.4844"/><line style="stroke: #A80036; stroke-width: 1.0;" x1="265.5" x2="265.5" y1="86.2969" y2="129.4297"/><line style="stroke: #A80036; stroke-width: 1.0; stroke-dasharray: 1.0,4.0;" x1="265.5" x2="265.5" y1="129.4297" y2="157.4297"/><line style="stroke: #A80036; stroke-width: 1.0;" x1="265.5" x2="265.5" y1="157.4297" y2="338.3906"/><line style="stroke: #A80036; stroke-width: 1.0; stroke-dasharray: 1.0,4.0;" x1="265.5" x2="265.5" y1="338.3906" y2="366.3906"/><line style="stroke: #A80036; stroke-width: 1.0;" x1="265.5" x2="265.5" y1="366.3906" y2="572.4844"/><line style="stroke: #A80036; stroke-width: 1.0;" x1="473.5" x2="473.5" y1="265.4766" y2="338.3906"/><line style="stroke: #A80036; stroke-width: 1.0; stroke-dasharray: 1.0,4.0;" x1="473.5" x2="473.5" y1="338.3906" y2="366.3906"/><line style="stroke: #A80036; stroke-width: 1.0;" x1="473.5" x2="473.5" y1="366.3906" y2="572.4844"/><line style="stroke: #A80036; stroke-width: 1.0;" x1="542.5" x2="542.5" y1="489.5703" y2="572.4844"/><text fill="#000000" font-family="sans-serif" font-size="14" lengthAdjust="spacingAndGlyphs" textLength="42" x="34" y="82.9951">admin</text><ellipse cx="58" cy="13" fill="#FEFECE" filter="url(#f1m94i3m4gwllb)" rx="8" ry="8" style="stroke: #A80036; stroke-width: 2.0;"/><path d="M58,21 L58,48 M45,29 L71,29 M58,48 L45,63 M58,48 L71,63 " fill="none" filter="url(#f1m94i3m4gwllb)" style="stroke: #A80036; stroke-width: 2.0;"/><rect fill="#FEFECE" filter="url(#f1m94i3m4gwllb)" height="30.2969" style="stroke: #A80036; stroke-width: 1.5;" width="93" x="217.5" y="51"/><text fill="#000000" font-family="sans-serif" font-size="14" lengthAdjust="spacingAndGlyphs" textLength="79" x="224.5" y="70.9951">middleware</text><polygon fill="#FBFB77" filter="url(#f1m94i3m4gwllb)" points="18,101.2969,99,101.2969,109,112.2969,99,124.2969,18,124.2969,8,112.2969,18,101.2969" style="stroke: #A80036; stroke-width: 1.0;"/><text fill="#000000" font-family="sans-serif" font-size="13" lengthAdjust="spacingAndGlyphs" textLength="77" x="20" y="117.3638">on localhost</text><path d="M24,164.4297 L327,164.4297 L327,171.4297 L317,181.4297 L24,181.4297 L24,164.4297 " fill="#EEEEEE" style="stroke: #000000; stroke-width: 1.0;"/><rect fill="none" height="61.3984" style="stroke: #000000; stroke-width: 2.0;" width="308" x="24" y="164.4297"/><text fill="#000000" font-family="sans-serif" font-size="13" font-weight="bold" lengthAdjust="spacingAndGlyphs" textLength="258" x="39" y="177.4966">HTTPS POST /admin/register-owner</text><polygon fill="#A80036" points="254,213.8281,264,217.8281,254,221.8281,258,217.8281" style="stroke: #A80036; stroke-width: 1.0;"/><line style="stroke: #A80036; stroke-width: 1.0;" x1="58" x2="260" y1="217.8281" y2="217.8281"/><text fill="#000000" font-family="sans-serif" font-size="13" font-weight="bold" lengthAdjust="spacingAndGlyphs" textLength="49" x="65" y="197.6294">apikey</text><text fill="#000000" font-family="sans-serif" font-size="13" lengthAdjust="spacingAndGlyphs" textLength="44" x="114" y="197.6294">: string</text><text fill="#000000" font-family="sans-serif" font-size="13" font-weight="bold" lengthAdjust="spacingAndGlyphs" textLength="45" x="69" y="212.7622">owner</text><text fill="#000000" font-family="sans-serif" font-size="13" lengthAdjust="spacingAndGlyphs" textLength="44" x="114" y="212.7622">: string</text><polygon fill="#A80036" points="431.5,249.9609,441.5,253.9609,431.5,257.9609,435.5,253.9609" style="stroke: #A80036; stroke-width: 1.0;"/><line style="stroke: #A80036; stroke-width: 1.0;" x1="266" x2="437.5" y1="253.9609" y2="253.9609"/><text fill="#000000" font-family="sans-serif" font-size="13" lengthAdjust="spacingAndGlyphs" textLength="25" x="273" y="248.895">new</text><rect fill="#FEFECE" filter="url(#f1m94i3m4gwllb)" height="30.2969" style="stroke: #A80036; stroke-width: 1.5;" width="57" x="443.5" y="232.8281"/><text fill="#000000" font-family="sans-serif" font-size="14" lengthAdjust="spacingAndGlyphs" textLength="43" x="450.5" y="252.8232">owner</text><path d="M24,285.125 L168,285.125 L168,292.125 L158,302.125 L24,302.125 L24,285.125 " fill="#EEEEEE" style="stroke: #000000; stroke-width: 1.0;"/><rect fill="none" height="46.2656" style="stroke: #000000; stroke-width: 2.0;" width="300.5" x="24" y="285.125"/><text fill="#000000" font-family="sans-serif" font-size="13" font-weight="bold" lengthAdjust="spacingAndGlyphs" textLength="99" x="39" y="298.1919">201 CREATED</text><polygon fill="#A80036" points="69,319.3906,59,323.3906,69,327.3906,65,323.3906" style="stroke: #A80036; stroke-width: 1.0;"/><line style="stroke: #A80036; stroke-width: 1.0;" x1="63" x2="265" y1="323.3906" y2="323.3906"/><text fill="#000000" font-family="sans-serif" font-size="13" lengthAdjust="spacingAndGlyphs" textLength="184" x="75" y="318.3247">{"id": string, "apikey": string}</text><path d="M207.5,373.3906 L507.5,373.3906 L507.5,380.3906 L497.5,390.3906 L207.5,390.3906 L207.5,373.3906 " fill="#EEEEEE" style="stroke: #000000; stroke-width: 1.0;"/><rect fill="none" height="76.5313" style="stroke: #000000; stroke-width: 2.0;" width="307" x="207.5" y="373.3906"/><text fill="#000000" font-family="sans-serif" font-size="13" font-weight="bold" lengthAdjust="spacingAndGlyphs" textLength="255" x="222.5" y="386.4575">HTTPS POST /admin/register-entity</text><polygon fill="#A80036" points="277,437.9219,267,441.9219,277,445.9219,273,441.9219" style="stroke: #A80036; stroke-width: 1.0;"/><line style="stroke: #A80036; stroke-width: 1.0;" x1="271" x2="473" y1="441.9219" y2="441.9219"/><text fill="#000000" font-family="sans-serif" font-size="13" font-weight="bold" lengthAdjust="spacingAndGlyphs" textLength="14" x="318" y="406.5903">id</text><text fill="#000000" font-family="sans-serif" font-size="13" lengthAdjust="spacingAndGlyphs" textLength="44" x="332" y="406.5903">: string</text><text fill="#000000" font-family="sans-serif" font-size="13" font-weight="bold" lengthAdjust="spacingAndGlyphs" textLength="49" x="283" y="421.7231">apikey</text><text fill="#000000" font-family="sans-serif" font-size="13" lengthAdjust="spacingAndGlyphs" textLength="44" x="332" y="421.7231">: string</text><text fill="#000000" font-family="sans-serif" font-size="13" font-weight="bold" lengthAdjust="spacingAndGlyphs" textLength="42" x="290" y="436.856">entity</text><text fill="#000000" font-family="sans-serif" font-size="13" lengthAdjust="spacingAndGlyphs" textLength="44" x="332" y="436.856">: string</text><polygon fill="#A80036" points="502.5,474.0547,512.5,478.0547,502.5,482.0547,506.5,478.0547" style="stroke: #A80036; stroke-width: 1.0;"/><line style="stroke: #A80036; stroke-width: 1.0;" x1="266" x2="508.5" y1="478.0547" y2="478.0547"/><text fill="#000000" font-family="sans-serif" font-size="13" lengthAdjust="spacingAndGlyphs" textLength="25" x="273" y="472.9888">new</text><rect fill="#FEFECE" filter="url(#f1m94i3m4gwllb)" height="30.2969" style="stroke: #A80036; stroke-width: 1.5;" width="52" x="514.5" y="456.9219"/><text fill="#000000" font-family="sans-serif" font-size="14" lengthAdjust="spacingAndGlyphs" textLength="38" x="521.5" y="476.917">entity</text><path d="M207.5,509.2188 L351.5,509.2188 L351.5,516.2188 L341.5,526.2188 L207.5,526.2188 L207.5,509.2188 " fill="#EEEEEE" style="stroke: #000000; stroke-width: 1.0;"/><rect fill="none" height="46.2656" style="stroke: #000000; stroke-width: 2.0;" width="307" x="207.5" y="509.2188"/><text fill="#000000" font-family="sans-serif" font-size="13" font-weight="bold" lengthAdjust="spacingAndGlyphs" textLength="99" x="222.5" y="522.2856">201 CREATED</text><polygon fill="#A80036" points="462,543.4844,472,547.4844,462,551.4844,466,547.4844" style="stroke: #A80036; stroke-width: 1.0;"/><line style="stroke: #A80036; stroke-width: 1.0;" x1="266" x2="468" y1="547.4844" y2="547.4844"/><text fill="#000000" font-family="sans-serif" font-size="13" lengthAdjust="spacingAndGlyphs" textLength="184" x="273" y="542.4185">{"id": string, "apikey": string}</text><!--
@startuml
actor admin
hide footbox

hnote over admin : on localhost
...

group HTTPS POST /admin/register-owner
admin -> middleware: **apikey**: string\r**owner**: string
end

create owner
middleware -> owner : new

group 201 CREATED
middleware -> admin: {"id": string, "apikey": string}
end

...

group HTTPS POST /admin/register-entity

owner -> middleware: **id**: string\r**apikey**: string\r**entity**: string

end

create entity
middleware -> entity : new

group 201 CREATED
middleware -> owner: {"id": string, "apikey": string}
end
@enduml

PlantUML version 1.2018.13(Mon Nov 26 17:11:51 UTC 2018)
(GPL source distribution)
Java Runtime: Java(TM) SE Runtime Environment
JVM: Java HotSpot(TM) 64-Bit Server VM
Java Version: 1.7.0_25-b15
Operating System: Linux
Default Encoding: UTF-8
Language: en
Country: US
--></g></svg>