<?xml version="1.0" encoding="UTF-8" standalone="no"?><svg xmlns="http://www.w3.org/2000/svg" xmlns:xlink="http://www.w3.org/1999/xlink" contentScriptType="application/ecmascript" contentStyleType="text/css" height="375px" preserveAspectRatio="none" style="width:449px;height:375px;" version="1.1" viewBox="0 0 449 375" width="449px" zoomAndPan="magnify"><defs><filter height="300%" id="f146dog5l22xyg" width="300%" x="-1" y="-1"><feGaussianBlur result="blurOut" stdDeviation="2.0"/><feColorMatrix in="blurOut" result="blurOut2" type="matrix" values="0 0 0 0 0 0 0 0 0 0 0 0 0 0 0 0 0 0 .4 0"/><feOffset dx="4.0" dy="4.0" in="blurOut2" result="blurOut3"/><feBlend in="SourceGraphic" in2="blurOut3" mode="normal"/></filter></defs><g><rect fill="#FFFFFF" filter="url(#f146dog5l22xyg)" height="76.5313" style="stroke: #000000; stroke-width: 2.0;" width="311.5" x="24" y="164.4297"/><rect fill="#FEFECE" filter="url(#f146dog5l22xyg)" height="30.2969" style="stroke: #A80036; stroke-width: 1.5;" width="57" x="381" y="247.9609"/><text fill="#000000" font-family="sans-serif" font-size="14" lengthAdjust="spacingAndGlyphs" textLength="43" x="388" y="267.9561">owner</text><rect fill="#FFFFFF" filter="url(#f146dog5l22xyg)" height="46.2656" style="stroke: #000000; stroke-width: 2.0;" width="311.5" x="24" y="300.2578"/><line style="stroke: #A80036; stroke-width: 1.0;" x1="58" x2="58" y1="86.2969" y2="129.4297"/><line style="stroke: #A80036; stroke-width: 1.0; stroke-dasharray: 1.0,4.0;" x1="58" x2="58" y1="129.4297" y2="157.4297"/><line style="stroke: #A80036; stroke-width: 1.0;" x1="58" x2="58" y1="157.4297" y2="363.5234"/><line style="stroke: #A80036; stroke-width: 1.0;" x1="276.5" x2="276.5" y1="86.2969" y2="129.4297"/><line style="stroke: #A80036; stroke-width: 1.0; stroke-dasharray: 1.0,4.0;" x1="276.5" x2="276.5" y1="129.4297" y2="157.4297"/><line style="stroke: #A80036; stroke-width: 1.0;" x1="276.5" x2="276.5" y1="157.4297" y2="363.5234"/><line style="stroke: #A80036; stroke-width: 1.0;" x1="411" x2="411" y1="280.6094" y2="363.5234"/><text fill="#000000" font-family="sans-serif" font-size="14" lengthAdjust="spacingAndGlyphs" textLength="42" x="34" y="82.9951">admin</text><ellipse cx="58" cy="13" fill="#FEFECE" filter="url(#f146dog5l22xyg)" rx="8" ry="8" style="stroke: #A80036; stroke-width: 2.0;"/><path d="M58,21 L58,48 M45,29 L71,29 M58,48 L45,63 M58,48 L71,63 " fill="none" filter="url(#f146dog5l22xyg)" style="stroke: #A80036; stroke-width: 2.0;"/><rect fill="#FEFECE" filter="url(#f146dog5l22xyg)" height="30.2969" style="stroke: #A80036; stroke-width: 1.5;" width="93" x="228.5" y="51"/><text fill="#000000" font-family="sans-serif" font-size="14" lengthAdjust="spacingAndGlyphs" textLength="79" x="235.5" y="70.9951">middleware</text><polygon fill="#FBFB77" filter="url(#f146dog5l22xyg)" points="18,101.2969,99,101.2969,109,112.2969,99,124.2969,18,124.2969,8,112.2969,18,101.2969" style="stroke: #A80036; stroke-width: 1.0;"/><text fill="#000000" font-family="sans-serif" font-size="13" lengthAdjust="spacingAndGlyphs" textLength="77" x="20" y="117.3638">on localhost</text><path d="M24,164.4297 L327,164.4297 L327,171.4297 L317,181.4297 L24,181.4297 L24,164.4297 " fill="#EEEEEE" style="stroke: #000000; stroke-width: 1.0;"/><rect fill="none" height="76.5313" style="stroke: #000000; stroke-width: 2.0;" width="311.5" x="24" y="164.4297"/><text fill="#000000" font-family="sans-serif" font-size="13" font-weight="bold" lengthAdjust="spacingAndGlyphs" textLength="258" x="39" y="177.4966">HTTPS POST /admin/register-owner</text><polygon fill="#A80036" points="265,228.9609,275,232.9609,265,236.9609,269,232.9609" style="stroke: #A80036; stroke-width: 1.0;"/><line style="stroke: #A80036; stroke-width: 1.0;" x1="58" x2="271" y1="232.9609" y2="232.9609"/><text fill="#000000" font-family="sans-serif" font-size="13" font-weight="bold" lengthAdjust="spacingAndGlyphs" textLength="14" x="100" y="197.6294">id</text><text fill="#000000" font-family="sans-serif" font-size="13" lengthAdjust="spacingAndGlyphs" textLength="44" x="114" y="197.6294">: string</text><text fill="#000000" font-family="sans-serif" font-size="13" font-weight="bold" lengthAdjust="spacingAndGlyphs" textLength="49" x="65" y="212.7622">apikey</text><text fill="#000000" font-family="sans-serif" font-size="13" lengthAdjust="spacingAndGlyphs" textLength="44" x="114" y="212.7622">: string</text><text fill="#000000" font-family="sans-serif" font-size="13" font-weight="bold" lengthAdjust="spacingAndGlyphs" textLength="45" x="69" y="227.895">owner</text><text fill="#000000" font-family="sans-serif" font-size="13" lengthAdjust="spacingAndGlyphs" textLength="44" x="114" y="227.895">: string</text><polygon fill="#A80036" points="369,265.0938,379,269.0938,369,273.0938,373,269.0938" style="stroke: #A80036; stroke-width: 1.0;"/><line style="stroke: #A80036; stroke-width: 1.0;" x1="277" x2="375" y1="269.0938" y2="269.0938"/><text fill="#000000" font-family="sans-serif" font-size="13" lengthAdjust="spacingAndGlyphs" textLength="80" x="284" y="264.0278">new account</text><rect fill="#FEFECE" filter="url(#f146dog5l22xyg)" height="30.2969" style="stroke: #A80036; stroke-width: 1.5;" width="57" x="381" y="247.9609"/><text fill="#000000" font-family="sans-serif" font-size="14" lengthAdjust="spacingAndGlyphs" textLength="43" x="388" y="267.9561">owner</text><path d="M24,300.2578 L168,300.2578 L168,307.2578 L158,317.2578 L24,317.2578 L24,300.2578 " fill="#EEEEEE" style="stroke: #000000; stroke-width: 1.0;"/><rect fill="none" height="46.2656" style="stroke: #000000; stroke-width: 2.0;" width="311.5" x="24" y="300.2578"/><text fill="#000000" font-family="sans-serif" font-size="13" font-weight="bold" lengthAdjust="spacingAndGlyphs" textLength="99" x="39" y="313.3247">201 CREATED</text><polygon fill="#A80036" points="69,334.5234,59,338.5234,69,342.5234,65,338.5234" style="stroke: #A80036; stroke-width: 1.0;"/><line style="stroke: #A80036; stroke-width: 1.0;" x1="63" x2="276" y1="338.5234" y2="338.5234"/><text fill="#000000" font-family="sans-serif" font-size="13" lengthAdjust="spacingAndGlyphs" textLength="13" x="75" y="333.4575">{"</text><text fill="#000000" font-family="sans-serif" font-size="13" font-weight="bold" lengthAdjust="spacingAndGlyphs" textLength="14" x="88" y="333.4575">id</text><text fill="#000000" font-family="sans-serif" font-size="13" lengthAdjust="spacingAndGlyphs" textLength="62" x="102" y="333.4575">": string, "</text><text fill="#000000" font-family="sans-serif" font-size="13" font-weight="bold" lengthAdjust="spacingAndGlyphs" textLength="49" x="164" y="333.4575">apikey</text><text fill="#000000" font-family="sans-serif" font-size="13" lengthAdjust="spacingAndGlyphs" textLength="57" x="213" y="333.4575">": string}</text><!--
@startuml
actor admin
hide footbox

hnote over admin : on localhost
...

group HTTPS POST /admin/register-owner
admin -> middleware: **id**: string\r**apikey**: string\r**owner**: string
end

create owner
middleware -> owner : new account

group 201 CREATED
middleware -> admin: {"**id**": string, "**apikey**": string}
end
@enduml

PlantUML version 1.2018.13(Mon Nov 26 17:11:51 UTC 2018)
(GPL source distribution)
Java Runtime: Java(TM) SE Runtime Environment
JVM: Java HotSpot(TM) 64-Bit Server VM
Java Version: 1.7.0_25-b15
Operating System: Linux
Default Encoding: UTF-8
Language: en
Country: US
--></g></svg>