<?xml version="1.0" encoding="UTF-8" standalone="no"?><svg xmlns="http://www.w3.org/2000/svg" xmlns:xlink="http://www.w3.org/1999/xlink" contentScriptType="application/ecmascript" contentStyleType="text/css" height="314px" preserveAspectRatio="none" style="width:422px;height:314px;" version="1.1" viewBox="0 0 422 314" width="422px" zoomAndPan="magnify"><defs><filter height="300%" id="f1em596w5gekra" width="300%" x="-1" y="-1"><feGaussianBlur result="blurOut" stdDeviation="2.0"/><feColorMatrix in="blurOut" result="blurOut2" type="matrix" values="0 0 0 0 0 0 0 0 0 0 0 0 0 0 0 0 0 0 .4 0"/><feOffset dx="4.0" dy="4.0" in="blurOut2" result="blurOut3"/><feBlend in="SourceGraphic" in2="blurOut3" mode="normal"/></filter></defs><g><rect fill="#FFFFFF" filter="url(#f1em596w5gekra)" height="76.5313" style="stroke: #000000; stroke-width: 2.0;" width="305" x="13" y="103.2969"/><rect fill="#FEFECE" filter="url(#f1em596w5gekra)" height="30.2969" style="stroke: #A80036; stroke-width: 1.5;" width="52" x="359.5" y="186.8281"/><text fill="#000000" font-family="sans-serif" font-size="14" lengthAdjust="spacingAndGlyphs" textLength="38" x="366.5" y="206.8232">entity</text><rect fill="#FFFFFF" filter="url(#f1em596w5gekra)" height="46.2656" style="stroke: #000000; stroke-width: 2.0;" width="301" x="13" y="239.125"/><line style="stroke: #A80036; stroke-width: 1.0; stroke-dasharray: 5.0,5.0;" x1="47" x2="47" y1="86.2969" y2="302.3906"/><line style="stroke: #A80036; stroke-width: 1.0; stroke-dasharray: 5.0,5.0;" x1="255" x2="255" y1="86.2969" y2="302.3906"/><line style="stroke: #A80036; stroke-width: 1.0; stroke-dasharray: 5.0,5.0;" x1="387.5" x2="387.5" y1="219.4766" y2="302.3906"/><text fill="#000000" font-family="sans-serif" font-size="14" lengthAdjust="spacingAndGlyphs" textLength="43" x="23" y="82.9951">owner</text><ellipse cx="47.5" cy="13" fill="#FEFECE" filter="url(#f1em596w5gekra)" rx="8" ry="8" style="stroke: #A80036; stroke-width: 2.0;"/><path d="M47.5,21 L47.5,48 M34.5,29 L60.5,29 M47.5,48 L34.5,63 M47.5,48 L60.5,63 " fill="none" filter="url(#f1em596w5gekra)" style="stroke: #A80036; stroke-width: 2.0;"/><rect fill="#FEFECE" filter="url(#f1em596w5gekra)" height="30.2969" style="stroke: #A80036; stroke-width: 1.5;" width="93" x="207" y="51"/><text fill="#000000" font-family="sans-serif" font-size="14" lengthAdjust="spacingAndGlyphs" textLength="79" x="214" y="70.9951">middleware</text><path d="M13,103.2969 L313,103.2969 L313,110.2969 L303,120.2969 L13,120.2969 L13,103.2969 " fill="#EEEEEE" style="stroke: #000000; stroke-width: 1.0;"/><rect fill="none" height="76.5313" style="stroke: #000000; stroke-width: 2.0;" width="305" x="13" y="103.2969"/><text fill="#000000" font-family="sans-serif" font-size="13" font-weight="bold" lengthAdjust="spacingAndGlyphs" textLength="255" x="28" y="116.3638">HTTPS POST /admin/register-entity</text><polygon fill="#A80036" points="243.5,167.8281,253.5,171.8281,243.5,175.8281,247.5,171.8281" style="stroke: #A80036; stroke-width: 1.0;"/><line style="stroke: #A80036; stroke-width: 1.0;" x1="47.5" x2="249.5" y1="171.8281" y2="171.8281"/><text fill="#000000" font-family="sans-serif" font-size="13" font-weight="bold" lengthAdjust="spacingAndGlyphs" textLength="14" x="89.5" y="136.4966">id</text><text fill="#000000" font-family="sans-serif" font-size="13" lengthAdjust="spacingAndGlyphs" textLength="44" x="103.5" y="136.4966">: string</text><text fill="#000000" font-family="sans-serif" font-size="13" font-weight="bold" lengthAdjust="spacingAndGlyphs" textLength="49" x="54.5" y="151.6294">apikey</text><text fill="#000000" font-family="sans-serif" font-size="13" lengthAdjust="spacingAndGlyphs" textLength="44" x="103.5" y="151.6294">: string</text><text fill="#000000" font-family="sans-serif" font-size="13" font-weight="bold" lengthAdjust="spacingAndGlyphs" textLength="42" x="61.5" y="166.7622">entity</text><text fill="#000000" font-family="sans-serif" font-size="13" lengthAdjust="spacingAndGlyphs" textLength="44" x="103.5" y="166.7622">: string</text><polygon fill="#A80036" points="347.5,203.9609,357.5,207.9609,347.5,211.9609,351.5,207.9609" style="stroke: #A80036; stroke-width: 1.0;"/><line style="stroke: #A80036; stroke-width: 1.0;" x1="255.5" x2="353.5" y1="207.9609" y2="207.9609"/><text fill="#000000" font-family="sans-serif" font-size="13" lengthAdjust="spacingAndGlyphs" textLength="80" x="262.5" y="202.895">new account</text><rect fill="#FEFECE" filter="url(#f1em596w5gekra)" height="30.2969" style="stroke: #A80036; stroke-width: 1.5;" width="52" x="359.5" y="186.8281"/><text fill="#000000" font-family="sans-serif" font-size="14" lengthAdjust="spacingAndGlyphs" textLength="38" x="366.5" y="206.8232">entity</text><path d="M13,239.125 L157,239.125 L157,246.125 L147,256.125 L13,256.125 L13,239.125 " fill="#EEEEEE" style="stroke: #000000; stroke-width: 1.0;"/><rect fill="none" height="46.2656" style="stroke: #000000; stroke-width: 2.0;" width="301" x="13" y="239.125"/><text fill="#000000" font-family="sans-serif" font-size="13" font-weight="bold" lengthAdjust="spacingAndGlyphs" textLength="99" x="28" y="252.1919">201 CREATED</text><polygon fill="#A80036" points="58.5,273.3906,48.5,277.3906,58.5,281.3906,54.5,277.3906" style="stroke: #A80036; stroke-width: 1.0;"/><line style="stroke: #A80036; stroke-width: 1.0;" x1="52.5" x2="254.5" y1="277.3906" y2="277.3906"/><text fill="#000000" font-family="sans-serif" font-size="13" lengthAdjust="spacingAndGlyphs" textLength="184" x="64.5" y="272.3247">{"id": string, "apikey": string}</text><!--
@startuml
actor owner
hide footbox

group HTTPS POST /admin/register-entity

owner -> middleware: **id**: string\r**apikey**: string\r**entity**: string

end

create entity
middleware -> entity : new account

group 201 CREATED
middleware -> owner: {"id": string, "apikey": string}
end
@enduml

PlantUML version 1.2018.13(Mon Nov 26 17:11:51 UTC 2018)
(GPL source distribution)
Java Runtime: Java(TM) SE Runtime Environment
JVM: Java HotSpot(TM) 64-Bit Server VM
Java Version: 1.7.0_25-b15
Operating System: Linux
Default Encoding: UTF-8
Language: en
Country: US
--></g></svg>