<?xml version="1.0" encoding="UTF-8" standalone="no"?><svg xmlns="http://www.w3.org/2000/svg" xmlns:xlink="http://www.w3.org/1999/xlink" contentScriptType="application/ecmascript" contentStyleType="text/css" height="947px" preserveAspectRatio="none" style="width:1185px;height:947px;" version="1.1" viewBox="0 0 1185 947" width="1185px" zoomAndPan="magnify"><defs><filter height="300%" id="ftnqcb5qvsf8p" width="300%" x="-1" y="-1"><feGaussianBlur result="blurOut" stdDeviation="2.0"/><feColorMatrix in="blurOut" result="blurOut2" type="matrix" values="0 0 0 0 0 0 0 0 0 0 0 0 0 0 0 0 0 0 .4 0"/><feOffset dx="4.0" dy="4.0" in="blurOut2" result="blurOut3"/><feBlend in="SourceGraphic" in2="blurOut3" mode="normal"/></filter></defs><g><!--cluster Manage owners--><rect fill="#FFFFFF" filter="url(#ftnqcb5qvsf8p)" height="374" style="stroke: #000000; stroke-width: 1.5;" width="183" x="22" y="562"/><text fill="#000000" font-family="sans-serif" font-size="14" font-weight="bold" lengthAdjust="spacingAndGlyphs" textLength="126" x="50.5" y="576.9951">Manage owners</text><!--cluster Manage entities--><rect fill="#FFFFFF" filter="url(#ftnqcb5qvsf8p)" height="370" style="stroke: #000000; stroke-width: 1.5;" width="179" x="372" y="446"/><text fill="#000000" font-family="sans-serif" font-size="14" font-weight="bold" lengthAdjust="spacingAndGlyphs" textLength="125" x="399" y="460.9951">Manage entities</text><!--cluster Access control--><rect fill="#FFFFFF" filter="url(#ftnqcb5qvsf8p)" height="485" style="stroke: #000000; stroke-width: 1.5;" width="182" x="720" y="293"/><text fill="#000000" font-family="sans-serif" font-size="14" font-weight="bold" lengthAdjust="spacingAndGlyphs" textLength="118" x="752" y="307.9951">Access control</text><!--cluster Data access--><rect fill="#FFFFFF" filter="url(#ftnqcb5qvsf8p)" height="398" style="stroke: #000000; stroke-width: 1.5;" width="239" x="342" y="24"/><text fill="#000000" font-family="sans-serif" font-size="14" font-weight="bold" lengthAdjust="spacingAndGlyphs" textLength="95" x="414" y="38.9951">Data access</text><!--cluster Search--><rect fill="#FFFFFF" filter="url(#ftnqcb5qvsf8p)" height="83" style="stroke: #000000; stroke-width: 1.5;" width="169" x="726.5" y="186"/><text fill="#000000" font-family="sans-serif" font-size="14" font-weight="bold" lengthAdjust="spacingAndGlyphs" textLength="55" x="783.5" y="200.9951">Search</text><ellipse cx="113.4543" cy="613.7909" fill="#FEFECE" filter="url(#ftnqcb5qvsf8p)" rx="69.4543" ry="16.2909" style="stroke: #A80036; stroke-width: 1.5;"/><text fill="#000000" font-family="sans-serif" font-size="14" lengthAdjust="spacingAndGlyphs" textLength="105" x="60.9543" y="618.4393">Register owner</text><ellipse cx="113.5253" cy="683.0051" fill="#FEFECE" filter="url(#ftnqcb5qvsf8p)" rx="75.5253" ry="17.5051" style="stroke: #A80036; stroke-width: 1.5;"/><text fill="#000000" font-family="sans-serif" font-size="14" lengthAdjust="spacingAndGlyphs" textLength="120" x="53.5253" y="687.6535">Deregister owner</text><ellipse cx="113.3742" cy="750.7748" fill="#FEFECE" filter="url(#ftnqcb5qvsf8p)" rx="61.8742" ry="14.7748" style="stroke: #A80036; stroke-width: 1.5;"/><text fill="#000000" font-family="sans-serif" font-size="14" lengthAdjust="spacingAndGlyphs" textLength="85" x="70.8742" y="755.4233">Block owner</text><ellipse cx="113.6672" cy="817.1334" fill="#FEFECE" filter="url(#ftnqcb5qvsf8p)" rx="68.6672" ry="16.1334" style="stroke: #A80036; stroke-width: 1.5;"/><text fill="#000000" font-family="sans-serif" font-size="14" lengthAdjust="spacingAndGlyphs" textLength="103" x="62.1672" y="821.7819">Unblock owner</text><ellipse cx="113.2811" cy="893.8271" fill="#FEFECE" filter="url(#ftnqcb5qvsf8p)" rx="63.2811" ry="25.3271" style="stroke: #A80036; stroke-width: 1.5;"/><text fill="#000000" font-family="sans-serif" font-size="14" lengthAdjust="spacingAndGlyphs" textLength="88" x="69.2811" y="891.3625">Reset owner</text><text fill="#000000" font-family="sans-serif" font-size="14" lengthAdjust="spacingAndGlyphs" textLength="76" x="75.2811" y="907.6594">credentials</text><ellipse cx="461.4975" cy="583.8995" fill="#FEFECE" filter="url(#ftnqcb5qvsf8p)" rx="67.4975" ry="15.8995" style="stroke: #A80036; stroke-width: 1.5;"/><text fill="#000000" font-family="sans-serif" font-size="14" lengthAdjust="spacingAndGlyphs" textLength="100" x="411.4975" y="588.5479">Register entity</text><ellipse cx="461.4711" cy="652.0942" fill="#FEFECE" filter="url(#ftnqcb5qvsf8p)" rx="73.4711" ry="17.0942" style="stroke: #A80036; stroke-width: 1.5;"/><text fill="#000000" font-family="sans-serif" font-size="14" lengthAdjust="spacingAndGlyphs" textLength="115" x="403.9711" y="656.7427">Deregister entity</text><ellipse cx="461.5685" cy="719.0236" fill="#FEFECE" filter="url(#ftnqcb5qvsf8p)" rx="59.5685" ry="14.5236" style="stroke: #A80036; stroke-width: 1.5;"/><text fill="#000000" font-family="sans-serif" font-size="14" lengthAdjust="spacingAndGlyphs" textLength="80" x="421.5685" y="723.6721">Block entity</text><ellipse cx="461.7254" cy="784.2451" fill="#FEFECE" filter="url(#ftnqcb5qvsf8p)" rx="66.7254" ry="15.7451" style="stroke: #A80036; stroke-width: 1.5;"/><text fill="#000000" font-family="sans-serif" font-size="14" lengthAdjust="spacingAndGlyphs" textLength="98" x="412.7254" y="788.8935">Unblock entity</text><ellipse cx="461.5168" cy="507.0866" fill="#FEFECE" filter="url(#ftnqcb5qvsf8p)" rx="60.5168" ry="25.5866" style="stroke: #A80036; stroke-width: 1.5;"/><text fill="#000000" font-family="sans-serif" font-size="14" lengthAdjust="spacingAndGlyphs" textLength="83" x="420.0168" y="504.2449">Reset entity</text><text fill="#000000" font-family="sans-serif" font-size="14" lengthAdjust="spacingAndGlyphs" textLength="76" x="423.5168" y="520.5417">credentials</text><ellipse cx="810.8648" cy="736.7629" fill="#FEFECE" filter="url(#ftnqcb5qvsf8p)" rx="62.3648" ry="24.2629" style="stroke: #A80036; stroke-width: 1.5;"/><text fill="#000000" font-family="sans-serif" font-size="14" lengthAdjust="spacingAndGlyphs" textLength="91" x="765.3648" y="735.9024">Send a follow</text><text fill="#000000" font-family="sans-serif" font-size="14" lengthAdjust="spacingAndGlyphs" textLength="54" x="783.8648" y="752.1993">request</text><ellipse cx="810.9998" cy="351.9531" fill="#FEFECE" filter="url(#ftnqcb5qvsf8p)" rx="74.9998" ry="23.9531" style="stroke: #A80036; stroke-width: 1.5;"/><text fill="#000000" font-family="sans-serif" font-size="14" lengthAdjust="spacingAndGlyphs" textLength="112" x="754.9998" y="351.5802">Approve a follow</text><text fill="#000000" font-family="sans-serif" font-size="14" lengthAdjust="spacingAndGlyphs" textLength="54" x="783.9998" y="367.8771">request</text><ellipse cx="811.0122" cy="426.0236" fill="#FEFECE" filter="url(#ftnqcb5qvsf8p)" rx="44.0122" ry="14.5236" style="stroke: #A80036; stroke-width: 1.5;"/><text fill="#000000" font-family="sans-serif" font-size="14" lengthAdjust="spacingAndGlyphs" textLength="58" x="782.0122" y="430.6721">Unfollow</text><ellipse cx="810.7607" cy="499.8445" fill="#FEFECE" filter="url(#ftnqcb5qvsf8p)" rx="71.7607" ry="24.3445" style="stroke: #A80036; stroke-width: 1.5;"/><text fill="#000000" font-family="sans-serif" font-size="14" lengthAdjust="spacingAndGlyphs" textLength="65" x="778.2607" y="493.8316">Get list of</text><text fill="#000000" font-family="sans-serif" font-size="14" lengthAdjust="spacingAndGlyphs" textLength="105" x="758.2607" y="510.1284">follow requests</text><ellipse cx="811.1326" cy="584.2137" fill="#FEFECE" filter="url(#ftnqcb5qvsf8p)" rx="66.1326" ry="24.2137" style="stroke: #A80036; stroke-width: 1.5;"/><text fill="#000000" font-family="sans-serif" font-size="14" lengthAdjust="spacingAndGlyphs" textLength="56" x="783.1326" y="577.9974">Reject a</text><text fill="#000000" font-family="sans-serif" font-size="14" lengthAdjust="spacingAndGlyphs" textLength="97" x="762.6326" y="594.2943">follow request</text><ellipse cx="810.9711" cy="660.0942" fill="#FEFECE" filter="url(#ftnqcb5qvsf8p)" rx="73.4711" ry="17.0942" style="stroke: #A80036; stroke-width: 1.5;"/><text fill="#000000" font-family="sans-serif" font-size="14" lengthAdjust="spacingAndGlyphs" textLength="115" x="753.4711" y="664.7427">Get follow status</text><ellipse cx="461.3553" cy="138.0236" fill="#FEFECE" filter="url(#ftnqcb5qvsf8p)" rx="38.3553" ry="14.5236" style="stroke: #A80036; stroke-width: 1.5;"/><text fill="#000000" font-family="sans-serif" font-size="14" lengthAdjust="spacingAndGlyphs" textLength="50" x="436.3553" y="142.6721">Publish</text><ellipse cx="461.2904" cy="74.0236" fill="#FEFECE" filter="url(#ftnqcb5qvsf8p)" rx="51.7904" ry="14.5236" style="stroke: #A80036; stroke-width: 1.5;"/><text fill="#000000" font-family="sans-serif" font-size="14" lengthAdjust="spacingAndGlyphs" textLength="69" x="426.7904" y="78.6721">Subscribe</text><ellipse cx="461.7194" cy="295.054" fill="#FEFECE" filter="url(#ftnqcb5qvsf8p)" rx="63.7194" ry="24.054" style="stroke: #A80036; stroke-width: 1.5;"/><text fill="#000000" font-family="sans-serif" font-size="14" lengthAdjust="spacingAndGlyphs" textLength="49" x="437.2194" y="288.5868">Bind to</text><text fill="#000000" font-family="sans-serif" font-size="14" lengthAdjust="spacingAndGlyphs" textLength="94" x="414.7194" y="304.8837">a data stream</text><ellipse cx="461.3159" cy="379.9744" fill="#FEFECE" filter="url(#ftnqcb5qvsf8p)" rx="67.8159" ry="25.4744" style="stroke: #A80036; stroke-width: 1.5;"/><text fill="#000000" font-family="sans-serif" font-size="14" lengthAdjust="spacingAndGlyphs" textLength="84" x="419.3159" y="375.6537">Unbind from</text><text fill="#000000" font-family="sans-serif" font-size="14" lengthAdjust="spacingAndGlyphs" textLength="94" x="414.3159" y="391.9505">a data stream</text><ellipse cx="461.3328" cy="212.2352" fill="#FEFECE" filter="url(#ftnqcb5qvsf8p)" rx="103.3328" ry="24.2352" style="stroke: #A80036; stroke-width: 1.5;"/><text fill="#000000" font-family="sans-serif" font-size="14" lengthAdjust="spacingAndGlyphs" textLength="154" x="384.3328" y="211.4179">Get a list of accessible</text><text fill="#000000" font-family="sans-serif" font-size="14" lengthAdjust="spacingAndGlyphs" textLength="90" x="416.3328" y="227.7148">data streams</text><ellipse cx="810.7758" cy="237.0552" fill="#FEFECE" filter="url(#ftnqcb5qvsf8p)" rx="68.2758" ry="16.0552" style="stroke: #A80036; stroke-width: 1.5;"/><text fill="#000000" font-family="sans-serif" font-size="14" lengthAdjust="spacingAndGlyphs" textLength="102" x="759.7758" y="241.7036">Search catalog</text><!--entity owner--><ellipse cx="650.5" cy="475.5" fill="#FEFECE" filter="url(#ftnqcb5qvsf8p)" rx="8" ry="8" style="stroke: #A80036; stroke-width: 2.0;"/><path d="M650.5,483.5 L650.5,510.5 M637.5,491.5 L663.5,491.5 M650.5,510.5 L637.5,525.5 M650.5,510.5 L663.5,525.5 " fill="none" filter="url(#ftnqcb5qvsf8p)" style="stroke: #A80036; stroke-width: 2.0;"/><text fill="#000000" font-family="sans-serif" font-size="14" lengthAdjust="spacingAndGlyphs" textLength="45" x="628" y="545.4951">Owner</text><!--entity admin--><ellipse cx="273.5" cy="719.5" fill="#FEFECE" filter="url(#ftnqcb5qvsf8p)" rx="8" ry="8" style="stroke: #A80036; stroke-width: 2.0;"/><path d="M273.5,727.5 L273.5,754.5 M260.5,735.5 L286.5,735.5 M273.5,754.5 L260.5,769.5 M273.5,754.5 L286.5,769.5 " fill="none" filter="url(#ftnqcb5qvsf8p)" style="stroke: #A80036; stroke-width: 2.0;"/><text fill="#000000" font-family="sans-serif" font-size="14" lengthAdjust="spacingAndGlyphs" textLength="43" x="252" y="789.4951">Admin</text><!--entity entity--><ellipse cx="811" cy="138" fill="#FEFECE" filter="url(#ftnqcb5qvsf8p)" rx="12" ry="12" style="stroke: #A80036; stroke-width: 2.0;"/><line style="stroke: #A80036; stroke-width: 2.0;" x1="799" x2="823" y1="152" y2="152"/><text fill="#000000" font-family="sans-serif" font-size="14" lengthAdjust="spacingAndGlyphs" textLength="38" x="792" y="166.9951">Entity</text><!--entity a--><ellipse cx="1107.5" cy="468.5" fill="#FEFECE" filter="url(#ftnqcb5qvsf8p)" rx="8" ry="8" style="stroke: #A80036; stroke-width: 2.0;"/><path d="M1107.5,476.5 L1107.5,503.5 M1094.5,484.5 L1120.5,484.5 M1107.5,503.5 L1094.5,518.5 M1107.5,503.5 L1120.5,518.5 " fill="none" filter="url(#ftnqcb5qvsf8p)" style="stroke: #A80036; stroke-width: 2.0;"/><text fill="#000000" font-family="sans-serif" font-size="14" lengthAdjust="spacingAndGlyphs" textLength="131" x="1042" y="538.4951">Autonomous entity</text><!--link Unblock owner to admin--><path d="M162.326,802.925 C178.646,797.612 196.845,791.114 213,784 C226.297,778.144 240.552,770.298 251.775,763.725 " fill="none" id="Unblock owner-admin" style="stroke: #A80036; stroke-width: 1.0;"/><polygon fill="#A80036" points="157.325,804.536,167.1179,805.5847,162.0843,803.0034,164.6656,797.9698,157.325,804.536" style="stroke: #A80036; stroke-width: 1.0;"/><!--link Block owner to admin--><path d="M180.665,751 C206.197,751 233.566,751 251.719,751 " fill="none" id="Block owner-admin" style="stroke: #A80036; stroke-width: 1.0;"/><polygon fill="#A80036" points="175.587,751,184.587,755,180.587,751,184.587,747,175.587,751" style="stroke: #A80036; stroke-width: 1.0;"/><!--link Deregister owner to admin--><path d="M162.661,699.047 C178.856,704.852 196.893,711.77 213,719 C226.269,724.956 240.643,732.65 251.939,739.001 " fill="none" id="Deregister owner-admin" style="stroke: #A80036; stroke-width: 1.0;"/><polygon fill="#A80036" points="157.699,697.282,164.8376,704.0674,162.4097,698.958,167.5191,696.5302,157.699,697.282" style="stroke: #A80036; stroke-width: 1.0;"/><!--link Register owner to admin--><path d="M172.035,626.245 C186.484,631.271 201.213,638.279 213,648 C232.516,664.096 246.979,688.373 256.756,709.315 " fill="none" id="Register owner-admin" style="stroke: #A80036; stroke-width: 1.0;"/><polygon fill="#A80036" points="167.151,624.615,174.4218,631.2584,171.8938,626.1979,176.9544,623.6699,167.151,624.615" style="stroke: #A80036; stroke-width: 1.0;"/><!--link Reset owner\ncredentials to admin--><path d="M169.759,876.9617 C184.913,870.4939 200.572,861.9624 213,851 C231.029,835.097 245.153,812.371 255.107,792.601 " fill="none" id="Reset owner\ncredentials-admin" style="stroke: #A80036; stroke-width: 1.0;"/><polygon fill="#A80036" points="165.076,878.9031,174.9217,879.1524,169.695,876.9887,171.8587,871.762,165.076,878.9031" style="stroke: #A80036; stroke-width: 1.0;"/><!--link admin to Unblock entity--><path d="M295.116,754.658 C320.899,759.232 366.108,767.253 402.749,773.754 " fill="none" id="admin-Unblock entity" style="stroke: #A80036; stroke-width: 1.0;"/><polygon fill="#A80036" points="408.089,774.701,399.9271,769.1889,403.166,773.8267,398.5282,777.0656,408.089,774.701" style="stroke: #A80036; stroke-width: 1.0;"/><!--link admin to Block entity--><path d="M295.116,747.453 C322.001,742.828 370.005,734.569 407.395,728.136 " fill="none" id="admin-Block entity" style="stroke: #A80036; stroke-width: 1.0;"/><polygon fill="#A80036" points="412.364,727.281,402.8164,724.8639,407.4363,728.1282,404.1719,732.7482,412.364,727.281" style="stroke: #A80036; stroke-width: 1.0;"/><!--link Reset entity\ncredentials to owner--><path d="M527.311,507 C562.387,507 603.427,507 627.899,507 " fill="none" id="Reset entity\ncredentials-owner" style="stroke: #A80036; stroke-width: 1.0;"/><polygon fill="#A80036" points="522.182,507,531.182,511,527.182,507,531.182,503,522.182,507" style="stroke: #A80036; stroke-width: 1.0;"/><!--link Register entity to owner--><path d="M520.328,573.025 C542.433,567.665 567.483,560.136 589,550 C602.872,543.465 616.921,533.714 627.984,525.149 " fill="none" id="Register entity-owner" style="stroke: #A80036; stroke-width: 1.0;"/><polygon fill="#A80036" points="515.366,574.204,525.0469,576.0153,520.2306,573.0482,523.1976,568.2319,515.366,574.204" style="stroke: #A80036; stroke-width: 1.0;"/><!--link Deregister entity to owner--><path d="M533.187,643.53 C552.775,638.524 573.025,630.583 589,618 C611.328,600.414 626.548,572.215 636.137,548.642 " fill="none" id="Deregister entity-owner" style="stroke: #A80036; stroke-width: 1.0;"/><polygon fill="#A80036" points="528.224,644.741,537.9154,646.4952,533.0817,643.5566,536.0203,638.7229,528.224,644.741" style="stroke: #A80036; stroke-width: 1.0;"/><!--link Unblock entity to owner--><path d="M531.453,779.513 C552.359,774.901 573.789,766.396 589,751 C617.028,722.63 635.87,610.421 644.359,548.53 " fill="none" id="Unblock entity-owner" style="stroke: #A80036; stroke-width: 1.0;"/><polygon fill="#A80036" points="526.439,780.548,536.062,782.6449,531.3357,779.5367,534.4439,774.8103,526.439,780.548" style="stroke: #A80036; stroke-width: 1.0;"/><!--link Block entity to owner--><path d="M525.272,715.444 C547.755,711.239 571.773,702.958 589,687 C627.698,651.154 641.656,589.803 646.683,548.831 " fill="none" id="Block entity-owner" style="stroke: #A80036; stroke-width: 1.0;"/><polygon fill="#A80036" points="520.2,716.33,529.754,718.722,525.1254,715.4698,528.3776,710.8413,520.2,716.33" style="stroke: #A80036; stroke-width: 1.0;"/><!--link owner to Approve a follow\nrequest--><path d="M665.773,465.486 C675.644,441.942 690.841,413.4 712,394 C722.91,383.997 736.565,376.146 750.187,370.077 " fill="none" id="owner-Approve a follow\nrequest" style="stroke: #A80036; stroke-width: 1.0;"/><polygon fill="#A80036" points="754.801,368.087,744.9527,367.9779,750.2097,370.0669,748.1206,375.3239,754.801,368.087" style="stroke: #A80036; stroke-width: 1.0;"/><!--link owner to Send a follow\nrequest--><path d="M654.956,548.591 C660.487,590.348 674.834,654.183 712,695 C723.012,707.093 738.097,715.842 753.132,722.114 " fill="none" id="owner-Send a follow\nrequest" style="stroke: #A80036; stroke-width: 1.0;"/><polygon fill="#A80036" points="757.792,723.982,750.9284,716.9187,753.1515,722.1204,747.9498,724.3435,757.792,723.982" style="stroke: #A80036; stroke-width: 1.0;"/><!--link owner to Unfollow--><path d="M673.074,486.279 C684.041,476.627 697.989,465.621 712,458 C729.82,448.307 751.072,440.924 769.222,435.706 " fill="none" id="owner-Unfollow" style="stroke: #A80036; stroke-width: 1.0;"/><polygon fill="#A80036" points="774.254,434.291,764.5074,432.8757,769.4405,435.644,766.6722,440.5772,774.254,434.291" style="stroke: #A80036; stroke-width: 1.0;"/><!--link Bind to\na data stream to owner--><path d="M526.575,304.421 C548.716,310.507 572.166,320.521 589,337 C624.035,371.295 638.845,427.192 645.064,465.462 " fill="none" id="Bind to\na data stream-owner" style="stroke: #A80036; stroke-width: 1.0;"/><polygon fill="#A80036" points="521.577,303.107,529.2623,309.2662,526.4123,304.3797,531.2987,301.5297,521.577,303.107" style="stroke: #A80036; stroke-width: 1.0;"/><!--link Unbind from\n a data stream to owner--><path d="M500.171,405.096 C525.379,421.942 559.258,444.686 589,465 C601.987,473.87 616.461,483.913 627.995,491.953 " fill="none" id="Unbind from\n a data stream-owner" style="stroke: #A80036; stroke-width: 1.0;"/><polygon fill="#A80036" points="495.886,402.233,501.1471,410.5589,500.0434,405.0108,505.5915,403.9071,495.886,402.233" style="stroke: #A80036; stroke-width: 1.0;"/><!--link Get a list of accessible\ndata streams to owner--><path d="M551.296,227.842 C565.416,233.76 578.728,241.876 589,253 C617.293,283.639 636.169,401.451 644.549,465.297 " fill="none" id="Get a list of accessible\ndata streams-owner" style="stroke: #A80036; stroke-width: 1.0;"/><polygon fill="#A80036" points="546.48,225.919,553.3533,232.9729,551.1231,227.7742,556.3217,225.544,546.48,225.919" style="stroke: #A80036; stroke-width: 1.0;"/><!--link owner to Get list of\nfollow requests--><path d="M673.206,506.041 C689.207,505.335 711.998,504.328 734.4,503.339 " fill="none" id="owner-Get list of\nfollow requests" style="stroke: #A80036; stroke-width: 1.0;"/><polygon fill="#A80036" points="739.473,503.115,730.3047,499.5174,734.4779,503.3364,730.6589,507.5096,739.473,503.115" style="stroke: #A80036; stroke-width: 1.0;"/><!--link owner to Reject a\nfollow request--><path d="M673.278,520.445 C684.64,527.241 698.874,535.42 712,542 C727.596,549.818 744.992,557.573 760.748,564.25 " fill="none" id="owner-Reject a\nfollow request" style="stroke: #A80036; stroke-width: 1.0;"/><polygon fill="#A80036" points="765.582,566.287,758.8416,559.106,760.9744,564.3454,755.735,566.4782,765.582,566.287" style="stroke: #A80036; stroke-width: 1.0;"/><!--link owner to Get follow status--><path d="M663.783,548.698 C673.231,574.176 688.682,605.664 712,626 C722.758,635.382 736.25,642.214 749.75,647.176 " fill="none" id="owner-Get follow status" style="stroke: #A80036; stroke-width: 1.0;"/><polygon fill="#A80036" points="754.72,648.92,747.5545,642.1631,750.0026,647.2628,744.9029,649.7109,754.72,648.92" style="stroke: #A80036; stroke-width: 1.0;"/><!--link owner to Search catalog--><path d="M656.886,465.315 C663.931,423.459 679.446,358.657 712,312 C729.054,287.559 756.51,267.534 778.028,254.344 " fill="none" id="owner-Search catalog" style="stroke: #A80036; stroke-width: 1.0;"/><polygon fill="#A80036" points="782.524,251.634,772.751,252.8541,778.2417,254.2151,776.8807,259.7058,782.524,251.634" style="stroke: #A80036; stroke-width: 1.0;"/><!--link Publish to entity--><path d="M505.382,138.987 C581.843,140.747 738.685,144.358 791.886,145.583 " fill="none" id="Publish-entity" style="stroke: #A80036; stroke-width: 1.0;"/><polygon fill="#A80036" points="500.019,138.864,508.924,143.0712,505.0177,138.9797,509.1092,135.0734,500.019,138.864" style="stroke: #A80036; stroke-width: 1.0;"/><!--link Subscribe to entity--><path d="M512.167,81.884 C561.15,89.934 638.046,103.304 704,118 C735.026,124.913 770.681,134.722 791.723,140.707 " fill="none" id="Subscribe-entity" style="stroke: #A80036; stroke-width: 1.0;"/><polygon fill="#A80036" points="507.22,81.074,515.4544,86.4771,512.1542,81.8828,516.7485,78.5825,507.22,81.074" style="stroke: #A80036; stroke-width: 1.0;"/><!--link Get a list of accessible\ndata streams to entity--><path d="M547.56,195.845 C629.381,180.305 747.055,157.955 791.8,149.457 " fill="none" id="Get a list of accessible\ndata streams-entity" style="stroke: #A80036; stroke-width: 1.0;"/><polygon fill="#A80036" points="542.224,196.858,551.8123,199.1083,547.1362,195.925,550.3195,191.2489,542.224,196.858" style="stroke: #A80036; stroke-width: 1.0;"/><!--link Search catalog to entity--><path d="M811,215.525 C811,200.417 811,185.31 811,170.202 " fill="none" id="Search catalog-entity" style="stroke: #A80036; stroke-width: 1.0;"/><polygon fill="#A80036" points="811,220.648,815,211.648,811,215.648,807,211.648,811,220.648" style="stroke: #A80036; stroke-width: 1.0;"/><!--link entity to a--><path d="M848.46,162.981 C868.134,173.304 892.001,187.805 910,205 C990.426,281.833 1055.24,397.231 1086.39,458.433 " fill="none" id="entity-a" style="stroke: #A80036; stroke-width: 1.0;"/><polygon fill="none" points="845.043,169.101,830.227,153.952,851.256,156.555,845.043,169.101" style="stroke: #A80036; stroke-width: 1.0;"/><text fill="#000000" font-family="sans-serif" font-size="13" lengthAdjust="spacingAndGlyphs" textLength="30" x="950" y="243.0669">is an</text><!--link Send a follow\nrequest to a--><path d="M863.521,719.188 C879.094,712.699 895.813,704.566 910,695 C974.756,651.339 1036.48,584.536 1072.92,541.563 " fill="none" id="Send a follow\nrequest-a" style="stroke: #A80036; stroke-width: 1.0;"/><polygon fill="#A80036" points="858.729,721.149,868.5734,721.4447,863.357,719.2564,865.5452,714.0399,858.729,721.149" style="stroke: #A80036; stroke-width: 1.0;"/><!--link Approve a follow\nrequest to a--><path d="M862.869,372.952 C878.129,379.465 894.837,386.824 910,394 C954.846,415.225 1003.971,441.725 1041.88,462.919 " fill="none" id="Approve a follow\nrequest-a" style="stroke: #A80036; stroke-width: 1.0;"/><polygon fill="#A80036" points="858.183,370.959,864.8986,378.1632,862.7839,372.9165,868.0306,370.8018,858.183,370.959" style="stroke: #A80036; stroke-width: 1.0;"/><!--link Reject a\nfollow request to a--><path d="M868.655,567.84 C918.166,553.718 990.027,533.222 1041.79,518.458 " fill="none" id="Reject a\nfollow request-a" style="stroke: #A80036; stroke-width: 1.0;"/><polygon fill="#A80036" points="863.635,569.272,873.387,570.6502,868.4433,567.9007,871.1928,562.957,863.635,569.272" style="stroke: #A80036; stroke-width: 1.0;"/><!--link Get follow status to a--><path d="M862.1,645.158 C877.755,639.851 894.879,633.343 910,626 C959.396,602.013 1011.55,568.119 1049.71,541.526 " fill="none" id="Get follow status-a" style="stroke: #A80036; stroke-width: 1.0;"/><polygon fill="#A80036" points="857.293,646.765,867.097,647.7039,862.0348,645.1791,864.5596,640.117,857.293,646.765" style="stroke: #A80036; stroke-width: 1.0;"/><!--link Unfollow to a--><path d="M852.802,435.377 C893.289,444.78 957.063,459.854 1012,474 C1021.64,476.482 1031.81,479.188 1041.76,481.885 " fill="none" id="Unfollow-a" style="stroke: #A80036; stroke-width: 1.0;"/><polygon fill="#A80036" points="847.493,434.146,855.3564,440.0762,852.3637,435.2758,857.1641,432.2831,847.493,434.146" style="stroke: #A80036; stroke-width: 1.0;"/><!--link Get list of\nfollow requests to a--><path d="M888.444,500 C936.072,500 996.672,500 1041.89,500 " fill="none" id="Get list of\nfollow requests-a" style="stroke: #A80036; stroke-width: 1.0;"/><polygon fill="#A80036" points="883.29,500,892.29,504,888.29,500,892.29,496,883.29,500" style="stroke: #A80036; stroke-width: 1.0;"/><!--
@startuml
left to right direction

actor owner as "Owner"
actor admin as "Admin"

rectangle "Manage owners" {

	(Register owner)
	(Deregister owner)
	(Block owner)
	(Unblock owner)
	(Reset owner\ncredentials)

}

rectangle "Manage entities" {

	(Register entity)
	(Deregister entity)
	(Block entity)
	(Unblock entity)
	(Reset entity\ncredentials)
}

rectangle "Access control" {

	(Send a follow\nrequest)
	(Approve a follow\nrequest)
	(Unfollow)
	(Get list of\nfollow requests)
	(Reject a\nfollow request)
	(Get follow status)
}

rectangle "Data access" {

	(Publish)
	(Subscribe)

	(Bind to\na data stream)
	(Unbind from\n a data stream)
	(Get a list of accessible\ndata streams)
}

rectangle "Search" {
	(Search catalog)
}


(Unblock owner) <- - admin
(Block owner) <- - admin
(Deregister owner) <- - admin
(Register owner) <- - admin
(Reset owner\ncredentials) <- - admin


admin - -> (Unblock entity)
admin - -> (Block entity)


(Reset entity\ncredentials) <- - owner
(Register entity) <- - owner
(Deregister entity) <- - owner
(Unblock entity) <- - owner
(Block entity) <- - owner


owner - -> (Approve a follow\nrequest)
owner - -> (Send a follow\nrequest)
owner - -> (Unfollow)


(Bind to\na data stream) <- - owner
(Unbind from\n a data stream) <- - owner
(Get a list of accessible\ndata streams) <- - owner

owner - -> (Get list of\nfollow requests)
owner - -> (Reject a\nfollow request)
owner - -> (Get follow status)

owner - -> (Search catalog)

entity entity as "Entity"

(Publish) <- - entity
(Subscribe) <- - entity
(Get a list of accessible\ndata streams) <- - entity
(Search catalog) <- entity

actor "Autonomous entity" as a
entity <|- - a : is an

(Send a follow\nrequest) <- - - a
(Approve a follow\nrequest) <- - - a
(Reject a\nfollow request) <- - - a
(Get follow status) <- - - a
(Unfollow) <- - - a
(Get list of\nfollow requests) <- - - a
@enduml

PlantUML version 1.2018.14beta12(Unknown compile time)
(GPL source distribution)
Java Runtime: Java(TM) SE Runtime Environment
JVM: Java HotSpot(TM) 64-Bit Server VM
Java Version: 1.7.0_25-b15
Operating System: Linux
Default Encoding: UTF-8
Language: en
Country: US
--></g></svg>