<?xml version="1.0" encoding="UTF-8" standalone="no"?><svg xmlns="http://www.w3.org/2000/svg" xmlns:xlink="http://www.w3.org/1999/xlink" contentScriptType="application/ecmascript" contentStyleType="text/css" height="413px" preserveAspectRatio="none" style="width:792px;height:413px;" version="1.1" viewBox="0 0 792 413" width="792px" zoomAndPan="magnify"><defs><filter height="300%" id="ftjgc7nxyld4m" width="300%" x="-1" y="-1"><feGaussianBlur result="blurOut" stdDeviation="2.0"/><feColorMatrix in="blurOut" result="blurOut2" type="matrix" values="0 0 0 0 0 0 0 0 0 0 0 0 0 0 0 0 0 0 .4 0"/><feOffset dx="4.0" dy="4.0" in="blurOut2" result="blurOut3"/><feBlend in="SourceGraphic" in2="blurOut3" mode="normal"/></filter></defs><g><!--cluster Manage owners--><polygon fill="#FFFFFF" filter="url(#ftjgc7nxyld4m)" points="22,104,22,104.2102,32.1667,103.5857,42.3333,104.1933,52.5,104.3997,62.6667,103.2866,72.8333,103.9223,83,103.5735,93.1667,103.6165,103.3333,103.9318,113.5,103.3086,123.6667,104.5536,133.8333,103.3697,144,103.8022,154.1667,104.4319,164.3333,103.9142,174.5,104.0682,184.6667,103.9681,194.8333,104.1785,205,104,205.2391,104,205.5857,113.8966,205.6711,123.7931,205.6793,133.6897,205.2546,143.5862,205.4636,153.4828,205.7022,163.3793,204.2788,173.2759,205.6785,183.1724,204.7035,193.069,205.5338,202.9655,204.505,212.8621,204.9315,222.7586,205.7416,232.6552,204.9513,242.5517,205.1053,252.4483,205.3386,262.3448,205.4162,272.2414,204.9961,282.1379,205.2872,292.0345,204.4276,301.931,205.2844,311.8276,205.5482,321.7241,205.4445,331.6207,205.613,341.5172,204.5169,351.4138,204.3478,361.3103,204.3786,371.2069,204.9411,381.1034,205,391,205,390.8035,194.8333,391.6814,184.6667,390.8253,174.5,390.6569,164.3333,391.2283,154.1667,390.3332,144,390.4809,133.8333,391.649,123.6667,391.4357,113.5,391.7345,103.3333,390.6782,93.1667,391.3192,83,391.5904,72.8333,390.5276,62.6667,390.9041,52.5,391.126,42.3333,391.6518,32.1667,390.9958,22,391,22.4626,391,21.4462,381.1034,21.3227,371.2069,22.5036,361.3103,21.2831,351.4138,22.509,341.5172,22.2066,331.6207,21.7321,321.7241,21.6462,311.8276,22.4588,301.931,21.7007,292.0345,22.5919,282.1379,21.4473,272.2414,22.6174,262.3448,22.4843,252.4483,22.245,242.5517,22.0472,232.6552,22.7266,222.7586,22.6136,212.8621,22.1693,202.9655,22.2682,193.069,21.8697,183.1724,22.7165,173.2759,22.1549,163.3793,22.1726,153.4828,21.3916,143.5862,21.5948,133.6897,22.5307,123.7931,22.4298,113.8966,22,104" style="stroke: #000000; stroke-width: 1.5;"/><text fill="#000000" font-family="sans-serif" font-size="14" font-weight="bold" lengthAdjust="spacingAndGlyphs" textLength="126" x="50.5" y="118.9951">Manage owners</text><!--cluster Manage entities--><polygon fill="#FFFFFF" filter="url(#ftjgc7nxyld4m)" points="335,50,335,50.2102,344.9444,49.5857,354.8889,50.1933,364.8333,50.3997,374.7778,49.2866,384.7222,49.9223,394.6667,49.5735,404.6111,49.6165,414.5556,49.9318,424.5,49.3086,434.4444,50.5536,444.3889,49.3697,454.3333,49.8022,464.2778,50.4319,474.2222,49.9142,484.1667,50.0682,494.1111,49.9681,504.0556,50.1785,514,50,514.2391,50,514.5857,60.1071,514.6711,70.2143,514.6793,80.3214,514.2546,90.4286,514.4636,100.5357,514.7022,110.6429,513.2788,120.75,514.6785,130.8571,513.7035,140.9643,514.5338,151.0714,513.505,161.1786,513.9315,171.2857,514.7416,181.3929,513.9513,191.5,514.1053,201.6071,514.3386,211.7143,514.4162,221.8214,513.9961,231.9286,514.2872,242.0357,513.4276,252.1429,514.2844,262.25,514.5482,272.3571,514.4445,282.4643,514.613,292.5714,513.5169,302.6786,513.3478,312.7857,513.3786,322.8929,514,333,514,332.9411,504.0556,332.8035,494.1111,333.6814,484.1667,332.8253,474.2222,332.6569,464.2778,333.2283,454.3333,332.3332,444.3889,332.4809,434.4444,333.649,424.5,333.4357,414.5556,333.7345,404.6111,332.6782,394.6667,333.3192,384.7222,333.5904,374.7778,332.5276,364.8333,332.9041,354.8889,333.126,344.9444,333.6518,335,333,334.9958,333,335.4626,322.8929,334.4462,312.7857,334.3227,302.6786,335.5036,292.5714,334.2831,282.4643,335.509,272.3571,335.2066,262.25,334.7321,252.1429,334.6462,242.0357,335.4588,231.9286,334.7007,221.8214,335.5919,211.7143,334.4473,201.6071,335.6174,191.5,335.4843,181.3929,335.245,171.2857,335.0472,161.1786,335.7266,151.0714,335.6136,140.9643,335.1693,130.8571,335.2682,120.75,334.8697,110.6429,335.7165,100.5357,335.1549,90.4286,335.1726,80.3214,334.3916,70.2143,334.5948,60.1071,335,50" style="stroke: #000000; stroke-width: 1.5;"/><text fill="#000000" font-family="sans-serif" font-size="14" font-weight="bold" lengthAdjust="spacingAndGlyphs" textLength="125" x="362" y="64.9951">Manage entities</text><!--cluster Access control--><polygon fill="#FFFFFF" filter="url(#ftjgc7nxyld4m)" points="646,24,646,24.2102,656.3077,23.5857,666.6154,24.1933,676.9231,24.3997,687.2308,23.2866,697.5385,23.9223,707.8462,23.5735,718.1538,23.6165,728.4615,23.9318,738.7692,23.3086,749.0769,24.5536,759.3846,23.3697,769.6923,23.8022,780,24,780.4319,24,779.9142,33.9524,780.0682,43.9048,779.9681,53.8571,780.1785,63.8095,780.2391,73.7619,780.5857,83.7143,780.6711,93.6667,780.6793,103.619,780.2546,113.5714,780.4636,123.5238,780.7022,133.4762,779.2788,143.4286,780.6785,153.381,779.7035,163.3333,780.5338,173.2857,779.505,183.2381,779.9315,193.1905,780.7416,203.1429,779.9513,213.0952,780.1053,223.0476,780,233,780,233.3386,769.6923,233.4162,759.3846,232.9961,749.0769,233.2872,738.7692,232.4276,728.4615,233.2844,718.1538,233.5482,707.8462,233.4445,697.5385,233.613,687.2308,232.5169,676.9231,232.3478,666.6154,232.3786,656.3077,232.9411,646,233,645.8035,233,646.6814,223.0476,645.8253,213.0952,645.6569,203.1429,646.2283,193.1905,645.3332,183.2381,645.4809,173.2857,646.649,163.3333,646.4357,153.381,646.7345,143.4286,645.6782,133.4762,646.3192,123.5238,646.5904,113.5714,645.5276,103.619,645.9041,93.6667,646.126,83.7143,646.6518,73.7619,645.9958,63.8095,646.4626,53.8571,645.4462,43.9048,645.3227,33.9524,646,24" style="stroke: #000000; stroke-width: 1.5;"/><text fill="#000000" font-family="sans-serif" font-size="14" font-weight="bold" lengthAdjust="spacingAndGlyphs" textLength="118" x="654" y="38.9951">Access control</text><!--cluster Data access--><polygon fill="#FFFFFF" filter="url(#ftjgc7nxyld4m)" points="645,257,645,257.2102,654.7143,256.5857,664.4286,257.1933,674.1429,257.3997,683.8571,256.2866,693.5714,256.9223,703.2857,256.5735,713,256.6165,722.7143,256.9318,732.4286,256.3086,742.1429,257.5536,751.8571,256.3697,761.5714,256.8022,771.2857,257.4319,781,257,780.9142,257,781.0682,266.6667,780.9681,276.3333,781.1785,286,781.2391,295.6667,781.5857,305.3333,781.6711,315,781.6793,324.6667,781.2546,334.3333,781.4636,344,781.7022,353.6667,780.2788,363.3333,781.6785,373,780.7035,382.6667,781.5338,392.3333,781,402,781,401.505,771.2857,401.9315,761.5714,402.7416,751.8571,401.9513,742.1429,402.1053,732.4286,402.3386,722.7143,402.4162,713,401.9961,703.2857,402.2872,693.5714,401.4276,683.8571,402.2844,674.1429,402.5482,664.4286,402.4445,654.7143,402.613,645,402,644.5169,402,644.3478,392.3333,644.3786,382.6667,644.9411,373,644.8035,363.3333,645.6814,353.6667,644.8253,344,644.6569,334.3333,645.2283,324.6667,644.3332,315,644.4809,305.3333,645.649,295.6667,645.4357,286,645.7345,276.3333,644.6782,266.6667,645,257" style="stroke: #000000; stroke-width: 1.5;"/><text fill="#000000" font-family="sans-serif" font-size="14" font-weight="bold" lengthAdjust="spacingAndGlyphs" textLength="95" x="665.5" y="271.9951">Data access</text><polygon fill="#FEFECE" filter="url(#ftjgc7nxyld4m)" points="181.6642,158.248,180.2767,161.005,174.9806,163.1028,168.9038,165.1928,163.8872,167.6202,154.4225,169.0042,145.7758,170.4914,135.6272,171.451,124.4456,171.9108,114.7348,172.3821,101.5639,171.6406,93.1591,171.5582,82.289,170.392,71.8301,168.7828,64.5016,167.3475,57.1382,165.3367,51.6292,163.2006,47.0687,160.7475,44.4122,158.2354,42.9152,155.5364,43.6122,152.9509,46.1413,150.4616,51.0985,148.2844,56.406,146.0139,63.0421,143.9664,73.9658,142.9246,80.666,140.9808,92.5409,140.4261,101.6006,139.4687,114.3712,139.715,124.4462,139.7303,133.5433,139.9752,145.0762,141.2968,154.0835,142.5655,161.9388,144.1244,168.8731,146.0345,175.3458,148.3967,178.9773,150.6319,183.1137,153.4911,182.3819,155.6673" style="stroke: #A80036; stroke-width: 1.5;"/><text fill="#000000" font-family="sans-serif" font-size="14" lengthAdjust="spacingAndGlyphs" textLength="105" x="60.9543" y="160.4393">Register owner</text><polygon fill="#FEFECE" filter="url(#ftjgc7nxyld4m)" points="187.6975,227.6454,186.1887,230.6078,180.4296,232.862,173.8217,235.1077,168.3666,237.716,158.0745,239.2032,148.6721,240.8013,137.6363,241.8324,125.4774,242.3264,114.9178,242.8329,100.5955,242.0362,91.4561,241.9476,79.6359,240.6945,68.2627,238.9653,60.2936,237.4231,52.2866,235.2624,46.2961,232.9671,41.3369,230.3311,38.4482,227.6318,36.8204,224.7317,37.5783,221.9534,40.3284,219.2786,45.7189,216.9391,51.4904,214.4994,58.7066,212.2993,70.5851,211.1798,77.871,209.0912,90.7839,208.4952,100.6355,207.4663,114.5223,207.7311,125.4781,207.7475,135.3704,208.0106,147.9113,209.4307,157.706,210.794,166.2478,212.469,173.7883,214.5216,180.8268,217.0598,184.7758,219.4616,189.2737,222.5339,188.4779,224.8723" style="stroke: #A80036; stroke-width: 1.5;"/><text fill="#000000" font-family="sans-serif" font-size="14" lengthAdjust="spacingAndGlyphs" textLength="120" x="53.5253" y="229.6535">Deregister owner</text><polygon fill="#FEFECE" filter="url(#ftjgc7nxyld4m)" points="174.1399,295.0033,172.9038,297.5038,168.1857,299.4063,162.7721,301.3018,158.303,303.5033,149.8712,304.7586,142.1683,306.1074,133.1272,306.9777,123.166,307.3946,114.515,307.8221,102.7815,307.1497,95.294,307.0749,85.6102,306.0173,76.2928,304.5578,69.7641,303.256,63.2043,301.4324,58.2966,299.4951,54.2338,297.2702,51.8672,294.9919,50.5336,292.5441,51.1545,290.1992,53.4076,287.9415,57.8238,285.9669,62.552,283.9078,68.4639,282.0508,78.1954,281.1059,84.1644,279.343,94.7433,278.84,102.8142,277.9716,114.191,278.195,123.1665,278.2089,131.2708,278.4309,141.545,279.6296,149.5693,280.7803,156.5672,282.194,162.7448,283.9264,168.511,286.0687,171.7462,288.096,175.4312,290.6891,174.7792,292.6628" style="stroke: #A80036; stroke-width: 1.5;"/><text fill="#000000" font-family="sans-serif" font-size="14" lengthAdjust="spacingAndGlyphs" textLength="85" x="70.8742" y="297.4233">Block owner</text><polygon fill="#FEFECE" filter="url(#ftjgc7nxyld4m)" points="181.104,361.5668,179.7322,364.2972,174.4961,366.3747,168.4882,368.4445,163.5285,370.8484,154.171,372.2191,145.6224,373.6919,135.5887,374.6422,124.5339,375.0976,114.9331,375.5643,101.9115,374.83,93.602,374.7484,82.8551,373.5935,72.5147,371.9998,65.2692,370.5784,57.9893,368.5871,52.5428,366.4716,48.0339,364.0421,45.4075,361.5544,43.9275,358.8815,44.6166,356.3209,47.117,353.8557,52.018,351.6995,57.2654,349.451,63.8263,347.4233,74.6262,346.3915,81.2505,344.4665,92.9908,343.9172,101.9478,342.969,114.5736,343.213,124.5345,343.2281,133.5285,343.4706,144.9306,344.7794,153.8359,346.0359,161.6021,347.5797,168.4579,349.4714,174.8572,351.8107,178.4476,354.0244,182.5371,356.8559,181.8136,359.0111" style="stroke: #A80036; stroke-width: 1.5;"/><text fill="#000000" font-family="sans-serif" font-size="14" lengthAdjust="spacingAndGlyphs" textLength="103" x="62.1672" y="363.7819">Unblock owner</text><polygon fill="#FEFECE" filter="url(#ftjgc7nxyld4m)" points="490.7857,103.2976,489.4372,105.9884,484.2903,108.0358,478.3847,110.0755,473.5095,112.4446,464.3114,113.7954,455.9084,115.2469,446.0456,116.1834,435.1791,116.6321,425.7419,117.0921,412.942,116.3685,404.7741,116.288,394.2102,115.1499,384.046,113.5793,376.9239,112.1785,369.768,110.2161,364.4143,108.1313,359.9822,105.737,357.4006,103.2853,355.9458,100.6512,356.6232,98.1278,359.0809,95.6983,363.8985,93.5733,369.0565,91.3575,375.5056,89.3591,386.1215,88.3423,392.633,86.4453,404.1733,85.9039,412.9777,84.9694,425.3885,85.2099,435.1797,85.2248,444.0205,85.4637,455.2284,86.7536,463.982,87.9919,471.6159,89.5133,478.3549,91.3775,484.6452,93.6829,488.1744,95.8645,492.1943,98.655,491.4831,100.7789" style="stroke: #A80036; stroke-width: 1.5;"/><text fill="#000000" font-family="sans-serif" font-size="14" lengthAdjust="spacingAndGlyphs" textLength="100" x="374.4975" y="105.5479">Register entity</text><polygon fill="#FEFECE" filter="url(#ftjgc7nxyld4m)" points="496.6259,171.6725,495.158,174.5655,489.5556,176.7667,483.1274,178.9598,477.8207,181.5069,467.8086,182.9592,458.6619,184.5197,447.9263,185.5266,436.098,186.0091,425.8256,186.5036,411.893,185.7256,403.0021,185.6391,391.5034,184.4154,380.4396,182.7268,372.6872,181.2208,364.898,179.1108,359.0705,176.8694,354.2462,174.2952,351.436,171.6593,349.8525,168.8272,350.5898,166.1142,353.2651,163.5022,358.509,161.2175,364.1235,158.8352,371.1434,156.6867,382.6988,155.5935,389.7866,153.5539,402.3482,152.9718,411.9318,151.9671,425.441,152.2257,436.0987,152.2417,445.7219,152.4986,457.9218,153.8854,467.45,155.2167,475.7596,156.8524,483.095,158.8568,489.942,161.3354,493.7836,163.6809,498.1591,166.681,497.385,168.9646" style="stroke: #A80036; stroke-width: 1.5;"/><text fill="#000000" font-family="sans-serif" font-size="14" lengthAdjust="spacingAndGlyphs" textLength="115" x="366.9711" y="173.7427">Deregister entity</text><polygon fill="#FEFECE" filter="url(#ftjgc7nxyld4m)" points="483.0698,238.2142,481.8797,240.6721,477.3375,242.5424,472.1256,244.4056,467.8231,246.5697,459.7055,247.8036,452.2896,249.1295,443.5854,249.985,433.9954,250.3948,425.6668,250.815,414.3705,250.154,407.162,250.0805,397.8391,249.0409,388.8689,247.6062,382.5835,246.3266,376.2682,244.534,371.5433,242.6296,367.6319,240.4425,365.3535,238.203,364.0696,235.7968,364.6674,233.4917,366.8365,231.2725,371.0881,229.3314,375.6402,227.3073,381.3317,225.4819,390.7006,224.5531,396.4472,222.8202,406.6318,222.3257,414.402,221.4721,425.3549,221.6917,433.9959,221.7053,441.7982,221.9236,451.6895,223.1019,459.4148,224.233,466.152,225.6227,472.0993,227.3256,477.6507,229.4316,480.7654,231.4243,484.313,233.9733,483.6853,235.9135" style="stroke: #A80036; stroke-width: 1.5;"/><text fill="#000000" font-family="sans-serif" font-size="14" lengthAdjust="spacingAndGlyphs" textLength="80" x="384.5685" y="240.6721">Block entity</text><polygon fill="#FEFECE" filter="url(#ftjgc7nxyld4m)" points="490.2553,303.6199,488.9222,306.2845,483.8342,308.312,477.9962,310.332,473.1767,312.6781,464.0839,314.0157,455.777,315.4531,446.0271,316.3806,435.2848,316.8249,425.9556,317.2804,413.3021,316.5639,405.2276,316.4842,394.7846,315.3571,384.7366,313.8018,377.696,312.4145,370.622,310.4712,365.3295,308.4066,360.9481,306.0356,358.396,303.6077,356.9579,300.9992,357.6275,298.5003,360.0571,296.0944,364.8196,293.9901,369.9185,291.7957,376.2939,289.8168,386.7884,288.8098,393.2254,286.9312,404.6337,286.3951,413.3374,285.4697,425.6062,285.7078,435.2854,285.7226,444.0251,285.9592,455.1048,287.2366,463.7582,288.4628,471.3048,289.9694,477.9668,291.8156,484.1851,294.0986,487.674,296.259,491.6478,299.0223,490.9448,301.1257" style="stroke: #A80036; stroke-width: 1.5;"/><text fill="#000000" font-family="sans-serif" font-size="14" lengthAdjust="spacingAndGlyphs" textLength="98" x="375.7254" y="305.8935">Unblock entity</text><polygon fill="#FEFECE" filter="url(#ftjgc7nxyld4m)" points="743.508,76.2142,742.883,78.6721,740.4975,80.5424,737.7603,82.4056,735.5007,84.5697,731.2375,85.8036,727.3428,87.1295,722.7716,87.985,717.7351,88.3948,713.361,88.815,707.4285,88.154,703.6427,88.0805,698.7465,87.0409,694.0355,85.6062,690.7345,84.3266,687.4178,82.534,684.9364,80.6296,682.8822,78.4425,681.6857,76.203,681.0114,73.7968,681.3253,71.4917,682.4645,69.2725,684.6974,67.3314,687.088,65.3073,690.0771,63.4819,694.9975,62.5531,698.0155,60.8202,703.3643,60.3257,707.445,59.4721,713.1972,59.6917,717.7354,59.7053,721.833,59.9236,727.0277,61.1019,731.0849,62.233,734.6231,63.6227,737.7465,65.3256,740.662,67.4316,742.2978,69.4243,744.1609,71.9733,743.8313,73.9135" style="stroke: #A80036; stroke-width: 1.5;"/><text fill="#000000" font-family="sans-serif" font-size="14" lengthAdjust="spacingAndGlyphs" textLength="40" x="692.7843" y="78.6721">Share</text><polygon fill="#FEFECE" filter="url(#ftjgc7nxyld4m)" points="745.7127,140.2142,745.0453,142.6721,742.498,144.5424,739.5752,146.4056,737.1624,148.5697,732.6101,149.8036,728.4513,151.1295,723.5701,151.985,718.1921,152.3948,713.5215,152.815,707.1866,152.154,703.1442,152.0805,697.9159,151.0409,692.8855,149.6062,689.3607,148.3266,685.8191,146.534,683.1695,144.6296,680.976,142.4425,679.6983,140.203,678.9783,137.7968,679.3135,135.4917,680.5299,133.2725,682.9142,131.3314,685.4669,129.3073,688.6587,127.4819,693.9127,126.5531,697.1353,124.8202,702.8468,124.3257,707.2043,123.4721,713.3466,123.6917,718.1924,123.7053,722.5679,123.9236,728.1148,125.1019,732.4471,126.233,736.2253,127.6227,739.5605,129.3256,742.6737,131.4316,744.4203,133.4243,746.4098,135.9733,746.0578,137.9135" style="stroke: #A80036; stroke-width: 1.5;"/><text fill="#000000" font-family="sans-serif" font-size="14" lengthAdjust="spacingAndGlyphs" textLength="43" x="691.4056" y="142.6721">Follow</text><polygon fill="#FEFECE" filter="url(#ftjgc7nxyld4m)" points="756.2358,204.2142,755.3565,206.6721,752.0005,208.5424,748.1497,210.4056,744.9708,212.5697,738.9731,213.8036,733.4939,215.1295,727.0628,215.985,719.9772,216.3948,713.8236,216.815,705.4774,216.154,700.1514,216.0805,693.2632,215.0409,686.6355,213.6062,681.9915,212.3266,677.3255,210.534,673.8345,208.6296,670.9446,206.4425,669.2612,204.203,668.3126,201.7968,668.7543,199.4917,670.3569,197.2725,673.4982,195.3314,676.8615,193.3073,681.0667,191.4819,687.9889,190.5531,692.2347,188.8202,699.7597,188.3257,705.5007,187.4721,713.5932,187.6917,719.9776,187.7053,725.7423,187.9236,733.0505,189.1019,738.7583,190.233,743.7361,191.6227,748.1303,193.3256,752.2319,195.4316,754.5332,197.4243,757.1543,199.9733,756.6906,201.9135" style="stroke: #A80036; stroke-width: 1.5;"/><text fill="#000000" font-family="sans-serif" font-size="14" lengthAdjust="spacingAndGlyphs" textLength="58" x="684.0122" y="206.6721">Unfollow</text><polygon fill="#FEFECE" filter="url(#ftjgc7nxyld4m)" points="750.5235,309.2142,749.7572,311.6721,746.8325,313.5424,743.4767,315.4056,740.7063,317.5697,735.4795,318.8036,730.7045,320.1295,725.1,320.985,718.9251,321.3948,713.5625,321.815,706.289,321.154,701.6475,321.0805,695.6447,320.0409,689.8688,318.6062,685.8218,317.3266,681.7554,315.534,678.7132,313.6296,676.1946,311.4425,674.7276,309.203,673.901,306.7968,674.2859,304.4917,675.6825,302.2725,678.42,300.3314,681.3511,298.3073,685.0158,296.4819,691.0483,295.5531,694.7484,293.8202,701.3062,293.3257,706.3093,292.4721,713.3617,292.6917,718.9255,292.7053,723.9493,292.9236,730.3181,294.1019,735.2923,295.233,739.6303,296.6227,743.4597,298.3256,747.0342,300.4316,749.0397,302.4243,751.3239,304.9733,750.9198,306.9135" style="stroke: #A80036; stroke-width: 1.5;"/><text fill="#000000" font-family="sans-serif" font-size="14" lengthAdjust="spacingAndGlyphs" textLength="50" x="687.8553" y="311.6721">Publish</text><polygon fill="#FEFECE" filter="url(#ftjgc7nxyld4m)" points="763.6528,373.2142,762.6181,375.6721,758.669,377.5424,754.1377,379.4056,750.3969,381.5697,743.3393,382.8036,736.8917,384.1295,729.3241,384.985,720.9863,385.3948,713.7452,385.815,703.9239,385.154,697.6567,385.0805,689.5512,384.0409,681.7522,382.6062,676.2875,381.3266,670.7968,379.534,666.6889,377.6296,663.2882,375.4425,661.3074,373.203,660.1911,370.7968,660.7108,368.4917,662.5967,366.2725,666.2932,364.3314,670.2508,362.3073,675.1992,360.4819,683.3448,359.5531,688.341,357.8202,697.1958,357.3257,703.9513,356.4721,713.474,356.6917,720.9868,356.7053,727.7703,356.9236,736.37,358.1019,743.0866,359.233,748.944,360.6227,754.1148,362.3256,758.9413,364.4316,761.6493,366.4243,764.7337,368.9733,764.188,370.9135" style="stroke: #A80036; stroke-width: 1.5;"/><text fill="#000000" font-family="sans-serif" font-size="14" lengthAdjust="spacingAndGlyphs" textLength="69" x="678.2904" y="375.6721">Subscribe</text><!--entity admin--><polygon fill="#FEFECE" filter="url(#ftjgc7nxyld4m)" points="278.0442,254.4459,276.8715,256.0482,275.4845,258.3951,273.5008,259.9767,271.4163,260.8415,269.7542,260.9166,267.618,259.8349,265.6023,259.1283,264.0724,257.6936,263.2699,256.0511,262.7939,254.7433,262.3277,253.0351,261.5709,251.5651,262.1525,250.1298,262.662,248.5576,264.574,247.3142,265.9192,245.7008,267.5843,245.165,269.5637,244.7037,272.1021,244.9778,273.4924,245.6335,275.1089,245.9307,277.0743,247.9443,277.7595,250.0701,278.0571,251.5206,277.72,253.9108" style="stroke: #A80036; stroke-width: 2.0;"/><path d="M270,260.5 L270.1868,260.5 L269.6317,265.9 L270.1718,271.3 L270.3553,276.7 L269.3659,282.1 L270,287.5 M257,268.5 L257,268.4309 L262.2,268.1209 L267.4,268.1591 L272.6,268.4394 L277.8,267.8854 L283,268.5 M270,287.5 L270.3719,287.8223 L266.9766,290.1331 L264.6672,293.3849 L262.4901,296.7515 L259.5424,299.4501 L257,302.5 M270,287.5 L270.0458,287.5397 L272.5785,290.4814 L275.3199,293.6039 L277.9606,296.6392 L280.7934,299.841 L283,302.5 " fill="none" filter="url(#ftjgc7nxyld4m)" style="stroke: #A80036; stroke-width: 2.0;"/><text fill="#000000" font-family="sans-serif" font-size="14" lengthAdjust="spacingAndGlyphs" textLength="42" x="249" y="322.4951">admin</text><!--entity owner--><polygon fill="#FEFECE" filter="url(#ftjgc7nxyld4m)" points="587.5442,157.4459,586.3715,159.0482,584.9845,161.3951,583.0008,162.9767,580.9163,163.8415,579.2542,163.9166,577.118,162.8349,575.1023,162.1283,573.5724,160.6936,572.7699,159.0511,572.2939,157.7433,571.8277,156.0351,571.0709,154.5651,571.6525,153.1298,572.162,151.5576,574.074,150.3142,575.4192,148.7008,577.0843,148.165,579.0637,147.7037,581.6021,147.9778,582.9924,148.6335,584.6089,148.9307,586.5743,150.9443,587.2595,153.0701,587.5571,154.5206,587.22,156.9108" style="stroke: #A80036; stroke-width: 2.0;"/><path d="M579.5,163.5 L579.6868,163.5 L579.1317,168.9 L579.6718,174.3 L579.8553,179.7 L578.8659,185.1 L579.5,190.5 M566.5,171.5 L566.5,171.4309 L571.7,171.1209 L576.9,171.1591 L582.1,171.4394 L587.3,170.8854 L592.5,171.5 M579.5,190.5 L579.8719,190.8223 L576.4766,193.1331 L574.1672,196.3849 L571.9901,199.7515 L569.0424,202.4501 L566.5,205.5 M579.5,190.5 L579.5458,190.5397 L582.0785,193.4814 L584.8199,196.6039 L587.4606,199.6392 L590.2934,202.841 L592.5,205.5 " fill="none" filter="url(#ftjgc7nxyld4m)" style="stroke: #A80036; stroke-width: 2.0;"/><text fill="#000000" font-family="sans-serif" font-size="14" lengthAdjust="spacingAndGlyphs" textLength="43" x="558" y="225.4951">owner</text><!--entity entity--><polygon fill="#FEFECE" filter="url(#ftjgc7nxyld4m)" points="591.5663,301.9189,589.8073,304.3223,587.7268,307.8426,584.7512,310.215,581.6244,311.5123,579.1313,311.6249,575.9269,310.0024,572.9035,308.9425,570.6086,306.7904,569.4048,304.3267,568.6909,302.3649,567.9915,299.8026,566.8564,297.5976,567.7287,295.4447,568.4929,293.0864,571.3611,291.2212,573.3789,288.8012,575.8764,287.9976,578.8456,287.3055,582.6532,287.7167,584.7386,288.7002,587.1633,289.146,590.1115,292.1665,591.1392,295.3552,591.5857,297.5309,591.08,301.1162" style="stroke: #A80036; stroke-width: 2.0;"/><path d="M567.5,313 L567.5,313.0934 L572.3,312.8159 L577.1,313.0859 L581.9,313.1776 L586.7,312.6829 L591.5,313 " fill="#FEFECE" style="stroke: #A80036; stroke-width: 2.0;"/><text fill="#000000" font-family="sans-serif" font-size="14" lengthAdjust="spacingAndGlyphs" textLength="38" x="560.5" y="327.9951">entity</text><!--link Unblock owner to admin--><path d="M164.752,345.5871 L164.782,345.6756 L167.117,344.5899 L169.628,344.0228 L172.0816,343.2869 L174.3468,341.9956 L176.8729,341.473 L176.8607,341.4407 L179.2687,340.3675 L181.7382,339.4572 L184.2504,338.6601 L186.6154,337.4728 L189.1865,336.8321 L189.2826,337.0586 L191.5087,335.5422 L194.0155,334.6871 L196.5565,333.9127 L198.8983,332.6689 L201.3449,331.6719 L201.3581,331.6992 L203.6697,330.5248 L206.0416,329.4745 L208.3845,328.3643 L210.7829,327.3684 L213,326 L213.1484,326.2587 L215.053,325.1703 L216.8619,323.9151 L218.8109,322.9041 L220.7665,321.9046 L222.514,320.5423 L222.3379,320.2745 L224.543,319.5689 L226.1683,317.9815 L228.2344,317.0644 L229.8465,315.457 L231.8308,314.4155 L231.8129,314.3908 L233.7943,313.3976 L235.358,311.8287 L237.1682,310.5995 L238.9991,309.3988 L240.6806,307.9924 L240.7946,308.1381 L242.3022,306.7217 L244.0046,305.5544 L245.3919,303.9842 L247.2492,303.0148 L248.794,301.646 " fill="none" style="stroke: #A80036; stroke-width: 1.0;"/><polygon fill="#A80036" points="159.875,347.1336,159.8828,347.2032,161.8173,347.2148,163.7974,347.6346,165.7626,347.9214,167.6791,347.7711,169.6631,348.2259,169.6512,348.2029,168.5933,347.579,167.5955,347.0709,166.6394,346.6435,165.5394,345.9383,164.6411,345.6222,164.8049,345.7071,164.9753,344.5211,165.6241,343.583,166.3312,342.6753,166.6987,341.5914,167.2448,340.6002,167.2599,340.6172,165.7638,341.8989,164.3364,343.2581,162.8758,344.5799,161.4785,345.973,159.875,347.1336" style="stroke: #A80036; stroke-width: 1.0;"/><!--link Block owner to admin--><path d="M179.512,289.213 L179.5283,289.4928 L189.3609,288.0859 L199.289,288.3191 L209.186,288.0183 L218.9807,285.9611 L228.911,286.2317 L238.7649,285.1919 L248.679,285.184 " fill="none" style="stroke: #A80036; stroke-width: 1.0;"/><polygon fill="#A80036" points="174.234,289.52,174.2587,289.5856,176.0289,290.0845,177.9438,290.9678,179.8116,291.726,181.5245,292.0725,183.4518,292.9888,183.4346,292.9694,182.512,292.1305,181.6763,291.3892,180.9009,290.7157,179.9176,289.8085,179.2255,289.2287,179.3634,289.3513,179.8206,288.2437,180.6803,287.4943,181.5891,286.7886,182.2122,285.8286,182.9856,285.0024,182.9961,285.0226,181.2304,285.8964,179.5123,286.8623,177.7712,287.7838,176.0739,288.79,174.234,289.52" style="stroke: #A80036; stroke-width: 1.0;"/><!--link Deregister owner to admin--><path d="M161.884,241.152 L161.9156,241.2399 L166.9142,242.8078 L172.098,244.8911 L177.2215,246.8066 L182.1467,248.1702 L187.3464,250.2977 L187.3343,250.2654 L189.876,251.0865 L192.4785,252.0707 L195.1232,253.1684 L197.6224,253.8752 L200.3254,255.1296 L200.4137,255.3593 L202.7598,255.8422 L205.3637,256.9957 L207.999,258.231 L210.4514,258.9903 L213,260 L213.0114,260.0281 L216.6909,261.4935 L220.4225,263.0867 L224.129,264.6182 L227.8835,266.2675 L231.4815,267.533 L231.5993,267.807 L235.0864,269.3086 L238.4976,270.6334 L242.02,272.2169 L245.5475,273.8125 L248.91,275.024 " fill="none" style="stroke: #A80036; stroke-width: 1.0;"/><polygon fill="#A80036" points="156.899,239.404,156.947,239.455,158.2383,240.6539,159.8111,242.1518,161.2922,243.5524,162.4718,244.6328,164.0688,246.1564,164.0454,246.1451,163.4504,245.0751,162.973,244.0617,162.5775,243.0876,161.9,241.978,161.6174,241.0582,161.6974,241.2246,162.546,240.3786,163.6281,240.0183,164.7387,239.7172,165.6835,239.0714,166.7155,238.6069,166.7174,238.6296,164.7514,238.7557,162.7937,238.985,160.8321,239.1646,158.8781,239.4392,156.899,239.404" style="stroke: #A80036; stroke-width: 1.0;"/><!--link Register owner to admin--><path d="M171.717,168.272 L171.7503,168.3593 L173.8317,168.9309 L176.1082,170.0142 L178.3211,170.9309 L180.3252,171.2996 L182.6184,172.4268 L182.6039,172.3955 L184.6823,173.247 L186.8339,174.2567 L189.0363,175.3761 L191.0635,176.117 L193.3361,177.3881 L193.4581,177.6019 L195.2431,178.3119 L197.3841,179.6459 L199.5686,181.056 L201.5004,182.0232 L203.565,183.2234 L203.5827,183.248 L205.4438,184.5672 L207.3853,185.9985 L209.288,187.3757 L211.2649,188.8561 L213,190 L213.206,190.2157 L215.6036,192.5059 L217.8683,194.657 L220.3275,197.0118 L222.7959,199.376 L224.9754,201.4379 L224.7255,201.2372 L227.3133,204.245 L229.0781,206.5919 L231.4686,209.4413 L233.2148,211.7732 L235.4891,214.5293 L235.4636,214.5126 L237.5778,217.4949 L239.0957,220.0892 L240.9655,222.9124 L242.8648,225.7549 L244.551,228.4587 L244.7134,228.5474 L246.0735,231.2483 L247.7111,234.1008 L248.8997,236.7081 L250.7579,239.6811 L252.171,242.411 " fill="none" style="stroke: #A80036; stroke-width: 1.0;"/><polygon fill="#A80036" points="166.809,166.64,166.8562,166.6918,168.1717,167.8649,169.7639,169.3416,171.2659,170.7194,172.4717,171.7722,174.0876,173.2749,174.0645,173.2633,173.4537,172.1997,172.9598,171.1946,172.547,170.2301,171.8544,169.1256,171.5537,168.2173,171.6364,168.3823,172.4711,167.5227,173.5472,167.1448,174.6527,166.8256,175.587,166.1646,176.6113,165.6833,176.6135,165.706,174.6498,165.8641,172.6962,166.1252,170.7377,166.3367,168.7884,166.643,166.809,166.64" style="stroke: #A80036; stroke-width: 1.0;"/><!--link admin to Unblock entity--><path d="M291.251,286.257 L291.2821,286.5355 L300.8849,286.7888 L310.6698,288.6748 L320.3955,290.0292 L329.9262,289.6351 L339.7152,291.5583 L349.3589,292.177 L359.117,293.823 " fill="none" style="stroke: #A80036; stroke-width: 1.0;"/><polygon fill="#A80036" points="364.296,294.4,364.3314,294.4605,362.5258,293.2866,360.9275,292.4673,359.2618,291.5326,357.374,290.2181,355.7936,289.4292,355.7733,289.4131,356.3892,290.224,357.107,291.1165,357.8957,292.0657,358.4401,292.8196,359.3267,293.8471,359.4419,293.9912,358.3119,294.3896,357.5184,295.2088,356.7659,296.0794,355.7746,296.6512,354.9088,297.3802,354.9157,297.4018,356.7831,296.774,358.6817,296.2448,360.5653,295.668,362.4776,295.1821,364.296,294.4" style="stroke: #A80036; stroke-width: 1.0;"/><!--link admin to Block entity--><path d="M291.251,277.626 L291.3351,277.8933 L300.193,274.2323 L309.5442,272.1382 L318.7347,269.5339 L327.397,265.2515 L336.7594,263.1932 L345.7277,259.8828 L354.8528,257.0707 L364.0869,254.6049 L372.9453,250.9455 L382.33,248.958 " fill="none" style="stroke: #A80036; stroke-width: 1.0;"/><polygon fill="#A80036" points="387.355,247.377,387.3629,247.4466,385.3822,247.0173,383.4479,246.996,381.4985,246.8419,379.4995,246.2508,377.5692,246.2646,377.5572,246.2416,378.5068,246.6613,379.5168,247.1968,380.5687,247.8129,381.476,248.1514,382.5858,248.8786,382.7495,248.9639,381.8767,249.7849,381.4817,250.8548,381.1451,251.9551,380.4692,252.8787,379.9718,253.8953,379.9868,253.9123,381.4414,252.5836,382.9644,251.3326,384.4545,250.0441,386.0076,248.827,387.355,247.377" style="stroke: #A80036; stroke-width: 1.0;"/><!--link Register entity to owner--><path d="M477.009,114.148 L477.0401,114.2361 L479.2396,114.785 L481.6216,115.8502 L483.9441,116.7473 L486.0711,117.0915 L488.4688,118.2011 L488.4559,118.169 L490.7042,118.9549 L493.0177,119.9023 L495.3764,120.9619 L497.5791,121.6346 L500.0003,122.8493 L500.1042,123.0723 L502.1386,123.6475 L504.4765,124.8738 L506.8515,126.1796 L509.011,127.0231 L511.2838,128.1098 L511.2984,128.1364 L513.4202,129.2754 L515.6085,130.5354 L517.7647,131.7371 L519.9821,133.0501 L522,134 L522.1658,134.2479 L524.1132,135.5519 L525.9537,136.696 L527.9508,138.0742 L529.9552,139.4633 L531.7271,140.5049 L531.5285,140.2533 L533.7815,142.2156 L535.3805,143.3495 L537.4767,145.1132 L539.0609,146.2284 L541.0648,147.8751 L541.0445,147.8524 L543.0332,149.6809 L544.5485,150.9784 L546.3432,152.5893 L548.1613,154.2264 L549.8103,155.6738 L549.9397,155.806 L551.3992,157.2306 L553.0799,158.8811 L554.4027,160.1662 L556.2593,161.9962 L557.761,163.464 " fill="none" style="stroke: #A80036; stroke-width: 1.0;"/><polygon fill="#A80036" points="471.936,112.507,471.9828,112.5591,473.3099,113.7197,474.9113,115.1859,476.4233,116.5526,477.6416,117.592,479.2666,119.0845,479.2435,119.0727,478.6252,118.0123,478.1233,117.0113,477.7022,116.0516,477.0024,114.9496,476.693,114.0469,476.7769,114.2113,477.6049,113.3451,478.678,112.9588,479.781,112.631,480.71,111.9626,481.7305,111.4733,481.7329,111.4959,479.7705,111.6695,477.8189,111.946,475.8622,112.1728,473.9154,112.4944,471.936,112.507" style="stroke: #A80036; stroke-width: 1.0;"/><!--link Deregister entity to owner--><path d="M495.526,177.238 L495.5587,177.5163 L505.8585,177.9125 L516.3501,179.9403 L526.7793,181.4368 L537.0029,181.186 L547.4989,183.2509 L557.908,184.577 " fill="none" style="stroke: #A80036; stroke-width: 1.0;"/><polygon fill="#A80036" points="490.386,176.634,490.4217,176.6943,492.0097,177.5201,493.8072,178.6991,495.5365,179.7632,497.0414,180.4489,498.8569,181.6583,498.8366,181.6423,498.0443,180.6822,497.3545,179.8031,496.736,178.9802,495.8719,177.9635,495.3517,177.2183,495.4661,177.3631,496.1096,176.3524,497.0869,175.7645,498.105,175.2282,498.886,174.3917,499.7918,173.7131,499.7985,173.7348,497.9075,174.2871,496.0471,174.9383,494.1719,175.5418,492.3251,176.2363,490.386,176.634" style="stroke: #A80036; stroke-width: 1.0;"/><!--link Unblock entity to owner--><path d="M479.528,289.138 L479.5601,289.2257 L481.6836,288.1527 L483.9954,287.5939 L486.2459,286.8677 L488.2948,285.5907 L490.6228,285.0761 L490.6089,285.0445 L492.7447,283.9352 L494.9507,282.9853 L497.2054,282.1463 L499.2921,280.9254 L501.6141,280.2392 L501.7305,280.4561 L503.5949,278.858 L505.7991,277.893 L508.0447,277.0052 L510.0491,275.6681 L512.1804,274.5673 L512.1973,274.5925 L514.1364,273.242 L516.1524,272.0063 L518.1313,270.7153 L520.1808,269.5298 L522,268 L522.1949,268.2257 L524.2854,266.4254 L526.2502,264.4795 L528.3991,262.7467 L530.5565,261.0239 L532.4407,258.9846 L532.2055,258.7668 L534.5646,257.1341 L536.1493,254.7845 L538.3228,252.9799 L539.8899,250.614 L541.954,248.7081 L541.93,248.6894 L543.9211,246.713 L545.3504,244.3002 L547.1112,242.1449 L548.8999,240.0112 L550.4878,237.7216 L550.6413,237.8249 L551.9868,235.4915 L553.5946,233.3346 L554.7781,230.8922 L556.5944,228.8757 L557.99,226.576 " fill="none" style="stroke: #A80036; stroke-width: 1.0;"/><polygon fill="#A80036" points="474.564,290.736,474.5715,290.8057,476.5079,290.8082,478.488,291.2192,480.4539,291.4972,482.3731,291.3378,484.357,291.7838,484.3451,291.7608,483.2853,291.1412,482.2851,290.6377,481.3263,290.2151,480.2248,289.5141,479.3232,289.2029,479.4874,289.2871,479.6524,288.1003,480.2969,287.1594,480.9998,286.2484,481.3625,285.1629,481.9041,284.1692,481.9192,284.1861,480.429,285.4746,479.0077,286.8402,477.5532,288.1687,476.1622,289.5681,474.564,290.736" style="stroke: #A80036; stroke-width: 1.0;"/><!--link Block entity to owner--><path d="M466.399,222.901 L466.4845,223.1679 L475.3799,219.4448 L484.7764,217.2862 L494.0097,214.6182 L502.7065,210.2747 L512.1144,208.1518 L521.122,204.7788 L530.2888,201.9033 L539.5665,199.3737 L548.4625,195.6522 L557.893,193.6 " fill="none" style="stroke: #A80036; stroke-width: 1.0;"/><polygon fill="#A80036" points="461.372,224.512,461.3796,224.5816,463.3153,224.5878,465.2954,225.0023,467.261,225.2838,469.1791,225.128,471.163,225.5775,471.1512,225.5545,470.0921,224.9332,469.0929,224.4279,468.1352,224.0033,467.0342,223.3007,466.1339,222.9876,466.298,223.072,466.4652,221.8855,467.1113,220.9457,467.8159,220.036,468.1805,218.9512,468.7239,217.9584,468.7391,217.9754,467.2465,219.2612,465.8228,220.6243,464.3658,221.9501,462.9723,223.347,461.372,224.512" style="stroke: #A80036; stroke-width: 1.0;"/><!--link owner to Share--><path d="M601.172,148.382 L601.2495,148.4342 L602.5304,146.0346 L604.2656,143.9409 L605.8529,141.7476 L606.9537,139.2267 L608.7279,137.1593 L608.7005,137.1383 L610.2852,134.8111 L612.0083,132.5898 L613.8275,130.4419 L615.3153,128.0407 L617.2673,125.9944 L617.4507,126.1584 L618.9482,123.6943 L620.9812,121.7092 L623.0796,119.7824 L624.7978,117.5157 L626.716,115.4278 L626.7365,115.4502 L628.7632,113.5318 L630.8832,111.7152 L632.9582,109.8495 L635.1191,108.0774 L637,106 L637.1729,106.243 L639.21,104.7977 L641.1355,103.1957 L643.2242,101.8232 L645.3206,100.4614 L647.1746,98.7589 L647.0172,98.4796 L649.5317,97.7763 L651.5279,96.1535 L653.9182,95.2296 L655.9027,93.586 L658.2198,92.5324 L658.207,92.5047 L660.6272,91.7811 L662.7486,90.4121 L665.0463,89.4238 L667.3588,88.4676 L669.5645,87.2807 L669.6317,87.4531 L671.7786,86.4157 L674.0403,85.673 L676.1162,84.4536 L678.4692,83.9451 L680.638,82.964 " fill="none" style="stroke: #A80036; stroke-width: 1.0;"/><polygon fill="#A80036" points="685.402,81.308,685.4079,81.3778,683.4276,81.0056,681.4816,81.0427,679.5245,80.9465,677.5306,80.4121,675.5876,80.4843,675.5764,80.461,676.544,80.8494,677.5685,81.3553,678.6326,81.9429,679.5604,82.249,680.6791,82.9494,680.8452,83.0299,679.997,83.8762,679.6337,84.9573,679.3296,86.0671,678.6812,87.0101,678.214,88.0409,678.2295,88.0575,679.6443,86.6865,681.1299,85.3912,682.5813,84.0593,684.0979,82.7971,685.402,81.308" style="stroke: #A80036; stroke-width: 1.0;"/><!--link owner to Follow--><path d="M601.047,179.344 L601.1449,179.6066 L609.8816,175.4625 L619.1919,172.8577 L628.3154,169.7517 L636.8246,164.9971 L646.148,162.4275 L655.0131,158.6278 L664.0606,155.3176 L673.2348,152.3477 L682.294,149.069 " fill="none" style="stroke: #A80036; stroke-width: 1.0;"/><polygon fill="#A80036" points="687.111,147.274,687.1153,147.3439,685.1365,147.0149,683.1829,147.0958,681.2211,147.0432,679.2322,146.5517,677.2808,146.6678,677.27,146.6442,678.2507,147.0088,679.2856,147.4922,680.3582,148.0582,681.3008,148.3396,682.4256,149.0196,682.5934,149.0963,681.7642,149.9612,681.4249,151.0501,681.1455,152.1663,680.5181,153.1235,680.0738,154.1644,680.0897,154.1806,681.4738,152.7787,682.9303,151.4508,684.3519,150.0871,685.8401,148.7916,687.111,147.274" style="stroke: #A80036; stroke-width: 1.0;"/><!--link owner to Unfollow--><path d="M601.047,189.344 L601.0788,189.6224 L610.2957,189.8573 L619.6988,191.7243 L629.0413,193.0599 L638.1843,192.6475 L647.5917,194.5518 L656.8503,195.1519 L666.226,196.779 " fill="none" style="stroke: #A80036; stroke-width: 1.0;"/><polygon fill="#A80036" points="671.203,197.346,671.2385,197.4064,669.4353,196.2279,667.8404,195.4035,666.1777,194.4637,664.2919,193.1449,662.7149,192.3508,662.6946,192.3347,663.3077,193.148,664.023,194.0425,664.8093,194.9935,665.3508,195.7498,666.2353,196.7788,666.3501,196.9232,665.2189,197.3184,664.4231,198.1354,663.6681,199.0037,662.6751,199.5727,661.8073,200.2992,661.8142,200.3209,663.6833,199.6984,665.5834,199.1747,667.4686,198.6033,669.3824,198.1229,671.203,197.346" style="stroke: #A80036; stroke-width: 1.0;"/><!--link owner to entity--><!--link entity to Publish--><path d="M598.509,307 L598.509,307.2802 L608.6116,306.4476 L618.7141,307.2577 L628.8167,307.5329 L638.9193,306.0488 L649.0219,306.8964 L659.1244,306.4313 L669.227,307 " fill="none" style="stroke: #A80036; stroke-width: 1.0;"/><polygon fill="#A80036" points="674.265,307,674.2935,307.064,672.4089,306.0738,670.6912,305.4589,668.9191,304.7217,666.9684,303.5827,665.265,303,665.2467,302.9817,665.9645,303.6995,666.7746,304.5096,667.6489,305.3839,668.302,306.037,669.265,307,669.3955,307.1305,668.3164,307.6514,667.6184,308.5534,666.9668,309.5018,666.0448,310.1798,665.265,311,665.2742,311.0208,667.0607,310.1903,668.8892,309.4544,670.6974,308.6728,672.5443,307.9784,674.265,307" style="stroke: #A80036; stroke-width: 1.0;"/><!--link entity to Subscribe--><path d="M598.541,317.903 L598.5879,317.9838 L600.2055,318.7645 L602.0981,320.0188 L603.9012,321.1188 L605.4096,321.7118 L607.3259,323.0067 L607.3089,322.9767 L609.1584,323.927 L611.0933,325.0291 L613.0877,326.2366 L614.8773,327.0807 L616.9538,328.4338 L617.0709,328.6502 L618.8276,329.2747 L620.9264,330.5309 L623.0669,331.8641 L624.9646,332.749 L626.99,333.8697 L627.0038,333.8967 L628.9855,334.8831 L631.0302,335.9924 L633.0445,337.0425 L635.1167,338.2056 L637,339 L637.1291,339.2688 L639.1299,340.2324 L641.0474,341.0225 L643.0869,342.0664 L645.132,343.1222 L646.9961,343.8011 L646.8629,343.5096 L649.178,345.0151 L651.0544,345.5606 L653.2643,346.8359 L655.1308,347.3597 L657.2788,348.4995 L657.2667,348.4715 L661.4421,350.5438 L665.3355,351.963 L669.3953,353.7676 L673.469,355.6045 L677.442,357.2081 " fill="none" style="stroke: #A80036; stroke-width: 1.0;"/><polygon fill="#A80036" points="682.087,359.1392,682.1378,359.1874,680.6316,357.6147,679.4233,356.3246,678.118,354.9424,676.4936,353.2577,675.3109,351.9918,675.287,351.9819,675.6113,352.9833,676.0563,354.0345,676.5852,355.1204,676.825,356.0868,677.4698,357.2205,677.5402,357.3911,676.3439,357.4581,675.3531,358.0231,674.3875,358.6489,673.2759,358.9212,672.2411,359.3794,672.2416,359.4021,674.21,359.3207,676.1809,359.3428,678.1506,359.315,680.1226,359.3824,682.087,359.1392" style="stroke: #A80036; stroke-width: 1.0;"/><!--
@startuml
skinparam handwritten true
left to right direction


rectangle "Manage owners" {
(Register owner)
(Deregister owner)
(Block owner)
(Unblock owner)

}

rectangle "Manage entities" {
(Register entity)
(Deregister entity)
(Block entity)
(Unblock entity)

}

rectangle "Access control" {
(Share)
(Follow)
(Unfollow)
}

rectangle "Data access" {
(Publish)
(Subscribe)
}


(Unblock owner) <- - admin
(Block owner) <- - admin
(Deregister owner) <- - admin
(Register owner) <- - admin

admin - -> (Unblock entity)
admin - -> (Block entity)

(Register entity) <- - owner
(Deregister entity) <- - owner
(Unblock entity) <- - owner
(Block entity) <- - owner



owner - -> (Share)
owner - -> (Follow)
owner - -> (Unfollow)


entity entity

owner -[hidden]> entity

entity - -> (Publish)
entity - -> (Subscribe)
@enduml

PlantUML version 1.2018.14beta12(Unknown compile time)
(GPL source distribution)
Java Runtime: Java(TM) SE Runtime Environment
JVM: Java HotSpot(TM) 64-Bit Server VM
Java Version: 1.7.0_25-b15
Operating System: Linux
Default Encoding: UTF-8
Language: en
Country: US
--></g></svg>
